# This file uses meters as units for non-parametric coordinates.

mtllib Water_Fall.mtl
g default
v -46.514928 303.676175 -292.352724
v -33.712528 303.676175 -337.796053
v -15.376616 303.676175 -345.165407
v 3.260586 303.676175 -345.181123
v 20.386189 303.676175 -336.466005
v 29.744897 303.676175 -288.595125
v -59.024968 224.597226 -352.839784
v -43.968980 224.597211 -396.569856
v -22.196569 224.597211 -403.772035
v 1.590335 224.597211 -403.772035
v 24.521672 224.597226 -395.401247
v 39.182123 224.597211 -349.469118
v -68.754428 118.430711 -352.210939
v -51.104136 118.430711 -397.756380
v -24.345739 118.430703 -404.723329
v 3.894067 118.430711 -404.723329
v 31.411081 118.430711 -397.010835
v 48.911572 118.430703 -348.517824
v -74.984077 37.443597 -353.268556
v -54.209002 37.443597 -399.454561
v -22.945119 37.443597 -406.096987
v 7.489812 37.443589 -406.096987
v 35.927577 37.443593 -398.732576
v 55.141221 37.443597 -349.510988
v -90.189295 -15.232074 -361.435549
v -67.658512 -15.232074 -408.080873
v -22.798497 -15.232074 -414.263979
v 15.973605 -15.232081 -414.263979
v 52.436870 -15.232081 -407.347872
v 70.346445 -15.232089 -357.677980
v -100.500083 -52.297946 -370.085176
v -67.431529 -52.297954 -416.985903
v -20.816233 -52.297961 -422.913576
v 16.655333 -52.297961 -422.913576
v 53.566429 -52.297961 -416.285372
v 80.657250 -52.297961 -366.327577
v 22.610943 37.443593 -406.066286
v 48.395911 73.947099 -348.327577
v 44.417279 37.443597 -375.639131
v -61.060349 8.276517 -403.242830
v -82.604142 -15.232089 -386.923494
v -83.513734 8.276521 -356.818758
v -23.008271 8.276517 -409.647157
v -45.438062 -15.232089 -414.263979
v 11.815398 8.276513 -409.647157
v -2.796791 -15.232081 -414.263979
v 44.247480 8.276513 -402.508333
v 34.904577 -15.232089 -414.263979
v 63.390167 8.276517 -353.061189
v 58.062051 -15.232089 -384.136629
v -68.036982 -34.760150 -412.610597
v -83.627796 -52.297946 -395.802980
v -96.768613 -34.760142 -365.818758
v -21.725034 -34.760150 -418.647157
v -43.866770 -52.297954 -422.913576
v 16.715320 -34.760150 -418.647157
v -1.369287 -52.297961 -422.913576
v 53.622365 -34.760150 -411.890901
v 35.438884 -52.297961 -422.913576
v 76.925757 -34.760150 -362.061189
v 65.819630 -52.297961 -393.004274
v -39.323548 303.676175 -317.104677
v -39.959626 269.655667 -383.887789
v -50.735195 224.597211 -376.560152
v -54.001440 268.839078 -338.391237
v -24.975211 303.676175 -344.759065
v -19.819257 269.847959 -391.433077
v -33.830542 224.597211 -403.432955
v -6.121747 303.676175 -345.181123
v 2.311312 269.826688 -391.397737
v -10.452992 224.597211 -403.772035
v 12.988609 303.676175 -344.429323
v 23.685226 269.445279 -382.186983
v 14.036902 224.597211 -403.247804
v 23.111439 303.676175 -313.927553
v 35.656433 268.712827 -334.682100
v 30.835910 224.597211 -373.609834
v -46.576790 171.538053 -397.064821
v -59.253253 118.430711 -376.987123
v -62.401920 171.538068 -352.588258
v -23.101367 171.538053 -404.152559
v -38.611904 118.430703 -404.622591
v 2.221184 171.538068 -404.152559
v -10.309072 118.430711 -404.723329
v 26.855142 171.538053 -396.127352
v 18.669373 118.430711 -404.606752
v 42.559073 171.538053 -349.088594
v 39.130886 118.430703 -374.170381
v -50.334651 73.947099 -398.087282
v -64.024398 37.443597 -378.427370
v -68.238750 73.947106 -352.085176
v -23.139016 73.947099 -404.913576
v -39.289873 37.443593 -406.096987
v 4.619993 73.947099 -404.913576
v -7.528190 37.443593 -406.096987
v 31.125669 73.947099 -397.386232
v -46.193639 268.833798 -362.361513
v -30.529788 269.857388 -391.086916
v -8.926647 269.834226 -391.410280
v 13.890879 269.826657 -390.696657
v 28.987951 268.600492 -358.843355
v -53.783433 171.538068 -376.737612
v -35.661065 171.538053 -403.938295
v -10.569559 171.538053 -404.152559
v 15.546349 171.538053 -403.870119
v 33.706175 171.538053 -373.868715
v -58.699211 73.947106 -377.130739
v -37.533833 73.947099 -404.880281
v -9.223613 73.947099 -404.913576
v 18.782884 73.947099 -404.853304
v 38.758310 73.947099 -374.336641
v -73.399779 8.276517 -382.138429
v -42.522558 8.276517 -409.647157
v -5.190736 8.276517 -409.647157
v 28.886223 8.276517 -409.647157
v 51.803936 8.276517 -379.353334
v -83.802913 -34.760150 -391.432588
v -44.837757 -34.760150 -418.647157
v -1.814386 -34.760150 -418.647157
v 35.683098 -34.760158 -418.647157
v 62.685888 -34.760158 -388.640535
vt 1.000000 1.000000
vt 0.848054 1.000000
vt 0.861165 0.851775
vt 1.000000 0.850661
vt 0.722094 1.000000
vt 0.738471 0.850615
vt 0.750118 0.729031
vt 0.864107 0.731712
vt 1.000000 0.730803
vt 0.644754 1.000000
vt 0.661833 0.849605
vt 0.571930 1.000000
vt 0.586418 0.849710
vt 0.591673 0.727090
vt 0.671752 0.727066
vt 0.501750 1.000000
vt 0.509743 0.850273
vt 0.430604 1.000000
vt 0.430637 0.850875
vt 0.427981 0.728813
vt 0.510858 0.727860
vt 0.356710 1.000000
vt 0.349041 0.851407
vt 0.284401 1.000000
vt 0.266543 0.852424
vt 0.259397 0.731937
vt 0.342286 0.729768
vt 0.153618 1.000000
vt 0.136815 0.851920
vt 0.000000 1.000000
vt 0.000000 0.851005
vt 0.000000 0.731653
vt 0.138041 0.732257
vt 0.867278 0.595333
vt 1.000000 0.595052
vt 0.755696 0.591794
vt 0.764276 0.453848
vt 0.872048 0.457964
vt 1.000000 0.457969
vt 0.676193 0.588922
vt 0.593583 0.588648
vt 0.594886 0.450044
vt 0.681835 0.450419
vt 0.511164 0.589483
vt 0.427041 0.590705
vt 0.422773 0.452364
vt 0.509337 0.450972
vt 0.339393 0.592162
vt 0.255654 0.594997
vt 0.247549 0.457278
vt 0.332721 0.454108
vt 0.136215 0.595302
vt 0.000000 0.595744
vt 0.000000 0.458498
vt 0.132322 0.457329
vt 0.870526 0.343941
vt 1.000000 0.344548
vt 0.761119 0.339007
vt 0.767303 0.243804
vt 0.874292 0.248600
vt 1.000000 0.248695
vt 0.676862 0.334667
vt 0.588919 0.333934
vt 0.583491 0.238663
vt 0.677127 0.239486
vt 0.503906 0.334902
vt 0.419331 0.336567
vt 0.409135 0.241003
vt 0.495170 0.239474
vt 0.332805 0.338830
vt 0.249894 0.342667
vt 0.239878 0.247145
vt 0.322508 0.243275
vt 0.133723 0.342796
vt 0.000000 0.344945
vt 0.000000 0.248982
vt 0.128710 0.246800
vt 0.886526 0.166810
vt 1.000000 0.168449
vt 0.780798 0.164369
vt 0.793094 0.098451
vt 0.899428 0.097852
vt 1.000000 0.103350
vt 0.680336 0.162264
vt 0.578011 0.162020
vt 0.572765 0.099523
vt 0.682767 0.099153
vt 0.484582 0.162424
vt 0.395409 0.163097
vt 0.384377 0.099123
vt 0.475580 0.099401
vt 0.305896 0.164140
vt 0.220526 0.166239
vt 0.203504 0.098392
vt 0.292395 0.098714
vt 0.120593 0.167027
vt 0.000000 0.168978
vt 0.000000 0.103470
vt 0.114012 0.101686
vt 0.890612 0.046326
vt 1.000000 0.047707
vt 0.785129 0.046697
vt 0.776545 0.000000
vt 0.881445 0.000000
vt 1.000000 0.000000
vt 0.674108 0.047061
vt 0.565579 0.047186
vt 0.559856 0.000000
vt 0.666044 0.000000
vt 0.472085 0.047096
vt 0.385076 0.046974
vt 0.387233 0.000000
vt 0.470268 0.000000
vt 0.296010 0.046781
vt 0.208429 0.046580
vt 0.214064 0.000000
vt 0.300702 0.000000
vt 0.115604 0.047738
vt 0.000000 0.047762
vt 0.000000 0.000000
vt 0.115303 0.000000
vn -0.825833 0.503326 -0.254288
vn -0.832361 0.495259 -0.248786
vn -0.903390 0.327270 -0.277092
vn -0.877123 0.389438 -0.281057
vn -0.758047 0.569445 -0.317958
vn -0.777759 0.420320 -0.467356
vn -0.836036 0.124773 -0.534299
vn -0.941079 0.116631 -0.317440
vn -0.937434 0.127272 -0.324068
vn -0.231914 0.798564 -0.555438
vn -0.278151 0.559447 -0.780801
vn -0.009774 0.807732 -0.589469
vn -0.012926 0.580221 -0.814356
vn -0.012909 0.124332 -0.992157
vn -0.310192 0.134298 -0.941140
vn 0.000703 0.806925 -0.590653
vn 0.000826 0.578480 -0.815696
vn 0.021353 0.806679 -0.590604
vn 0.024235 0.576217 -0.816937
vn 0.020062 0.125260 -0.991921
vn 0.000398 0.124166 -0.992261
vn 0.305602 0.772957 -0.556009
vn 0.322425 0.531680 -0.783172
vn 0.866357 0.434202 -0.246768
vn 0.839579 0.335853 -0.426978
vn 0.859966 0.097636 -0.500925
vn 0.333408 0.126638 -0.934239
vn 0.879473 0.423466 -0.217262
vn 0.942131 0.240525 -0.233531
vn 0.863137 0.448004 -0.232994
vn 0.904167 0.339540 -0.259221
vn 0.943895 0.103658 -0.313556
vn 0.952964 0.086895 -0.290361
vn -0.937796 0.076447 -0.338665
vn -0.937117 0.081313 -0.339411
vn -0.824212 0.062663 -0.562803
vn -0.813359 0.038020 -0.580518
vn -0.933908 0.047711 -0.354317
vn -0.934897 0.049435 -0.351460
vn -0.282171 0.025751 -0.959018
vn -0.008540 0.009867 -0.999915
vn -0.004324 0.008274 -0.999956
vn -0.267324 0.016741 -0.963461
vn -0.000000 0.009038 -0.999959
vn 0.011382 0.010321 -0.999882
vn 0.005403 0.008523 -0.999949
vn -0.000000 0.007726 -0.999970
vn 0.303153 0.027734 -0.952538
vn 0.848838 0.063665 -0.524805
vn 0.842129 0.043656 -0.537507
vn 0.287261 0.020978 -0.957622
vn 0.944919 0.075506 -0.318476
vn 0.937556 0.080229 -0.338455
vn 0.935940 0.049617 -0.348647
vn 0.942072 0.049630 -0.331719
vn -0.925864 0.061351 -0.372842
vn -0.927928 0.071233 -0.365889
vn -0.778276 0.045729 -0.626255
vn -0.723131 0.182036 -0.666291
vn -0.892196 0.220535 -0.394145
vn -0.897999 0.237244 -0.370558
vn -0.230456 0.023758 -0.972793
vn -0.001496 0.017659 -0.999843
vn -0.000287 0.075100 -0.997176
vn -0.201480 0.099631 -0.974413
vn 0.000000 0.017229 -0.999852
vn 0.002378 0.017436 -0.999845
vn 0.001080 0.074398 -0.997228
vn -0.000000 0.074448 -0.997225
vn 0.257832 0.030759 -0.965700
vn 0.822272 0.059602 -0.565965
vn 0.795425 0.200940 -0.571771
vn 0.240380 0.114950 -0.963848
vn 0.937892 0.067931 -0.340211
vn 0.931375 0.074197 -0.356421
vn 0.902722 0.223829 -0.367416
vn 0.913164 0.215311 -0.346081
vn -0.851246 0.333240 -0.405379
vn -0.879059 0.335075 -0.339088
vn -0.638529 0.295711 -0.710518
vn -0.608032 0.270974 -0.746237
vn -0.852816 0.297981 -0.428849
vn -0.889078 0.316333 -0.330869
vn -0.166213 0.186702 -0.968254
vn 0.000000 0.155836 -0.987783
vn -0.000000 0.205168 -0.978727
vn -0.147347 0.220894 -0.964103
vn -0.000000 0.155427 -0.987847
vn 0.000279 0.155389 -0.987853
vn 0.000000 0.204996 -0.978763
vn 0.000000 0.205034 -0.978755
vn 0.213611 0.210839 -0.953896
vn 0.760802 0.310839 -0.569701
vn 0.769488 0.291052 -0.568486
vn 0.204113 0.241831 -0.948607
vn 0.889975 0.302765 -0.340996
vn 0.873504 0.300907 -0.382683
vn 0.853217 0.328582 -0.405035
vn 0.885589 0.307984 -0.347674
vn -0.839553 0.195186 -0.507004
vn -0.873757 0.234788 -0.425939
vn -0.569596 0.191011 -0.799422
vn -0.529999 0.189652 -0.826518
vn -0.819084 0.167320 -0.548730
vn -0.845857 0.206830 -0.491678
vn -0.127912 0.224103 -0.966135
vn -0.000000 0.227272 -0.973831
vn 0.000000 0.236376 -0.971662
vn -0.116970 0.231128 -0.965866
vn 0.000000 0.227188 -0.973851
vn 0.000000 0.227199 -0.973848
vn 0.000000 0.236376 -0.971662
vn 0.000000 0.236376 -0.971662
vn 0.179875 0.229222 -0.956610
vn 0.729837 0.224354 -0.645757
vn 0.679506 0.216573 -0.700976
vn 0.168005 0.233219 -0.957801
vn 0.878311 0.259986 -0.401220
vn 0.843008 0.309205 -0.440147
vn 0.843033 0.278256 -0.460292
vn 0.868708 0.232755 -0.437232
s 1
g pCube68
usemtl initialShadingGroup
f 1/1/1 62/2/2 97/3/3 65/4/4
f 62/2/2 2/5/5 63/6/6 97/3/3
f 97/3/3 63/6/6 8/7/7 64/8/8
f 65/4/4 97/3/3 64/8/8 7/9/9
f 2/5/5 66/10/10 98/11/11 63/6/6
f 66/10/10 3/12/12 67/13/13 98/11/11
f 98/11/11 67/13/13 9/14/14 68/15/15
f 63/6/6 98/11/11 68/15/15 8/7/7
f 3/12/12 69/16/16 99/17/17 67/13/13
f 69/16/16 4/18/18 70/19/19 99/17/17
f 99/17/17 70/19/19 10/20/20 71/21/21
f 67/13/13 99/17/17 71/21/21 9/14/14
f 4/18/18 72/22/22 100/23/23 70/19/19
f 72/22/22 5/24/24 73/25/25 100/23/23
f 100/23/23 73/25/25 11/26/26 74/27/27
f 70/19/19 100/23/23 74/27/27 10/20/20
f 5/24/24 75/28/28 101/29/29 73/25/25
f 75/28/28 6/30/30 76/31/31 101/29/29
f 101/29/29 76/31/31 12/32/32 77/33/33
f 73/25/25 101/29/29 77/33/33 11/26/26
f 7/9/9 64/8/8 102/34/34 80/35/35
f 64/8/8 8/7/7 78/36/36 102/34/34
f 102/34/34 78/36/36 14/37/37 79/38/38
f 80/35/35 102/34/34 79/38/38 13/39/39
f 8/7/7 68/15/15 103/40/40 78/36/36
f 68/15/15 9/14/14 81/41/41 103/40/40
f 103/40/40 81/41/41 15/42/42 82/43/43
f 78/36/36 103/40/40 82/43/43 14/37/37
f 9/14/14 71/21/21 104/44/44 81/41/41
f 71/21/21 10/20/20 83/45/45 104/44/44
f 104/44/44 83/45/45 16/46/46 84/47/47
f 81/41/41 104/44/44 84/47/47 15/42/42
f 10/20/20 74/27/27 105/48/48 83/45/45
f 74/27/27 11/26/26 85/49/49 105/48/48
f 105/48/48 85/49/49 17/50/50 86/51/51
f 83/45/45 105/48/48 86/51/51 16/46/46
f 11/26/26 77/33/33 106/52/52 85/49/49
f 77/33/33 12/32/32 87/53/53 106/52/52
f 106/52/52 87/53/53 18/54/54 88/55/55
f 85/49/49 106/52/52 88/55/55 17/50/50
f 13/39/39 79/38/38 107/56/56 91/57/57
f 79/38/38 14/37/37 89/58/58 107/56/56
f 107/56/56 89/58/58 20/59/59 90/60/60
f 91/57/57 107/56/56 90/60/60 19/61/61
f 14/37/37 82/43/43 108/62/62 89/58/58
f 82/43/43 15/42/42 92/63/63 108/62/62
f 108/62/62 92/63/63 21/64/64 93/65/65
f 89/58/58 108/62/62 93/65/65 20/59/59
f 15/42/42 84/47/47 109/66/66 92/63/63
f 84/47/47 16/46/46 94/67/67 109/66/66
f 109/66/66 94/67/67 22/68/68 95/69/69
f 92/63/63 109/66/66 95/69/69 21/64/64
f 16/46/46 86/51/51 110/70/70 94/67/67
f 86/51/51 17/50/50 96/71/71 110/70/70
f 110/70/70 96/71/71 23/72/72 37/73/73
f 94/67/67 110/70/70 37/73/73 22/68/68
f 17/50/50 88/55/55 111/74/74 96/71/71
f 88/55/55 18/54/54 38/75/75 111/74/74
f 111/74/74 38/75/75 24/76/76 39/77/77
f 96/71/71 111/74/74 39/77/77 23/72/72
f 19/61/61 90/60/60 112/78/78 42/79/79
f 90/60/60 20/59/59 40/80/80 112/78/78
f 112/78/78 40/80/80 26/81/81 41/82/82
f 42/79/79 112/78/78 41/82/82 25/83/83
f 20/59/59 93/65/65 113/84/84 40/80/80
f 93/65/65 21/64/64 43/85/85 113/84/84
f 113/84/84 43/85/85 27/86/86 44/87/87
f 40/80/80 113/84/84 44/87/87 26/81/81
f 21/64/64 95/69/69 114/88/88 43/85/85
f 95/69/69 22/68/68 45/89/89 114/88/88
f 114/88/88 45/89/89 28/90/90 46/91/91
f 43/85/85 114/88/88 46/91/91 27/86/86
f 22/68/68 37/73/73 115/92/92 45/89/89
f 37/73/73 23/72/72 47/93/93 115/92/92
f 115/92/92 47/93/93 29/94/94 48/95/95
f 45/89/89 115/92/92 48/95/95 28/90/90
f 23/72/72 39/77/77 116/96/96 47/93/93
f 39/77/77 24/76/76 49/97/97 116/96/96
f 116/96/96 49/97/97 30/98/98 50/99/99
f 47/93/93 116/96/96 50/99/99 29/94/94
f 25/83/83 41/82/82 117/100/100 53/101/101
f 41/82/82 26/81/81 51/102/102 117/100/100
f 117/100/100 51/102/102 32/103/103 52/104/104
f 53/101/101 117/100/100 52/104/104 31/105/105
f 26/81/81 44/87/87 118/106/106 51/102/102
f 44/87/87 27/86/86 54/107/107 118/106/106
f 118/106/106 54/107/107 33/108/108 55/109/109
f 51/102/102 118/106/106 55/109/109 32/103/103
f 27/86/86 46/91/91 119/110/110 54/107/107
f 46/91/91 28/90/90 56/111/111 119/110/110
f 119/110/110 56/111/111 34/112/112 57/113/113
f 54/107/107 119/110/110 57/113/113 33/108/108
f 28/90/90 48/95/95 120/114/114 56/111/111
f 48/95/95 29/94/94 58/115/115 120/114/114
f 120/114/114 58/115/115 35/116/116 59/117/117
f 56/111/111 120/114/114 59/117/117 34/112/112
f 29/94/94 50/99/99 121/118/118 58/115/115
f 50/99/99 30/98/98 60/119/119 121/118/118
f 121/118/118 60/119/119 36/120/120 61/121/121
f 58/115/115 121/118/118 61/121/121 35/116/116
