# File exported by Houdini 19.0.498 (www.sidefx.com)
# 24 points
# 98 vertices
# 27 primitives
# Bounds: [-0.00521099987, -0.00498099998, 0.00995015353] to [0.00511589926, 0.0332846567, 0.0199050009]
g 
v -0.00412090635 0.0321052894 0.0100643551
v -0.00415498856 0.0325234346 0.0162453819
v -0.00521099987 0.0309500005 0.0178570002
v 0.00415387144 0.0323271789 0.00995015353
v 0.00453869952 0.0322469547 0.0160748214
v -0.00314699998 0.0286139995 0.0122170001
v -0.00337825133 0.030416362 0.0167356282
v 0.00308299996 0.0286449995 0.0118000004
v 0.0032329231 0.0294824988 0.0173537415
v 0.00295433844 0.0332846567 0.0123059982
v -0.00230497564 0.0331722759 0.0120706102
v 0.00302027958 0.0329785869 0.0151272658
v -0.00303647248 0.0225736294 0.0174800176
v -0.00301027345 0.0224632639 0.0121043418
v 0.00268426281 0.0218818411 0.0182943884
v 0.00323314033 0.0223073959 0.0123498887
v -0.00367738446 -0.000233385217 0.0111455154
v -0.00394365052 -0.00127367245 0.0188849941
v 0.00338846864 -0.00124878471 0.0112656094
v 0.00375523698 -0.00145337393 0.0188444331
v 0.00511589926 -0.00475813122 0.0105631836
v -0.00499582384 -0.00488469563 0.010344414
v 0.00482399995 -0.00498099998 0.0198550001
v -0.00499999989 -0.00491200015 0.0199050009
vt 0.424221605 0.0517476127 0
vt 0.299418986 0.0142369997 0
vt 0.336494565 0.00146091427 0
vt 0.367971003 0.0936539993 0
vt 0.308930784 0.0414408594 0
vt 0.873833299 0.0169105195 0
vt 0.872628152 0.183580205 0
vt 0.789605021 0.160133004 0
vt 0.787940025 0.0340560004 0
vt 0.467611998 0.114523001 0
vt 0.44604072 0.0480874479 0
vt 0.545272768 0.0594882183 0
vt 0.558826208 0.115376934 0
vt 0.92140007 0.0504577905 0
vt 0.924399197 0.165534675 0
vt 0.998092234 0.00521268602 0
vt 0.975865304 0.191118598 0
vt 0.983639181 0.225415692 0
vt 0.608799696 0.016549401 0
vt 0.743785799 0.122507185 0
vt 0.609746337 0.154151514 0
vt 0.593466997 0.0698810443 0
vt 0.715837181 0.0049055703 0
vt 0.764309466 0.0821212903 0
vt 0.787660003 0.120659001 0
vt 0.566938579 0.100325428 0
vt 0.751238227 0.289000571 0
vt 0.638029575 0.307147861 0
vt 0.563002348 0.245156109 0
vt 0.452693164 0.226923272 0
vt 0.338765681 0.203683361 0
vt 0.245378762 0.16421327 0
vt 0.217032135 0.669875741 0
vt 0.0669884682 0.59890902 0
vt 0.372616887 0.72580272 0
vt 0.526937187 0.707369804 0
vt 0.766665936 0.768563151 0
vt 0.614021659 0.770874202 0
vt 0.385698229 0.804422796 0
vt 0.172962219 0.768239915 0
vt 0.564159989 0.782370985 0
vt 0.000140000004 0.654694974 0
vt 0.787167013 0.844640017 0
vt 0.592115998 0.844353974 0
vt 0.149682999 0.976258993 0
vt 0.357086986 0.999859989 0
vn -0.538471699 0.477548927 -0.596916676
vn -0.453443438 0.639166713 0.692658305
vn -0.628000021 -0.201199993 0.751699984
vn 0.606843829 0.477393448 -0.611399829
vn 0.446835518 0.647340477 0.529158294
vn -0.680299997 -0.444599986 -0.582700014
vn -0.625696599 -0.103492625 0.785192966
vn 0.598699987 -0.511600018 -0.616299987
vn 0.561421335 -0.0708122775 0.824717522
vn 0.291302234 0.992300391 -0.160834551
vn 0.0634618774 1.00799572 -0.100062482
vn -0.306522548 0.846765041 0.49338603
vn -0.633315921 0.526131332 0.542274714
vn -0.64672792 0.382765114 -0.711137354
vn 0.593650877 0.605849743 0.643663168
vn 0.642737389 0.427753299 -0.723994255
vn -0.619367659 0.307425588 -0.723552227
vn -0.681328356 0.414542377 0.657151103
vn 0.710185707 0.131189987 -0.694660246
vn 0.775347412 0.190145016 0.628612161
vn 0.704211235 0.104627952 -0.491352051
vn -0.731775403 -0.298524469 -0.644605875
vn 0.668200016 -0.490500003 0.559300005
vn -0.568199992 -0.522199988 0.635900021
g 
usemtl /mat/None
f 1/1/1 3/2/3 2/3/2
f 3/2/3 1/1/1 6/4/6 7/5/7
f 1/6/1 4/7/4 8/8/8 6/9/6
f 8/10/8 4/11/4 5/12/5 9/13/9
f 4/7/4 1/6/1 11/14/11 10/15/10
f 2/16/2 11/14/11 1/6/1
f 4/7/4 10/15/10 12/17/12 5/18/5
f 10/19/10 7/20/7 9/21/9
f 10/19/10 9/21/9 12/22/12
f 7/20/7 10/19/10 11/23/11 2/24/2
f 2/24/2 3/25/3 7/20/7
f 12/22/12 9/21/9 5/26/5
f 9/21/9 7/20/7 13/27/13 15/28/15
f 9/13/9 15/29/15 16/30/16 8/10/8
f 6/4/6 14/31/14 13/32/13 7/5/7
f 6/4/6 8/10/8 16/30/16 14/31/14
f 13/32/13 14/31/14 17/33/17 18/34/18
f 16/30/16 19/35/19 17/33/17 14/31/14
f 16/30/16 15/29/15 20/36/20 19/35/19
f 13/27/13 18/37/18 20/38/20 15/28/15
f 19/35/19 21/39/21 22/40/22 17/33/17
f 17/33/17 22/40/22 18/34/18
f 20/36/20 21/39/21 19/35/19
f 20/36/20 23/41/23 21/39/21
f 22/40/22 24/42/24 18/34/18
f 20/38/20 18/37/18 24/43/24 23/44/23
f 24/45/24 22/40/22 21/39/21 23/46/23
