# File exported by Houdini 19.0.498 (www.sidefx.com)
# 9 points
# 32 vertices
# 9 primitives
# Bounds: [-0.00459251646, -0.00462001795, 0.0105300155] to [0.00447239121, 0.0169069003, 0.0194869135]
g 
v -0.00276300008 0.016516 0.0176689997
v 0.00272600004 0.0167210009 0.0177720003
v 0.00297500007 0.0158779994 0.013882
v -0.00298756035 0.0169069003 0.0134436842
v -0.00444079703 -0.00452550687 0.0194869135
v 0.00447239121 -0.00454417802 0.0192974452
v 0.00440892857 -0.00457355054 0.0105300155
v -0.00459251646 -0.00462001795 0.0106054237
v -0.00259293313 0.0135777621 0.0118742716
vt 0.195936993 0.125924006 0
vt 0.0792120025 0.197859004 0
vt 0.0209250003 0.117187001 0
vt 0.146721035 0.0329138376 0
vt 0.56651032 0.57549125 0
vt 0.362892717 0.720322311 0
vt 0.132137194 0.779681146 0
vt 0.000125000006 0.25959 0
vt 0.833140016 0.588775992 0
vt 0.984279871 0.509477377 0
vt 0.997192144 0.608137608 0
vt 0.748499215 0.0455553643 0
vt 0.990042925 0.016984351 0
vt 0.262873977 0.0483503975 0
vt 0.349140078 0.0790693238 0
vt 0.707585692 0.369767129 0
vt 0.715446115 0.795839489 0
vt 0.513037503 0.932203174 0
vn -0.548799992 0.614199996 0.566999972
vn 0.552900016 0.632499993 0.542299986
vn 0.678200006 0.582199991 -0.448399991
vn -0.683104992 0.680087566 0.0800848678
vn -0.689476907 0.262737185 0.802133083
vn 0.735296309 0.216653749 0.73821187
vn 0.618371546 -0.090641506 -0.627710342
vn -0.641430855 -0.0156947318 -0.57757777
vn -0.550031066 0.236782879 -0.789164543
g 
usemtl /mat/None
f 1/1/1 2/2/2 3/3/3 4/4/4
f 1/1/1 5/5/5 6/6/6 2/2/2
f 2/2/2 6/6/6 7/7/7 3/8/3
f 3/9/3 9/10/9 4/11/4
f 9/10/9 7/12/7 8/13/8
f 9/10/9 3/9/3 7/12/7
f 4/14/4 5/5/5 1/1/1
f 4/14/4 9/15/9 8/16/8 5/5/5
f 8/17/8 7/18/7 6/6/6 5/5/5
