# Blender v3.0.0 OBJ File: 'retop_pillar.blend'
# www.blender.org
mtllib pillar_1_low.mtl
o pillar_1_low_RetopoFlow
v -0.003101 0.033478 0.003224
v 0.003245 0.033531 0.003176
v 0.003050 0.032859 -0.003135
v -0.003402 0.032715 -0.003269
v 0.005112 0.031275 0.005206
v -0.004490 0.031317 0.005155
v 0.005241 0.031228 -0.004957
v -0.004987 0.031490 -0.004991
v -0.003992 0.030349 -0.003784
v -0.004342 0.030462 0.004237
v 0.003965 0.030467 0.003819
v 0.004238 0.030430 -0.004273
v 0.003529 0.029244 0.003517
v 0.003580 0.029265 -0.003478
v -0.003535 0.029268 -0.003609
v -0.003679 0.029340 0.003584
v -0.003129 0.028613 0.002913
v 0.002873 0.028613 0.003160
v 0.002919 0.028613 -0.002892
v -0.003012 0.028621 -0.003200
v -0.002883 0.023028 -0.002896
v -0.002578 0.022998 0.003074
v 0.002773 0.023123 0.002985
v 0.002653 0.023184 -0.002612
v 0.003375 0.022425 -0.003523
v -0.003304 0.022407 -0.003542
v -0.003437 0.021814 -0.003542
v 0.003389 0.021777 -0.003488
v 0.002999 0.021112 -0.002488
v -0.002716 0.021089 -0.003071
v 0.003606 -0.000161 -0.003785
v -0.003632 -0.000072 -0.003752
v 0.004000 -0.000343 -0.004122
v -0.003845 -0.000343 -0.004127
v -0.004090 -0.001222 -0.004200
v 0.004156 -0.001180 -0.004200
v 0.004887 -0.002206 -0.004955
v -0.004108 -0.002227 -0.004972
v -0.003801 -0.004979 -0.004754
v 0.004976 -0.004694 -0.004655
v -0.004785 -0.001988 0.004248
v -0.004426 -0.005000 0.004323
v -0.004246 -0.001298 0.004049
v -0.004200 -0.000428 0.003749
v -0.003721 -0.000310 0.003565
v -0.002708 0.020855 0.002372
v 0.002747 0.020980 0.002822
v 0.002895 0.012842 0.003339
v -0.003087 0.021772 0.003438
v -0.003531 0.022407 0.003507
v 0.003195 0.021629 0.003300
v 0.003432 0.022377 0.003374
v 0.000097 -0.002416 0.003709
v 0.001697 -0.004583 0.003869
v -0.000631 -0.001553 0.003226
v -0.001678 -0.000481 0.004107
v -0.001649 -0.000343 0.003776
v -0.002299 0.012347 0.003321
v 0.001199 0.010516 0.003153
v -0.003244 0.008970 0.003080
v -0.000416 0.005213 -0.000673
v 0.000040 0.001299 0.000502
v -0.002250 0.001820 0.002809
v 0.003332 0.013242 -0.000383
v 0.002853 0.010254 -0.000870
v 0.004198 -0.001181 -0.000478
v 0.000283 -0.002020 0.001943
v 0.004167 -0.002563 0.000998
v 0.004940 -0.004846 0.004221
v 0.003778 -0.000102 -0.001348
v 0.003553 0.004669 -0.003313
vt 0.265072 0.944665
vt 0.181982 0.921056
vt 0.214139 0.830992
vt 0.309800 0.863155
vt 0.285757 0.999882
vt 0.125980 0.950086
vt 0.182765 0.779324
vt 0.352225 0.840453
vt 0.352444 0.808655
vt 0.481493 0.748163
vt 0.500535 0.753761
vt 0.695474 0.979976
vt 0.501925 0.805149
vt 0.524659 0.784384
vt 0.713107 0.931753
vt 0.941770 0.885156
vt 0.965616 0.911595
vt 0.205406 0.767411
vt 0.721129 0.890136
vt 0.915905 0.857106
vt 0.222131 0.749080
vt 0.348296 0.785862
vt 0.463381 0.734818
vt 0.557195 0.769897
vt 0.581463 0.758831
vt 0.721925 0.863217
vt 0.893845 0.833033
vt 0.238728 0.736195
vt 0.345715 0.770061
vt 0.444978 0.725012
vt 0.333532 0.655081
vt 0.433033 0.651785
vt 0.641553 0.662053
vt 0.762383 0.696100
vt 0.888487 0.723545
vt 0.247776 0.667434
vt 0.233473 0.647137
vt 0.330826 0.642641
vt 0.232751 0.635779
vt 0.331031 0.634090
vt 0.237145 0.619513
vt 0.327762 0.620633
vt 0.219178 0.367123
vt 0.186351 0.292184
vt 0.312059 0.262874
vt 0.181586 0.285406
vt 0.310352 0.256154
vt 0.172694 0.271131
vt 0.312119 0.241438
vt 0.161485 0.249442
vt 0.306044 0.222905
vt 0.133272 0.211048
vt 0.303042 0.165161
vt 0.471927 0.206532
vt 0.457065 0.262570
vt 0.449852 0.275862
vt 0.441148 0.288724
vt 0.436571 0.294917
vt 0.410627 0.426986
vt 0.815683 0.476301
vt 0.730266 0.431230
vt 0.735319 0.356364
vt 0.806302 0.424616
vt 0.412650 0.605371
vt 0.435314 0.622740
vt 0.437890 0.636744
vt 0.639273 0.620819
vt 0.655669 0.596212
vt 0.777823 0.644414
vt 0.773024 0.662017
vt 0.770807 0.677997
vt 0.621382 0.634814
vt 0.919367 0.681928
vt 0.918143 0.697997
vt 0.897256 0.660717
vt 0.741864 0.025279
vt 0.886918 0.035740
vt 0.844280 0.086687
vt 0.732038 0.092414
vt 0.742550 0.107976
vt 0.830898 0.112352
vt 0.792720 0.130062
vt 0.741117 0.131936
vt 0.752140 0.138365
vt 0.795364 0.136824
vt 0.854702 0.293879
vt 0.784211 0.192285
vt 0.864038 0.200810
vt 0.895241 0.421468
vt 0.885881 0.488725
vt 0.961585 0.301513
vt 0.965616 0.153395
vt 0.962846 0.185922
vt 0.868791 0.115508
vt 0.957061 0.108367
vt 0.963252 0.022941
vt 0.083473 0.328531
vt 0.000118 0.340676
vt 0.128414 0.324213
vt 0.155120 0.325001
vt 0.190412 0.503319
vt 0.188595 0.456267
vt 0.333522 0.000118
vt 0.500535 0.029809
vn -0.3313 0.9004 0.2820
vn 0.2948 0.9160 0.2721
vn 0.2788 0.9098 -0.3073
vn -0.3332 0.8980 -0.2874
vn -0.6243 -0.0892 0.7760
vn 0.6698 -0.0190 0.7423
vn 0.7542 -0.0579 -0.6540
vn -0.7262 0.0808 -0.6827
vn -0.5910 -0.6578 -0.4668
vn -0.5990 -0.6954 0.3970
vn 0.4523 -0.7870 0.4195
vn 0.3887 -0.7786 -0.4927
vn 0.5562 -0.6256 0.5470
vn 0.5573 -0.6302 -0.5406
vn -0.5330 -0.6197 -0.5760
vn -0.5384 -0.6173 0.5736
vn -0.6368 -0.5055 0.5821
vn 0.5384 -0.5403 0.6467
vn 0.5801 -0.5520 -0.5990
vn -0.5691 -0.5284 -0.6299
vn -0.5855 0.5918 -0.5540
vn -0.5135 0.4876 0.7061
vn 0.5829 0.4649 0.6663
vn 0.6275 0.5417 -0.5592
vn 0.6501 0.3256 -0.6865
vn -0.6048 0.3103 -0.7334
vn 0.6117 -0.4299 -0.6640
vn -0.6845 -0.4762 -0.5519
vn 0.7279 -0.4725 -0.4968
vn -0.5921 -0.5181 -0.6172
vn 0.8979 0.0721 -0.4341
vn 0.4043 0.7415 -0.5355
vn -0.4934 0.7240 -0.4821
vn 0.5540 0.5730 -0.6039
vn -0.5228 0.5438 -0.6565
vn 0.6715 0.4802 -0.5643
vn -0.7263 0.4122 -0.5500
vn 0.6793 0.3153 -0.6626
vn -0.6178 0.2375 -0.7496
vn 0.6501 -0.5146 -0.5591
vn -0.5099 -0.6417 -0.5728
vn -0.5359 -0.5857 0.6080
vn -0.7499 0.2291 0.6206
vn -0.5684 0.3030 0.7649
vn -0.7342 0.4406 0.5166
vn -0.3787 0.7988 0.4674
vn -0.6168 -0.1589 0.7709
vn 0.6793 -0.1256 0.7230
vn -0.2333 0.0307 0.9719
vn 0.4297 -0.3556 0.8300
vn -0.7127 -0.4398 0.5464
vn -0.5134 -0.4544 0.7280
vn -0.7867 0.2766 0.5519
vn 0.6298 -0.4604 0.6256
vn 0.6205 -0.4359 0.6519
vn 0.7261 0.2815 0.6273
vn 0.1259 0.6949 0.7079
vn 0.4922 0.4600 0.7390
vn 0.5929 0.4804 0.6463
vn 0.2996 0.4022 0.8651
vn 0.5606 0.5530 0.6164
vn 0.6857 -0.0681 0.7247
vn 0.6000 0.2029 0.7738
vn 0.6388 0.3469 0.6867
vn 0.9201 -0.2398 0.3095
vn 0.9884 -0.0909 0.1214
vn 0.7938 0.4645 0.3925
vn 0.8436 0.4108 0.3458
vn 0.5621 0.5923 0.5772
vn 0.7203 0.5139 0.4659
vn 0.6326 -0.3065 0.7112
usemtl None
s 1
f 1/1/1 2/2/2 3/3/3 4/4/4
f 2/2/2 1/1/1 6/5/5 5/6/6
f 2/2/2 5/6/6 7/7/7 3/3/3
f 7/7/7 8/8/8 4/4/4 3/3/3
f 4/4/4 8/8/8 6/5/5 1/1/1
f 8/8/8 9/9/9 10/10/10 6/11/5
f 5/12/6 6/13/5 10/14/10 11/15/11
f 5/12/6 11/15/11 12/16/12 7/17/7
f 7/7/7 12/18/12 9/9/9 8/8/8
f 12/16/12 11/15/11 13/19/13 14/20/14
f 12/18/12 14/21/14 15/22/15 9/9/9
f 10/10/10 9/9/9 15/22/15 16/23/16
f 16/24/16 13/19/13 11/15/11 10/14/10
f 13/19/13 16/24/16 17/25/17 18/26/18
f 18/26/18 19/27/19 14/20/14 13/19/13
f 14/21/14 19/28/19 20/29/20 15/22/15
f 20/29/20 17/30/17 16/23/16 15/22/15
f 17/30/17 20/29/20 21/31/21 22/32/22
f 17/25/17 22/33/22 23/34/23 18/26/18
f 19/27/19 18/26/18 23/34/23 24/35/24
f 19/28/19 24/36/24 21/31/21 20/29/20
f 24/36/24 25/37/25 26/38/26 21/31/21
f 26/38/26 25/37/25 28/39/27 27/40/28
f 27/40/28 28/39/27 29/41/29 30/42/30
f 71/43/31 31/44/32 32/45/33
f 32/45/33 31/44/32 33/46/34 34/47/35
f 33/46/34 36/48/36 35/49/37 34/47/35
f 35/49/37 36/48/36 37/50/38 38/51/39
f 37/50/38 40/52/40 39/53/41 38/51/39
f 38/51/39 39/53/41 42/54/42 41/55/43
f 38/51/39 41/55/43 43/56/44 35/49/37
f 34/47/35 35/49/37 43/56/44 44/57/45
f 34/47/35 44/57/45 45/58/46 32/45/33
f 32/45/33 45/58/46 60/59/47
f 48/60/48 58/61/49 60/62/47 59/63/50
f 30/42/30 46/64/51 49/65/52 27/40/28
f 26/38/26 27/40/28 49/65/52 50/66/53
f 26/38/26 50/66/53 22/32/22 21/31/21
f 49/67/52 46/68/51 47/69/54 51/70/55
f 49/67/52 51/70/55 52/71/56 50/72/53
f 22/33/22 50/72/53 52/71/56 23/34/23
f 52/71/56 51/70/55 28/73/27 25/74/25
f 47/69/54 29/75/29 28/73/27 51/70/55
f 52/71/56 25/74/25 24/35/24 23/34/23
f 42/76/42 54/77/57 53/78/58 41/79/43
f 43/80/44 41/79/43 53/78/58 55/81/59
f 43/80/44 55/81/59 56/82/60 44/83/45
f 45/84/46 44/83/45 56/82/60 57/85/61
f 46/68/51 58/61/49 48/60/48 47/69/54
f 60/62/47 61/86/62 59/63/50
f 61/86/62 60/62/47 63/87/63 62/88/64
f 59/63/50 65/89/65 64/90/66 48/60/48
f 65/89/65 59/63/50 61/86/62 71/91/31
f 62/88/64 66/92/67 70/93/68
f 63/87/63 57/85/61 67/94/69 62/88/64
f 62/88/64 67/94/69 68/95/70 66/92/67
f 67/94/69 54/77/57 69/96/71 68/95/70
f 53/78/58 54/77/57 67/94/69 55/81/59
f 56/82/60 55/81/59 67/94/69 57/85/61
f 68/97/70 69/98/71 40/52/40 37/50/38
f 36/48/36 66/99/67 68/97/70 37/50/38
f 30/42/30 32/45/33 60/59/47 46/64/51
f 70/100/68 66/99/67 36/48/36 33/46/34
f 61/86/62 62/88/64 70/93/68 71/91/31
f 70/100/68 33/46/34 31/44/32
f 48/60/48 64/90/66 29/75/29 47/69/54
f 29/41/29 71/43/31 32/45/33 30/42/30
f 64/101/66 65/102/65 71/43/31 29/41/29
f 71/43/31 70/100/68 31/44/32
f 58/61/49 46/68/51 60/62/47
f 60/62/47 45/84/46 57/85/61 63/87/63
f 39/53/41 40/103/40 69/104/71 42/54/42
f 42/76/42 69/96/71 54/77/57
