# File exported by Houdini 19.0.498 (www.sidefx.com)
# 58 points
# 224 vertices
# 56 primitives
# Bounds: [-0.00521099987, -0.00498099998, 0.0100469999] to [0.00494100014, 0.0335900001, 0.0199050009]
g 
v -0.00450999988 0.0328149982 0.0105269998
v -0.00467099994 0.0319180004 0.0105299996
v -0.00457599992 0.0318549983 0.0165769998
v -0.00443700003 0.0327470005 0.015966
v -0.00521099987 0.0309500005 0.0178570002
v -0.00376800005 0.0309500005 0.0102260001
v 0.00414199987 0.032726001 0.0105140004
v 0.00423899991 0.0318920016 0.010059
v 0.00435099984 0.0308139995 0.0101199998
v 0.00454099989 0.0325759985 0.0165190008
v 0.00462399982 0.0319180004 0.0167180002
v 0.00487399986 0.0307979994 0.0165059995
v -0.00314699998 0.0286139995 0.0122170001
v -0.00305399997 0.0286519993 0.0168629996
v 0.00308299996 0.0286449995 0.0118000004
v 0.00320599996 0.0288490001 0.0175059997
v 0.00317899999 0.032825999 0.011705
v -0.0032279999 0.032825999 0.01162
v -0.00324500003 0.0328780003 0.0157399997
v 0.00334100006 0.032825999 0.0154360002
v -0.00215699989 0.0333900005 0.0119240005
v -0.00315200002 0.0333230011 0.015199
v 0.00312500005 0.0335900001 0.0118420003
v 0.00308499997 0.0335489996 0.0149290003
v 0.00239600008 0.0327919982 0.0137219997
v -0.00186099997 0.0334700011 0.013487
v -0.00233300007 0.0314840004 0.015505
v 0.00268399995 0.0309309997 0.0157099999
v -0.00340999989 0.0309050009 0.0168709997
v 0.00318400003 0.0301959999 0.0168350004
v -0.00303800008 0.0229979996 0.0179120004
v -0.00297400006 0.0231519993 0.0122140003
v 0.00289999996 0.0230630003 0.0178730004
v 0.00294200005 0.0229979996 0.0121950004
v -0.00339700002 0.0224319994 0.0184799992
v 0.00342299999 0.0224179998 0.0182980001
v -0.00296499999 0.0211009998 0.0173770003
v 0.00265199994 0.0210900009 0.0183000006
v 0.00335999997 0.0224060006 0.0121179996
v 0.00329999998 0.0211399999 0.0123709999
v -0.00332299992 0.0226039998 0.0118300002
v -0.00301199988 0.0212060008 0.0120580001
v -0.00367900007 -0.000342999992 0.011167
v -0.00372599997 -0.000174999994 0.0186689999
v 0.00336099998 -0.000475000008 0.0113190003
v 0.0036820001 -0.000308999995 0.0187240001
v -0.00422099978 -0.00126599998 0.0108040003
v -0.00418699998 -0.00113700004 0.0192000009
v 0.00344699994 -0.00138699997 0.0192610007
v 0.003577 -0.00159799994 0.0111429999
v 0.00490200007 -0.00292799994 0.0109299999
v -0.00473000016 -0.00276300008 0.0109660001
v -0.00499999989 -0.00237699994 0.0193220004
v 0.00387299992 -0.00291500008 0.0196860004
v 0.00482399995 -0.00498099998 0.0198550001
v 0.00494100014 -0.00471800007 0.0105619999
v -0.00497299992 -0.00490000006 0.0100469999
v -0.00499999989 -0.00491200015 0.0199050009
vt 0.423184007 0.0344749987 0
vt 0.417257011 0.0480699986 0
vt 0.326577008 0.00968599971 0
vt 0.341531992 0.000140000004 0
vt 0.413017005 0.0697669983 0
vt 0.299418986 0.0142369997 0
vt 0.889006972 0.00930199958 0
vt 0.885200024 0.183988005 0
vt 0.865993977 0.185719997 0
vt 0.870984972 0.00561500015 0
vt 0.850317001 0.0236370005 0
vt 0.844143987 0.187499002 0
vt 0.447284997 0.0522370003 0
vt 0.455960989 0.0392929986 0
vt 0.553385973 0.0517360009 0
vt 0.555599988 0.0628150031 0
vt 0.550507009 0.0811560005 0
vt 0.446561992 0.0699359998 0
vt 0.367971003 0.0936539993 0
vt 0.296802014 0.0679790005 0
vt 0.789605021 0.160133004 0
vt 0.787940025 0.0340560004 0
vt 0.467611998 0.114523001 0
vt 0.560203016 0.125021994 0
vt 0.910969019 0.0330689996 0
vt 0.910014987 0.171372995 0
vt 0.992015004 0.000140000004 0
vt 0.990454018 0.0221059993 0
vt 0.979507029 0.198231995 0
vt 0.992015004 0.226880997 0
vt 0.981833994 0.0318519995 0
vt 0.922089994 0.0550779998 0
vt 0.926818013 0.161166996 0
vt 0.976440012 0.184292004 0
vt 0.608061016 0.000140000004 0
vt 0.713003993 0.001345 0
vt 0.712754011 0.0318449996 0
vt 0.617272019 0.0454090014 0
vt 0.721796989 0.0884279981 0
vt 0.616846979 0.106363997 0
vt 0.587122023 0.0593460016 0
vt 0.744790971 0.0585150011 0
vt 0.747767985 0.0709969997 0
vt 0.747898996 0.115258999 0
vt 0.607724011 0.136498004 0
vt 0.587728024 0.0775090009 0
vt 0.769029021 0.0760350004 0
vt 0.770770013 0.0954760015 0
vt 0.787660003 0.120659001 0
vt 0.738363028 0.158986002 0
vt 0.567973971 0.110169001 0
vt 0.564440012 0.0976219997 0
vt 0.568683982 0.132498994 0
vt 0.613689005 0.167822003 0
vt 0.748220026 0.272729009 0
vt 0.630677998 0.281832993 0
vt 0.556151986 0.217801005 0
vt 0.449184 0.213943005 0
vt 0.341645002 0.191686004 0
vt 0.245456994 0.147075996 0
vt 0.756752014 0.287939012 0
vt 0.621667027 0.298005015 0
vt 0.751860023 0.322975993 0
vt 0.638837993 0.323211998 0
vt 0.564159989 0.236110002 0
vt 0.451377988 0.227825001 0
vt 0.562758029 0.264055997 0
vt 0.450287998 0.250842988 0
vt 0.338441998 0.202425003 0
vt 0.332318991 0.228742003 0
vt 0.226805001 0.155644 0
vt 0.236623004 0.195102006 0
vt 0.216132 0.671976984 0
vt 0.0801789984 0.579503 0
vt 0.374639004 0.709344983 0
vt 0.525678992 0.683854997 0
vt 0.762676001 0.746288002 0
vt 0.615589023 0.747996986 0
vt 0.205434993 0.691865981 0
vt 0.0564370006 0.593742013 0
vt 0.771659017 0.768172026 0
vt 0.620061994 0.771943986 0
vt 0.538695991 0.702220976 0
vt 0.374653995 0.734000027 0
vt 0.387630999 0.76789701 0
vt 0.186490998 0.719582975 0
vt 0.0378849991 0.617698014 0
vt 0.787660003 0.793007016 0
vt 0.611329019 0.803349018 0
vt 0.553812981 0.734194994 0
vt 0.564159989 0.782370985 0
vt 0.382862002 0.80400598 0
vt 0.174931005 0.768326998 0
vt 0.000140000004 0.654694974 0
vt 0.787167013 0.844640017 0
vt 0.592115998 0.844353974 0
vt 0.149682999 0.976258993 0
vt 0.357086986 0.999859989 0
vn -0.498299986 0.694999993 -0.518299997
vn -0.819500029 0.0901999995 -0.565999985
vn -0.623000026 0.308200002 0.718900025
vn -0.521000028 0.729200006 0.443500012
vn -0.628000021 -0.201199993 0.751699984
vn -0.483500004 -0.309700012 -0.818700016
vn 0.581799984 0.644400001 -0.496199995
vn 0.591799974 0.222800002 -0.774699986
vn 0.664499998 -0.256599993 -0.701799989
vn 0.396899998 0.714299977 0.576399982
vn 0.480699986 0.441799998 0.757399976
vn 0.878400028 -0.109399997 0.46509999
vn -0.680299997 -0.444599986 -0.582700014
vn -0.657199979 -0.0666999966 0.750800014
vn 0.598699987 -0.511600018 -0.616299987
vn 0.576099992 -0.0485000014 0.815900028
vn 0.300199986 0.916800022 -0.263099998
vn -0.165999994 0.978399992 -0.123300001
vn 0.310200006 0.776000023 0.549099982
vn -0.250200003 0.801199973 0.543500006
vn -0.169799998 0.855599999 -0.488900006
vn -0.0662999973 0.954999983 0.289200008
vn 0.45629999 0.786599994 -0.415899992
vn 0.0741000026 0.900300026 0.428900003
vn -0.393099993 0.816900015 0.421999991
vn 0.235599995 0.858900011 0.454699993
vn 0.328799993 0.724699974 0.605499983
vn -0.340600014 0.691900015 0.636500001
vn 0.311100006 0.4287 0.848200023
vn -0.0851999968 0.381999999 0.92019999
vn -0.633300006 0.504999995 0.586300015
vn -0.648500025 0.3477 -0.677100003
vn 0.584999979 0.521099985 0.621399999
vn 0.595700026 0.345800012 -0.724900007
vn -0.615999997 0.162400007 0.770799994
vn 0.781700015 0.143299997 0.606999993
vn -0.76789999 -0.211199999 0.604799986
vn 0.589399993 -0.239199996 0.771600008
vn 0.729300022 0.157299995 -0.665799975
vn 0.74059999 -0.151700005 -0.654600024
vn -0.676100016 0.122900002 -0.726499975
vn -0.675000012 -0.1382 -0.724799991
vn -0.618900001 0.309599996 -0.721800029
vn -0.668600023 0.383399993 0.637099981
vn 0.71450001 0.112499997 -0.690500021
vn 0.772099972 0.161699995 0.614600003
vn -0.575600028 0.376399994 -0.725899994
vn -0.549199998 0.485799998 0.680000007
vn 0.549199998 0.435099989 0.713400006
vn 0.608799994 0.263999999 -0.748000026
vn 0.736000001 0.419499993 -0.531300008
vn -0.729499996 0.289299995 -0.619700015
vn -0.755500019 0.286599994 0.588999987
vn 0.569700003 0.359600008 0.739000022
vn 0.668200016 -0.490500003 0.559300005
vn 0.65079999 -0.362300009 -0.667200029
vn -0.5449 -0.492300004 -0.678799987
vn -0.568199992 -0.522199988 0.635900021
g 
usemtl /mat/None
f 1/1/1 2/2/2 3/3/3 4/4/4
f 2/2/2 6/5/6 5/6/5 3/3/3
f 1/7/1 7/8/7 8/9/8 2/10/2
f 6/11/6 2/10/2 8/9/8 9/12/9
f 8/13/8 7/14/7 10/15/10 11/16/11
f 8/13/8 11/16/11 12/17/12 9/18/9
f 5/6/5 6/5/6 13/19/13 14/20/14
f 6/11/6 9/12/9 15/21/15 13/22/13
f 15/23/15 9/18/9 12/17/12 16/24/16
f 7/8/7 1/7/1 18/25/18 17/26/17
f 4/27/4 19/28/19 18/25/18 1/7/1
f 7/8/7 17/26/17 20/29/20 10/30/10
f 18/25/18 19/28/19 22/31/22 21/32/21
f 18/25/18 21/32/21 23/33/23 17/26/17
f 20/29/20 17/26/17 23/33/23 24/34/24
f 23/35/23 21/36/21 26/37/26 25/38/25
f 26/37/26 27/39/27 28/40/28 25/38/25
f 25/38/25 28/40/28 24/41/24 23/35/23
f 27/39/27 26/37/26 21/36/21 22/42/22
f 19/43/19 29/44/29 27/39/27 22/42/22
f 24/41/24 28/40/28 30/45/30 20/46/20
f 19/43/19 4/47/4 3/48/3 29/44/29
f 3/48/3 5/49/5 14/50/14 29/44/29
f 20/46/20 30/45/30 11/51/11 10/52/10
f 12/53/12 11/51/11 30/45/30 16/54/16
f 27/39/27 29/44/29 30/45/30 28/40/28
f 29/44/29 14/50/14 16/54/16 30/45/30
f 16/54/16 14/50/14 31/55/31 33/56/33
f 16/24/16 33/57/33 34/58/34 15/23/15
f 13/19/13 32/59/32 31/60/31 14/20/14
f 13/19/13 15/23/15 34/58/34 32/59/32
f 31/55/31 35/61/35 36/62/36 33/56/33
f 36/62/36 35/61/35 37/63/37 38/64/38
f 33/57/33 36/65/36 39/66/39 34/58/34
f 38/67/38 40/68/40 39/66/39 36/65/36
f 34/58/34 39/66/39 41/69/41 32/59/32
f 41/69/41 39/66/39 40/68/40 42/70/42
f 31/60/31 32/59/32 41/69/41 35/71/35
f 41/69/41 42/70/42 37/72/37 35/71/35
f 37/72/37 42/70/42 43/73/43 44/74/44
f 40/68/40 45/75/45 43/73/43 42/70/42
f 40/68/40 38/67/38 46/76/46 45/75/45
f 37/63/37 44/77/44 46/78/46 38/64/38
f 43/73/43 47/79/47 48/80/48 44/74/44
f 44/77/44 48/81/48 49/82/49 46/78/46
f 46/76/46 49/83/49 50/84/50 45/75/45
f 43/73/43 45/75/45 50/84/50 47/79/47
f 50/84/50 51/85/51 52/86/52 47/79/47
f 47/79/47 52/86/52 53/87/53 48/80/48
f 53/88/53 54/89/54 49/82/49 48/81/48
f 49/83/49 54/90/54 51/85/51 50/84/50
f 54/90/54 55/91/55 56/92/56 51/85/51
f 52/86/52 51/85/51 56/92/56 57/93/57
f 52/86/52 57/93/57 58/94/58 53/87/53
f 54/89/54 53/88/53 58/95/58 55/96/55
f 58/97/58 57/93/57 56/92/56 55/98/55
