# File exported by Houdini 19.0.498 (www.sidefx.com)
# 12 points
# 46 vertices
# 13 primitives
# Bounds: [-0.00440141698, -0.00446163304, 0.0107649788] to [0.00418728869, 0.0328808799, 0.0193017684]
g 
v -0.00377488881 0.0325173885 0.0111828027
v -0.00398744829 0.0317801945 0.016420003
v 0.00353349652 0.0328808799 0.0115049854
v 0.00363840163 0.0309893582 0.0168663356
v -0.00295586931 0.028224213 0.0122245038
v 0.00310942065 0.0282321852 0.0123034175
v -0.00303647248 0.0225736294 0.0174800176
v 0.00268426281 0.0218818411 0.0182943884
v -0.00440141698 -0.00446163304 0.0107649788
v -0.0043255277 -0.0043474799 0.0193017684
v 0.00400702748 -0.00412534922 0.011028735
v 0.00418728869 -0.00444686599 0.0192404594
vt 0.323828399 0.0198047664 0
vt 0.409339219 0.0422747582 0
vt 0.369621336 0.0944431946 0
vt 0.888695657 0.0238951072 0
vt 0.89122504 0.173091292 0
vt 0.776866436 0.160100803 0
vt 0.781604052 0.0378612317 0
vt 0.47047025 0.11044319 0
vt 0.471247137 0.045019377 0
vt 0.554409027 0.086123012 0
vt 0.600538671 0.00877945404 0
vt 0.756788433 0.096460782 0
vt 0.597887576 0.12513186 0
vt 0.745003104 -0.0123060066 0
vt 0.751238227 0.289000571 0
vt 0.638029575 0.307147861 0
vt 0.563002348 0.245156109 0
vt 0.245378762 0.16421327 0
vt 0.185261756 0.758811295 0
vt 0.0346221961 0.652335525 0
vt 0.369645298 0.793043792 0
vt 0.533411801 0.766978264 0
vt 0.773489892 0.82975781 0
vt 0.604995966 0.830354035 0
vt 0.165517047 0.96506083 0
vt 0.345153183 0.98497498 0
vn -0.441925168 0.726366341 -0.37883389
vn -0.508411169 0.386260808 0.72411418
vn 0.422825456 0.809276879 -0.319694668
vn 0.232776672 0.482459992 0.830235124
vn -0.656430125 -0.418337345 -0.586276054
vn 0.603516281 -0.463935643 -0.555650771
vn -0.633315921 0.526131332 0.542274714
vn 0.593650877 0.605849743 0.643663168
vn -0.689159214 0.39530921 -0.738606393
vn -0.694192171 0.498865247 0.694604814
vn 0.741482258 0.193352133 -0.710741818
vn 0.801188588 0.261979878 0.674317658
g 
usemtl /mat/None
f 2/1/2 1/2/1 5/3/5
f 1/4/1 3/5/3 6/6/6 5/7/5
f 6/8/6 3/9/3 4/10/4
f 3/11/3 2/12/2 4/13/4
f 2/12/2 3/11/3 1/14/1
f 4/13/4 2/12/2 7/15/7 8/16/8
f 4/10/4 8/17/8 6/8/6
f 5/3/5 7/18/7 2/1/2
f 7/18/7 5/3/5 9/19/9 10/20/10
f 6/8/6 11/21/11 9/19/9 5/3/5
f 6/8/6 8/17/8 12/22/12 11/21/11
f 7/15/7 10/23/10 12/24/12 8/16/8
f 10/25/10 9/19/9 11/21/11 12/26/12
