# File exported by Houdini 19.0.498 (www.sidefx.com)
# 20 points
# 76 vertices
# 20 primitives
# Bounds: [-0.00499799987, -0.00499199983, 0.0100069996] to [0.00486799981, 0.0179880001, 0.0199999996]
g 
v -0.00276300008 0.016516 0.0176689997
v 0.00272600004 0.0167210009 0.0177720003
v 0.00297500007 0.0158779994 0.013882
v -0.00294600008 0.0169929992 0.0140220001
v -0.00350399991 -0.000115000003 0.0188909993
v 0.00365999993 -0.000236000007 0.0187410004
v -0.00480900006 -0.0022799999 0.0194109995
v 0.0045380001 -0.002477 0.0191169996
v 0.00483200001 -0.00484299986 0.0198480003
v -0.00499799987 -0.00494799996 0.0199999996
v 0.00486099999 -0.00243799994 0.0102310004
v 0.00486799981 -0.00483400002 0.0104660001
v 0.00347799994 -0.000276000006 0.0113939997
v -0.00477099977 -0.00269500003 0.0109780002
v -0.00499599986 -0.00499199983 0.0100069996
v -0.00367900007 -0.000239000001 0.011279
v -0.00295499992 0.0179880001 0.0123300003
v -0.00306100002 0.0162250008 0.0133349998
v -0.00271299994 0.0133990003 0.0118349995
v 0.00205300003 0.0101680001 0.0118509997
vt 0.195936993 0.125924006 0
vt 0.0792120025 0.197859004 0
vt 0.0209250003 0.117187001 0
vt 0.152776003 0.0447809994 0
vt 0.477508008 0.481438011 0
vt 0.308573008 0.608236015 0
vt 0.535781026 0.521713972 0
vt 0.329104006 0.669992983 0
vt 0.584237993 0.577247977 0
vt 0.364163011 0.727752984 0
vt 0.125080004 0.798058987 0
vt 0.100598 0.738247991 0
vt 0.112305999 0.663634002 0
vt 0.000125000006 0.25959 0
vt 0.733927011 0.0328299999 0
vt 0.999875009 0.000125000006 0
vt 0.999850988 0.068076998 0
vt 0.739333987 0.0979110003 0
vt 0.784888029 0.159314007 0
vt 0.97795397 0.138100997 0
vt 0.132629007 0.000125000006 0
vt 0.999875009 0.646516025 0
vt 0.833140016 0.588775992 0
vt 0.998350978 0.591229975 0
vt 0.857002974 0.427951992 0
vt 0.989506006 0.504103005 0
vt 0.252108008 0.0569470003 0
vt 0.265175998 0.0113669997 0
vt 0.277072996 0.0589910001 0
vt 0.352530003 0.0823979974 0
vt 0.609517992 0.312494993 0
vt 0.668407023 0.344882995 0
vt 0.733677983 0.357809991 0
vt 0.733677983 0.803287983 0
vt 0.503699005 0.940477014 0
vn -0.548799992 0.614199996 0.566999972
vn 0.552900016 0.632499993 0.542299986
vn 0.678200006 0.582199991 -0.448399991
vn -0.687399983 0.693899989 0.214399993
vn -0.618399978 0.284799993 0.7324
vn 0.646799982 0.276600003 0.710699975
vn -0.702799976 0.340999991 0.624300003
vn 0.708400011 0.317699999 0.630200028
vn 0.585099995 -0.499599993 0.638700008
vn -0.587599993 -0.481599987 0.650200009
vn 0.658900023 0.319999993 -0.680700004
vn 0.64319998 -0.486900002 -0.590900004
vn 0.641300023 0.33070001 -0.692300022
vn -0.734700024 0.31189999 -0.602299988
vn -0.530399978 -0.544799984 -0.649399996
vn -0.631500006 0.309899986 -0.710799992
vn -0.380600005 0.676400006 -0.630500019
vn -0.83160001 -0.00200000009 -0.555400014
vn -0.567900002 0.240799993 -0.787100017
vn 0.384000003 0.151999995 -0.910700023
g 
usemtl /mat/None
f 1/1/1 2/2/2 3/3/3 4/4/4
f 1/1/1 5/5/5 6/6/6 2/2/2
f 6/6/6 5/5/5 7/7/7 8/8/8
f 7/7/7 10/9/10 9/10/9 8/8/8
f 8/8/8 9/10/9 12/11/12 11/12/11
f 8/8/8 11/12/11 13/13/13 6/6/6
f 2/2/2 6/6/6 13/13/13 3/14/3
f 12/15/12 15/16/15 14/17/14 11/18/11
f 13/19/13 11/18/11 14/17/14 16/20/16
f 3/3/3 17/21/17 4/4/4
f 17/22/17 3/23/3 18/24/18
f 3/23/3 20/25/20 19/26/19 18/24/18
f 19/26/19 20/25/20 13/19/13 16/20/16
f 20/25/20 3/23/3 13/19/13
f 4/27/4 17/28/17 18/29/18
f 4/27/4 18/29/18 5/5/5 1/1/1
f 18/29/18 19/30/19 16/31/16 5/5/5
f 14/32/14 7/7/7 5/5/5 16/31/16
f 14/32/14 15/33/15 10/9/10 7/7/7
f 15/34/15 12/35/12 9/10/9 10/9/10
