# This file uses meters as units for non-parametric coordinates.

mtllib Ramp_Placeholder.mtl
g default
v -159.115010 9.150792 308.662370
v -25.481885 9.150792 308.662370
v -159.115010 142.783918 308.662370
v -25.481885 142.783918 308.662370
v -159.115010 9.150792 175.029244
v -25.481885 9.150792 175.029244
vt 0.375000 0.000000
vt 0.625000 0.000000
vt 0.375000 0.250000
vt 0.625000 0.250000
vt 0.375000 0.750000
vt 0.625000 0.750000
vt 0.375000 1.000000
vt 0.625000 1.000000
vt 0.875000 0.000000
vt 0.125000 0.000000
vn 0.000000 0.000000 1.000000
vn 0.000000 0.000000 1.000000
vn 0.000000 0.000000 1.000000
vn 0.000000 0.000000 1.000000
vn 0.000000 0.707107 -0.707107
vn 0.000000 0.707107 -0.707107
vn 0.000000 0.707107 -0.707107
vn 0.000000 0.707107 -0.707107
vn 0.000000 -1.000000 0.000000
vn 0.000000 -1.000000 0.000000
vn 0.000000 -1.000000 0.000000
vn 0.000000 -1.000000 0.000000
vn 1.000000 0.000000 0.000000
vn 1.000000 0.000000 0.000000
vn 1.000000 0.000000 0.000000
vn -1.000000 0.000000 0.000000
vn -1.000000 0.000000 0.000000
vn -1.000000 0.000000 0.000000
s off
g pCube1
usemtl initialShadingGroup
f 1/1/1 2/2/2 4/4/3 3/3/4
f 4/4/5 6/6/6 5/5/7 3/3/8
f 5/5/9 6/6/10 2/8/11 1/7/12
f 2/2/13 6/9/14 4/4/15
f 5/10/16 1/1/17 3/3/18
