# This file uses meters as units for non-parametric coordinates.

mtllib Clovers.mtl
g default
v 8.911434 0.968092 0.841583
v 9.133034 1.098138 -0.657593
v 7.380939 1.098139 0.615356
v 7.602539 0.969520 -0.851395
v 8.133804 1.098137 0.726639
v 8.355404 1.098137 -0.772537
v 9.023609 1.098139 0.082703
v 8.245979 1.348593 -0.032242
v 7.493114 1.098139 -0.143524
v 5.863319 1.026258 0.558243
v 6.589714 1.098137 0.141121
v 5.437485 1.098137 -0.183327
v 6.149811 1.027046 -0.589348
v 5.646957 1.098136 0.181458
v 6.373352 1.098136 -0.235664
v 6.231018 1.098137 0.347092
v 6.014656 1.236569 -0.029694
v 5.805183 1.098137 -0.394478
v 6.053223 0.968092 -0.929268
v 7.541763 1.098138 -0.644863
v 6.343567 1.098139 -2.448902
v 7.799728 0.969520 -2.165859
v 6.200745 1.098137 -1.701382
v 7.689285 1.098137 -1.416977
v 6.806732 1.098139 -0.785301
v 6.954254 1.348593 -1.557415
v 7.097076 1.098139 -2.304935
v 8.006212 -0.055190 -0.046576
v 7.963607 -0.046650 -0.038474
v 7.955993 -0.054558 0.004342
v 7.993892 -0.067986 0.022702
v 8.024929 -0.068377 -0.008767
v 8.266224 1.011232 0.196651
v 8.223619 1.019772 0.204753
v 8.216005 1.011863 0.247569
v 8.253904 0.998435 0.265929
v 8.284942 0.998045 0.234460
v 7.988926 -0.058552 -0.013354
v 8.248939 1.007869 0.229873
v 7.020376 0.052122 -1.620617
v 6.976535 0.050881 -1.615127
v 6.968026 0.055673 -1.572018
v 7.006608 0.059876 -1.550865
v 7.038963 0.057681 -1.580901
v 6.972085 1.167407 -1.754137
v 6.928244 1.166166 -1.748647
v 6.919734 1.170958 -1.705538
v 6.958317 1.175161 -1.684385
v 6.990672 1.172967 -1.714420
v 7.002101 0.055247 -1.587906
v 6.953810 1.170532 -1.721425
v 5.978980 -0.061729 -0.035760
v 5.936942 -0.061729 -0.022101
v 5.936942 -0.061729 0.022101
v 5.978980 -0.061729 0.035760
v 6.004961 -0.061729 0.000000
v 5.978980 1.062557 -0.035760
v 5.936942 1.062557 -0.022101
v 5.936942 1.062557 0.022101
v 5.978980 1.062557 0.035760
v 6.004961 1.062557 0.000000
v 5.967361 -0.061729 0.000000
v 5.967361 1.062557 0.000000
vt 0.461427 0.280725
vt 0.728046 0.278277
vt 0.730441 0.542827
vt 0.467773 0.541254
vt 0.459725 0.008050
vt 0.725815 0.005832
vt 0.981885 0.007000
vt 0.988763 0.276206
vt 0.979565 0.539348
vt 0.249880 0.780691
vt 0.462136 0.778745
vt 0.464044 0.989353
vt 0.254932 0.988099
vt 0.248523 0.563614
vt 0.460359 0.561850
vt 0.664217 0.562777
vt 0.669694 0.777093
vt 0.662372 0.986580
vt 0.461427 0.280724
vt 0.728049 0.278278
vt 0.730444 0.542826
vt 0.467772 0.541251
vt 0.459726 0.008050
vt 0.725819 0.005832
vt 0.981885 0.007001
vt 0.988762 0.276207
vt 0.979569 0.539347
vt 0.032698 0.027613
vt 0.070530 0.027654
vt 0.069490 0.989919
vt 0.031659 0.989879
vt 0.108361 0.027694
vt 0.107321 0.989960
vt 0.146192 0.027735
vt 0.145153 0.990001
vt 0.184024 0.027776
vt 0.182984 0.990042
vt 0.221855 0.027817
vt 0.220816 0.990083
vt 0.235392 0.036816
vt 0.290845 0.013381
vt 0.279071 0.061220
vt 0.240545 0.096797
vt 0.299182 0.110431
vt 0.330269 0.058878
vt 0.298808 0.218511
vt 0.236831 0.203962
vt 0.277832 0.168584
vt 0.231516 0.140522
vt 0.290208 0.115863
vt 0.331798 0.164062
vt 0.032699 0.027613
vt 0.070530 0.027654
vt 0.069490 0.989919
vt 0.031658 0.989878
vt 0.108361 0.027694
vt 0.107321 0.989960
vt 0.146193 0.027735
vt 0.145153 0.990001
vt 0.184024 0.027776
vt 0.182984 0.990042
vt 0.221856 0.027817
vt 0.220815 0.990083
vt 0.235392 0.036816
vt 0.290845 0.013381
vt 0.279071 0.061220
vt 0.240545 0.096797
vt 0.299182 0.110431
vt 0.330269 0.058878
vt 0.298809 0.218511
vt 0.236832 0.203963
vt 0.277832 0.168584
vt 0.231515 0.140522
vt 0.290208 0.115863
vt 0.331798 0.164062
vt 0.032697 0.027613
vt 0.070528 0.027654
vt 0.069492 0.989920
vt 0.031660 0.989879
vt 0.108360 0.027694
vt 0.107323 0.989961
vt 0.146191 0.027735
vt 0.145155 0.990001
vt 0.184022 0.027776
vt 0.182986 0.990042
vt 0.221854 0.027817
vt 0.220817 0.990083
vt 0.235392 0.036816
vt 0.290845 0.013381
vt 0.279071 0.061220
vt 0.240545 0.096797
vt 0.299182 0.110431
vt 0.330269 0.058878
vt 0.298809 0.218511
vt 0.236831 0.203963
vt 0.277832 0.168584
vt 0.231515 0.140523
vt 0.290208 0.115863
vt 0.331797 0.164062
vn 0.014186 0.978284 0.206785
vn 0.000807 0.999999 0.001258
vn -0.196032 0.977752 -0.074647
vn -0.181826 0.974174 0.133878
vn 0.191959 0.944877 0.265255
vn 0.188901 0.979229 0.073661
vn 0.177389 0.974332 -0.138598
vn -0.011189 0.977321 -0.211467
vn -0.201649 0.939639 -0.276435
vn -0.153547 0.978284 0.139225
vn -0.000488 0.999999 0.001411
vn -0.062824 0.977752 -0.200133
vn -0.217730 0.974174 -0.059815
vn -0.089332 0.944878 0.315000
vn 0.059182 0.979230 0.193925
vn 0.218684 0.974333 0.053411
vn 0.159083 0.977321 -0.139770
vn 0.092113 0.939639 -0.329537
vn -0.207195 0.978284 0.005485
vn -0.001291 0.999999 0.000754
vn 0.082819 0.977753 -0.192720
vn -0.126117 0.974175 -0.187292
vn -0.273083 0.944878 0.180643
vn -0.081534 0.979229 0.185639
vn 0.131023 0.974332 0.183057
vn 0.211753 0.977321 -0.002293
vn 0.284666 0.939639 -0.189851
vn -0.132057 0.250919 -0.958958
vn -0.132057 0.250919 -0.958958
vn -0.132057 0.250919 -0.958958
vn -0.132057 0.250919 -0.958958
vn -0.957518 0.261288 -0.122014
vn -0.957518 0.261288 -0.122014
vn -0.957518 0.261288 -0.122014
vn -0.957518 0.261288 -0.122014
vn -0.459721 -0.089433 0.883549
vn -0.459721 -0.089433 0.883549
vn -0.459721 -0.089433 0.883549
vn -0.459721 -0.089433 0.883549
vn 0.673392 -0.316560 0.668081
vn 0.673392 -0.316560 0.668081
vn 0.673392 -0.316560 0.668081
vn 0.673392 -0.316560 0.668081
vn 0.875900 -0.106213 -0.470657
vn 0.875900 -0.106213 -0.470657
vn 0.875900 -0.106213 -0.470657
vn 0.875900 -0.106213 -0.470657
vn -0.231272 -0.948530 -0.216344
vn -0.231267 -0.948532 -0.216340
vn -0.231266 -0.948533 -0.216338
vn -0.231267 -0.948532 -0.216337
vn -0.231264 -0.948534 -0.216335
vn -0.231259 -0.948536 -0.216332
vn 0.231261 0.948535 0.216332
vn 0.231268 0.948533 0.216335
vn 0.231267 0.948533 0.216335
vn 0.231279 0.948529 0.216340
vn 0.231268 0.948533 0.216334
vn 0.231261 0.948535 0.216331
vn -0.119867 -0.123127 -0.985125
vn -0.119867 -0.123127 -0.985125
vn -0.119867 -0.123127 -0.985125
vn -0.119867 -0.123127 -0.985125
vn -0.980355 -0.064754 -0.186311
vn -0.980355 -0.064754 -0.186311
vn -0.980355 -0.064754 -0.186311
vn -0.980355 -0.064754 -0.186311
vn -0.486027 0.083108 0.869983
vn -0.486027 0.083108 0.869983
vn -0.486027 0.083108 0.869983
vn -0.486027 0.083108 0.869983
vn 0.679974 0.116116 0.723983
vn 0.679974 0.116116 0.723983
vn 0.679974 0.116116 0.723983
vn 0.679974 0.116116 0.723983
vn 0.906276 -0.011344 -0.422535
vn 0.906276 -0.011344 -0.422535
vn 0.906276 -0.011344 -0.422535
vn 0.906276 -0.011344 -0.422535
vn 0.042953 -0.991993 0.118761
vn 0.042953 -0.991994 0.118760
vn 0.042953 -0.991993 0.118761
vn 0.042954 -0.991993 0.118762
vn 0.042953 -0.991993 0.118761
vn 0.042954 -0.991993 0.118761
vn -0.042953 0.991993 -0.118761
vn -0.042953 0.991993 -0.118761
vn -0.042953 0.991994 -0.118759
vn -0.042953 0.991994 -0.118758
vn -0.042954 0.991994 -0.118754
vn -0.042954 0.991994 -0.118758
vn -0.309016 0.000000 -0.951057
vn -0.309016 0.000000 -0.951057
vn -0.309016 0.000000 -0.951057
vn -0.309016 0.000000 -0.951057
vn -1.000000 0.000000 0.000000
vn -1.000000 0.000000 0.000000
vn -1.000000 0.000000 0.000000
vn -1.000000 0.000000 0.000000
vn -0.309016 0.000000 0.951057
vn -0.309016 0.000000 0.951057
vn -0.309016 0.000000 0.951057
vn -0.309016 0.000000 0.951057
vn 0.809021 0.000000 0.587780
vn 0.809021 0.000000 0.587780
vn 0.809021 0.000000 0.587780
vn 0.809021 0.000000 0.587780
vn 0.809021 0.000000 -0.587780
vn 0.809021 0.000000 -0.587780
vn 0.809021 0.000000 -0.587780
vn 0.809021 0.000000 -0.587780
vn 0.000000 -1.000000 -0.000000
vn 0.000000 -1.000000 -0.000000
vn 0.000000 -1.000000 -0.000000
vn 0.000000 -1.000000 0.000000
vn 0.000000 -1.000000 0.000000
vn 0.000000 -1.000000 0.000000
vn 0.000000 1.000000 0.000001
vn 0.000000 1.000000 0.000001
vn 0.000000 1.000000 0.000001
vn 0.000000 1.000000 0.000000
vn 0.000000 1.000000 0.000001
vn 0.000000 1.000000 0.000001
s 1
g polySurface1007
usemtl lambert31SG
f 5/1/1 8/2/2 9/3/3 3/4/4
f 1/5/5 7/6/6 8/2/2 5/1/1
f 8/2/2 7/6/6 2/7/7 6/8/8
f 9/3/3 8/2/2 6/8/8 4/9/9
s 2
f 14/10/10 17/11/11 18/12/12 12/13/13
f 10/14/14 16/15/15 17/11/11 14/10/10
f 17/11/11 16/15/15 11/16/16 15/17/17
f 18/12/12 17/11/11 15/17/17 13/18/18
s 3
f 23/19/19 26/20/20 27/21/21 21/22/22
f 19/23/23 25/24/24 26/20/20 23/19/19
f 26/20/20 25/24/24 20/25/25 24/26/26
f 27/21/21 26/20/20 24/26/26 22/27/27
s off
f 28/28/28 29/29/29 34/30/30 33/31/31
f 29/29/32 30/32/33 35/33/34 34/30/35
f 30/32/36 31/34/37 36/35/38 35/33/39
f 31/34/40 32/36/41 37/37/42 36/35/43
f 32/36/44 28/38/45 33/39/46 37/37/47
s 4
f 29/40/48 28/41/49 38/42/50
f 30/43/51 29/40/48 38/42/50
f 31/44/52 30/43/51 38/42/50
f 32/45/53 31/44/52 38/42/50
f 28/41/49 32/45/53 38/42/50
s 5
f 33/46/54 34/47/55 39/48/56
f 34/47/55 35/49/57 39/48/56
f 35/49/57 36/50/58 39/48/56
f 36/50/58 37/51/59 39/48/56
f 37/51/59 33/46/54 39/48/56
s off
f 40/52/60 41/53/61 46/54/62 45/55/63
f 41/53/64 42/56/65 47/57/66 46/54/67
f 42/56/68 43/58/69 48/59/70 47/57/71
f 43/58/72 44/60/73 49/61/74 48/59/75
f 44/60/76 40/62/77 45/63/78 49/61/79
s 6
f 41/64/80 40/65/81 50/66/82
f 42/67/83 41/64/80 50/66/82
f 43/68/84 42/67/83 50/66/82
f 44/69/85 43/68/84 50/66/82
f 40/65/81 44/69/85 50/66/82
s 7
f 45/70/86 46/71/87 51/72/88
f 46/71/87 47/73/89 51/72/88
f 47/73/89 48/74/90 51/72/88
f 48/74/90 49/75/91 51/72/88
f 49/75/91 45/70/86 51/72/88
s off
f 52/76/92 53/77/93 58/78/94 57/79/95
f 53/77/96 54/80/97 59/81/98 58/78/99
f 54/80/100 55/82/101 60/83/102 59/81/103
f 55/82/104 56/84/105 61/85/106 60/83/107
f 56/84/108 52/86/109 57/87/110 61/85/111
s 8
f 53/88/112 52/89/113 62/90/114
f 54/91/115 53/88/112 62/90/114
f 55/92/116 54/91/115 62/90/114
f 56/93/117 55/92/116 62/90/114
f 52/89/113 56/93/117 62/90/114
s 9
f 57/94/118 58/95/119 63/96/120
f 58/95/119 59/97/121 63/96/120
f 59/97/121 60/98/122 63/96/120
f 60/98/122 61/99/123 63/96/120
f 61/99/123 57/94/118 63/96/120
