# Blender v3.0.0 OBJ File: ''
# www.blender.org
mtllib ramp.mtl
o LOW
v -2.232368 -2.135659 -1.313780
v -1.619798 -2.095609 -3.043664
v -2.272670 -0.181979 -2.581503
v -1.397193 -2.254304 -4.592713
v -1.791160 -1.242676 -4.297096
v -1.308492 -2.385397 0.407340
v -1.482472 -0.350438 -5.912174
v -1.220832 -2.298238 -5.935499
v -0.590696 -0.930617 -6.239331
v 0.462038 -2.466265 -5.640373
v -2.632024 -2.129744 2.128483
v -3.083727 -0.738948 1.149572
v -3.213705 -1.714097 2.134371
v -3.005607 -2.223203 0.597892
v -1.870366 -0.542322 1.323081
v -0.296910 -2.226029 1.876945
v 0.305793 -0.474779 1.701890
v 2.119501 -0.751982 2.351429
v -2.740444 0.056462 -0.171557
v -2.233084 1.295073 -1.643647
v -1.813360 0.361206 -4.225904
v -1.394233 1.621148 -5.043925
v -1.761440 2.045824 -3.078599
v -0.373793 1.589745 -1.389066
v -0.887956 2.816293 -5.874214
v -0.540379 2.356835 -2.720011
v -1.677602 3.359916 -4.288509
v -0.663606 0.543873 -0.131548
v 0.672133 4.542429 -5.445082
v -1.156793 4.214709 -5.775314
v 0.406527 -2.120596 -2.062651
v 0.857704 -0.182455 -5.913570
v 0.319100 -2.215612 -3.883195
v -0.115535 -2.322767 -0.554576
v 2.705240 -2.166194 -1.945193
v 2.282229 -2.178579 -3.467783
v 2.287862 -1.753950 -5.393814
v 1.929868 -2.374163 -0.284359
v 1.963350 -2.457624 -4.836846
v 2.212123 0.537514 -5.387339
v 4.323020 -2.253028 -0.833578
v 5.396987 -1.429319 -4.396700
v 4.110391 -1.037446 0.170082
v 4.592402 -0.992202 -1.569358
v 3.864617 -2.308370 -4.718952
v 4.722097 -2.165044 -2.950315
v 0.566471 -1.994314 3.491350
v 0.497938 -2.393294 0.550484
v 1.848827 -2.288647 1.905073
v 2.533637 -2.012569 4.065544
v 3.540076 -0.799772 2.440341
v 3.379605 -2.139608 2.587795
v 3.750327 -2.388007 1.091577
v 1.693204 0.819131 0.047936
v -0.846179 0.916622 -6.192784
v 1.240385 2.132224 -1.987609
v 0.140898 3.923977 -4.257996
v 1.034304 2.236027 -5.306865
v 0.785164 1.436708 -0.937668
v 2.485472 4.305477 -5.255521
v 3.623966 -0.345422 -5.060684
v 4.464965 0.745409 -4.698090
v 2.854501 1.860622 -4.800291
v 3.738228 2.809134 -4.593826
v 3.003469 3.109542 -2.542336
v 1.442532 3.381146 -3.277248
v 2.104378 4.581466 -4.462327
v 2.550642 1.892887 -1.210860
v 4.501976 2.646650 -1.715373
v 3.460948 4.431328 -3.866939
v 3.503013 4.622359 -4.883548
v 5.033579 4.531954 -4.399901
v 5.106404 3.943840 -2.989853
v 5.643006 -0.028503 -4.156646
v 5.207016 -0.575436 -2.949368
v 4.514629 0.227537 -0.450931
v 4.994410 0.723370 -2.069159
v 4.027192 1.335536 -0.100053
v 5.240261 2.056215 -3.913049
v 3.655565 0.296479 1.176313
v 2.292619 0.205764 1.056216
v -1.453509 -1.989194 2.909193
vt 0.784312 0.480730
vt 0.856415 0.486460
vt 0.813836 0.567146
vt 0.871780 0.662134
vt 0.769885 0.646231
vt 0.932445 0.561514
vt 0.790093 0.719854
vt 0.736560 0.717597
vt 0.683251 0.577035
vt 0.722620 0.512731
vt 0.712123 0.778079
vt 0.862045 0.747673
vt 0.798971 0.806735
vt 0.636030 0.744272
vt 0.665312 0.662739
vt 0.756980 0.836803
vt 0.303931 0.835663
vt 0.248730 0.897421
vt 0.209590 0.834488
vt 0.893839 0.425558
vt 0.860707 0.421246
vt 0.820137 0.369641
vt 0.925868 0.486963
vt 0.483031 0.072956
vt 0.477204 0.012804
vt 0.544274 0.000000
vt 0.588731 0.083984
vt 0.402558 0.034486
vt 0.755350 0.404694
vt 0.400381 0.138220
vt 0.706384 0.456946
vt 0.503751 0.176796
vt 0.617026 0.182490
vt 0.410886 0.250812
vt 0.954976 0.653125
vt 0.958392 0.733481
vt 0.248535 0.161508
vt 0.234206 0.099003
vt 0.311573 0.069732
vt 0.899802 0.812572
vt 0.323628 0.161265
vt 0.992181 0.812060
vt 0.999365 0.897421
vt 0.933778 0.878614
vt 0.149899 0.121381
vt 0.844690 0.855829
vt 0.141234 0.670677
vt 0.132253 0.788557
vt 0.060543 0.729951
vt 0.150010 0.213747
vt 0.070188 0.157217
vt 0.000000 0.697879
vt 0.042440 0.617859
vt 0.088908 0.247313
vt 0.574791 0.687502
vt 0.579226 0.618072
vt 0.224920 0.756162
vt 0.329290 0.743735
vt 0.580729 0.543703
vt 0.634660 0.479274
vt 0.239625 0.680135
vt 0.361294 0.776883
vt 0.525731 0.474587
vt 0.477826 0.558576
vt 0.486961 0.652326
vt 0.400251 0.693339
vt 0.314559 0.650763
vt 0.459912 0.478120
vt 0.408907 0.607307
vt 0.501203 0.408989
vt 0.409361 0.526779
vt 0.361014 0.562253
vt 0.299021 0.586283
vt 0.378321 0.462271
vt 0.541044 0.259225
vt 0.468251 0.273390
vt 0.659487 0.384328
vt 0.476774 0.335673
vt 0.572263 0.402824
vt 0.731169 0.320601
vt 0.640790 0.279412
vt 0.547659 0.320258
vt 0.598790 0.343924
vt 0.436368 0.407979
vt 0.351765 0.214116
vt 0.295032 0.242516
vt 0.212943 0.266531
vt 0.104649 0.555440
vt 0.140991 0.312979
vt 0.210863 0.610577
vt 0.338986 0.300154
vt 0.259405 0.333571
vt 0.102801 0.336009
vt 0.403819 0.361444
vt 0.203266 0.548034
vt 0.179686 0.370613
vt 0.311402 0.397432
vt 0.125478 0.506128
vt 0.175379 0.449336
vt 0.235902 0.426989
vt 0.132375 0.383301
vt 0.280750 0.506582
vn -0.0481 -0.9988 0.0016
vn -0.7322 -0.6657 -0.1436
vn -0.6391 -0.7283 -0.2473
vn -0.9758 -0.0202 -0.2178
vn -0.5811 -0.8088 -0.0903
vn -0.8196 0.5488 0.1647
vn -0.9683 -0.1851 -0.1679
vn -0.5884 -0.8085 -0.0108
vn -0.0161 -0.9988 -0.0455
vn -0.0201 -0.9940 -0.1073
vn -0.4789 -0.6414 -0.5993
vn -0.9677 0.1019 -0.2306
vn -0.7765 0.0190 -0.6297
vn 0.1206 -0.8098 -0.5741
vn -0.0283 -0.9939 0.1067
vn -0.0221 -0.0899 -0.9957
vn -0.8019 -0.0200 0.5971
vn -0.3267 -0.8608 0.3902
vn -0.2434 -0.2803 0.9285
vn -0.7863 0.5528 0.2756
vn -0.1784 0.7892 0.5876
vn -0.0301 -0.9892 0.1436
vn -0.1635 0.8114 0.5612
vn -0.0054 -0.9996 0.0284
vn -0.1292 0.7864 0.6041
vn -0.2420 -0.2740 0.9308
vn -0.1278 0.8057 0.5783
vn -0.7392 0.6374 0.2175
vn -0.8345 0.5234 0.1722
vn -0.2296 0.7829 0.5782
vn -0.9297 0.0999 -0.3544
vn -0.1541 0.8177 0.5546
vn -0.8383 0.5132 0.1842
vn -0.5353 0.6442 -0.5463
vn -0.3893 0.0487 -0.9198
vn -0.3023 0.1859 -0.9349
vn 0.2610 0.0752 -0.9624
vn -0.2315 0.8204 0.5229
vn -0.0291 0.8297 -0.5574
vn 0.1195 -0.9639 -0.2377
vn 0.0033 -0.9956 0.0936
vn 0.2712 0.0371 -0.9618
vn 0.2645 -0.3205 -0.9095
vn -0.0040 -0.9985 -0.0534
vn 0.0040 -0.9983 -0.0575
vn 0.3048 0.1593 -0.9390
vn 0.6842 -0.7186 0.1245
vn 0.6009 -0.7907 0.1170
vn 0.2906 -0.7813 -0.5524
vn 0.2961 0.0275 -0.9547
vn 0.9528 -0.1430 0.2677
vn 0.8000 -0.3814 -0.4631
vn 0.9519 -0.0546 0.3015
vn 0.9334 -0.1722 0.3147
vn 0.9334 0.0385 -0.3567
vn 0.3651 0.1445 -0.9196
vn 0.9474 0.0678 0.3128
vn -0.0819 0.7851 0.6140
vn -0.1085 0.8080 0.5791
vn -0.0088 -0.9941 0.1078
vn 0.5131 0.5945 0.6190
vn 0.6266 -0.7543 0.1956
vn 0.1969 -0.2378 0.9511
vn 0.6614 0.4540 0.5970
vn 0.6631 -0.6604 0.3523
vn 0.9325 0.0472 0.3579
vn -0.1223 0.8104 0.5729
vn -0.1608 0.7938 0.5864
vn -0.1875 0.7291 0.6582
vn 0.1727 0.4577 -0.8722
vn -0.1021 0.9675 0.2311
vn 0.2575 0.0766 -0.9632
vn -0.1543 0.7890 0.5947
vn -0.1667 0.7352 0.6571
vn 0.4639 0.6340 0.6187
vn 0.3283 -0.0428 -0.9436
vn -0.0698 0.8868 0.4568
vn 0.5190 0.5586 0.6470
vn 0.2279 0.7384 -0.6347
vn 0.6338 0.6526 -0.4152
vn 0.6484 0.5650 0.5101
vn 0.9212 0.1158 -0.3714
usemtl None
s 1
f 6/1/1 14/2/2 1/3/3
f 1/3/3 3/4/4 2/5/5
f 19/6/6 3/4/4 1/3/3
f 3/4/4 5/7/7 2/5/5
f 19/6/6 1/3/3 14/2/2
f 4/8/8 2/5/5 5/7/7
f 1/3/3 2/5/5 31/9/9
f 1/3/3 31/9/9 34/10/10
f 34/10/10 6/1/1 1/3/3
f 5/7/7 8/11/11 4/8/8
f 5/7/7 3/4/4 21/12/12
f 5/7/7 21/12/12 7/13/13
f 10/14/14 33/15/15 4/8/8
f 8/11/11 5/7/7 7/13/13
f 8/11/11 7/13/13 9/16/16
f 10/14/14 4/8/8 8/11/11
f 33/15/15 2/5/5 4/8/8
f 10/17/14 8/18/11 9/19/16
f 13/20/17 11/21/18 82/22/19
f 11/21/18 13/20/17 14/2/2
f 14/2/2 13/20/17 12/23/20
f 15/24/21 12/25/20 13/26/17
f 15/24/21 13/26/17 82/27/19
f 19/6/6 14/2/2 12/23/20
f 15/24/21 19/28/6 12/25/20
f 14/2/2 6/1/1 11/21/18
f 11/21/18 6/1/1 16/29/22
f 19/28/6 15/24/21 28/30/23
f 48/31/24 16/29/22 6/1/1
f 16/29/22 82/22/19 11/21/18
f 17/32/25 15/24/21 82/27/19
f 28/30/23 15/24/21 17/32/25
f 17/32/25 82/27/19 47/33/26
f 54/34/27 28/30/23 17/32/25
f 20/35/28 3/4/4 19/6/6
f 20/35/28 23/36/29 3/4/4
f 26/37/30 23/38/29 20/39/28
f 22/40/31 21/12/12 23/36/29
f 3/4/4 23/36/29 21/12/12
f 28/30/23 24/41/32 20/39/28
f 22/40/31 23/36/29 27/42/33
f 27/42/33 30/43/34 25/44/35
f 27/42/33 25/44/35 22/40/31
f 26/37/30 27/45/33 23/38/29
f 9/16/16 7/13/13 55/46/36
f 21/12/12 22/40/31 7/13/13
f 20/39/28 19/28/6 28/30/23
f 22/40/31 55/46/36 7/13/13
f 25/44/35 55/46/36 22/40/31
f 26/37/30 20/39/28 24/41/32
f 58/47/37 55/48/36 25/49/35
f 57/50/38 30/51/34 27/45/33
f 57/50/38 27/45/33 26/37/30
f 25/49/35 30/52/34 29/53/39
f 57/50/38 29/54/39 30/51/34
f 39/55/40 36/56/41 33/15/15
f 31/9/9 2/5/5 33/15/15
f 9/19/16 32/57/42 10/17/14
f 9/19/16 55/48/36 32/57/42
f 31/9/9 33/15/15 36/56/41
f 10/17/14 32/57/42 37/58/43
f 39/55/40 33/15/15 10/14/14
f 35/59/44 31/9/9 36/56/41
f 38/60/45 31/9/9 35/59/44
f 38/60/45 34/10/10 31/9/9
f 32/57/42 40/61/46 37/58/43
f 39/62/40 10/17/14 37/58/43
f 41/63/47 38/60/45 35/59/44
f 46/64/48 35/59/44 36/56/41
f 35/59/44 46/64/48 41/63/47
f 45/65/49 36/56/41 39/55/40
f 45/65/49 46/64/48 36/56/41
f 45/66/49 39/62/40 37/58/43
f 61/67/50 37/58/43 40/61/46
f 44/68/51 41/63/47 46/64/48
f 61/67/50 45/66/49 37/58/43
f 42/69/52 45/66/49 61/67/50
f 43/70/53 41/63/47 44/68/51
f 45/65/49 42/69/52 46/64/48
f 75/71/54 46/64/48 42/69/52
f 75/71/54 42/69/52 74/72/55
f 75/71/54 44/68/51 46/64/48
f 74/72/55 42/69/52 62/73/56
f 77/74/57 75/71/54 74/72/55
f 75/71/54 77/74/57 44/68/51
f 18/75/58 17/32/25 47/33/26
f 17/32/25 18/75/58 81/76/59
f 81/76/59 54/34/27 17/32/25
f 48/31/24 6/1/1 34/10/10
f 48/31/24 49/77/60 16/29/22
f 49/77/60 48/31/24 38/60/45
f 34/10/10 38/60/45 48/31/24
f 80/78/61 81/76/59 18/75/58
f 38/60/45 53/79/62 49/77/60
f 49/77/60 47/80/26 16/29/22
f 50/81/63 47/80/26 49/77/60
f 50/81/63 18/75/58 47/33/26
f 50/81/63 51/82/64 18/75/58
f 41/63/47 53/79/62 38/60/45
f 52/83/65 49/77/60 53/79/62
f 52/83/65 50/81/63 49/77/60
f 51/82/64 50/81/63 52/83/65
f 51/82/64 80/78/61 18/75/58
f 51/82/64 53/79/62 43/70/53
f 53/79/62 51/82/64 52/83/65
f 53/79/62 41/63/47 43/70/53
f 43/70/53 80/78/61 51/82/64
f 76/84/66 80/78/61 43/70/53
f 32/57/42 55/48/36 58/47/37
f 28/30/23 59/85/67 24/41/32
f 56/86/68 24/41/32 59/85/67
f 56/86/68 26/37/30 24/41/32
f 26/37/30 66/87/69 57/50/38
f 26/37/30 56/86/68 66/87/69
f 28/30/23 54/34/27 59/85/67
f 25/49/35 29/53/39 58/47/37
f 58/47/37 40/61/46 32/57/42
f 60/88/70 58/47/37 29/53/39
f 57/50/38 67/89/71 29/54/39
f 58/47/37 63/90/72 40/61/46
f 68/91/73 65/92/74 56/86/68
f 56/86/68 59/85/67 68/91/73
f 63/90/72 58/47/37 60/88/70
f 66/87/69 67/89/71 57/50/38
f 60/93/70 29/54/39 67/89/71
f 68/91/73 59/85/67 54/34/27
f 68/91/73 54/34/27 78/94/75
f 61/67/50 40/61/46 63/90/72
f 61/67/50 63/90/72 62/73/56
f 64/95/76 63/90/72 60/88/70
f 56/86/68 65/92/74 66/87/69
f 70/96/77 67/89/71 66/87/69
f 64/95/76 62/73/56 63/90/72
f 68/91/73 78/94/75 69/97/78
f 69/97/78 65/92/74 68/91/73
f 64/95/76 71/98/79 72/99/80
f 65/92/74 70/96/77 66/87/69
f 73/100/81 70/96/77 65/92/74
f 67/89/71 71/101/79 60/93/70
f 71/101/79 67/89/71 70/96/77
f 71/101/79 70/96/77 72/99/80
f 71/98/79 64/95/76 60/88/70
f 43/70/53 44/68/51 76/84/66
f 78/94/75 76/84/66 77/74/57
f 78/94/75 80/78/61 76/84/66
f 73/100/81 65/92/74 69/97/78
f 72/99/80 70/96/77 73/100/81
f 62/73/56 42/69/52 61/67/50
f 79/102/82 74/72/55 62/73/56
f 77/74/57 76/84/66 44/68/51
f 64/95/76 79/102/82 62/73/56
f 77/74/57 74/72/55 79/102/82
f 78/94/75 77/74/57 69/97/78
f 79/102/82 64/95/76 72/99/80
f 77/74/57 79/102/82 69/97/78
f 73/100/81 69/97/78 79/102/82
f 72/99/80 73/100/81 79/102/82
f 80/78/61 78/94/75 81/76/59
f 78/94/75 54/34/27 81/76/59
f 47/80/26 82/22/19 16/29/22
