# This file uses centimeters as units for non-parametric coordinates.

mtllib INVERTED SPHERE.mtl
g default
v 0.250000 -0.951057 -0.181636
v 0.095491 -0.951057 -0.293893
v -0.095492 -0.951057 -0.293893
v -0.250000 -0.951057 -0.181636
v -0.309017 -0.951057 0.000000
v -0.250000 -0.951057 0.181636
v -0.095491 -0.951057 0.293893
v 0.095492 -0.951057 0.293893
v 0.250000 -0.951057 0.181636
v 0.309017 -0.951057 0.000000
v 0.475528 -0.809017 -0.345492
v 0.181636 -0.809017 -0.559017
v -0.181636 -0.809017 -0.559017
v -0.475528 -0.809017 -0.345491
v -0.587785 -0.809017 0.000000
v -0.475528 -0.809017 0.345492
v -0.181636 -0.809017 0.559017
v 0.181636 -0.809017 0.559017
v 0.475528 -0.809017 0.345491
v 0.587785 -0.809017 0.000000
v 0.654509 -0.587785 -0.475528
v 0.250000 -0.587785 -0.769421
v -0.250000 -0.587785 -0.769421
v -0.654509 -0.587785 -0.475528
v -0.809017 -0.587785 0.000000
v -0.654509 -0.587785 0.475528
v -0.250000 -0.587785 0.769421
v 0.250000 -0.587785 0.769421
v 0.654509 -0.587785 0.475528
v 0.809017 -0.587785 0.000000
v 0.769421 -0.309017 -0.559017
v 0.293893 -0.309017 -0.904509
v -0.293893 -0.309017 -0.904509
v -0.769421 -0.309017 -0.559017
v -0.951057 -0.309017 0.000000
v -0.769421 -0.309017 0.559017
v -0.293893 -0.309017 0.904509
v 0.293893 -0.309017 0.904509
v 0.769421 -0.309017 0.559017
v 0.951057 -0.309017 0.000000
v 0.809017 0.000000 -0.587785
v 0.309017 0.000000 -0.951057
v -0.309017 0.000000 -0.951057
v -0.809017 0.000000 -0.587785
v -1.000000 0.000000 0.000000
v -0.809017 0.000000 0.587785
v -0.309017 0.000000 0.951057
v 0.309017 0.000000 0.951057
v 0.809017 0.000000 0.587785
v 1.000000 0.000000 0.000000
v 0.769421 0.309017 -0.559017
v 0.293893 0.309017 -0.904509
v -0.293893 0.309017 -0.904509
v -0.769421 0.309017 -0.559017
v -0.951057 0.309017 0.000000
v -0.769421 0.309017 0.559017
v -0.293893 0.309017 0.904509
v 0.293893 0.309017 0.904509
v 0.769421 0.309017 0.559017
v 0.951057 0.309017 0.000000
v 0.654509 0.587785 -0.475528
v 0.250000 0.587785 -0.769421
v -0.250000 0.587785 -0.769421
v -0.654509 0.587785 -0.475528
v -0.809017 0.587785 0.000000
v -0.654509 0.587785 0.475528
v -0.250000 0.587785 0.769421
v 0.250000 0.587785 0.769421
v 0.654509 0.587785 0.475528
v 0.809017 0.587785 0.000000
v 0.475528 0.809017 -0.345492
v 0.181636 0.809017 -0.559017
v -0.181636 0.809017 -0.559017
v -0.475528 0.809017 -0.345491
v -0.587785 0.809017 0.000000
v -0.475528 0.809017 0.345492
v -0.181636 0.809017 0.559017
v 0.181636 0.809017 0.559017
v 0.475528 0.809017 0.345491
v 0.587785 0.809017 0.000000
v 0.250000 0.951057 -0.181636
v 0.095491 0.951057 -0.293893
v -0.095492 0.951057 -0.293893
v -0.250000 0.951057 -0.181636
v -0.309017 0.951057 0.000000
v -0.250000 0.951057 0.181636
v -0.095491 0.951057 0.293893
v 0.095492 0.951057 0.293893
v 0.250000 0.951057 0.181636
v 0.309017 0.951057 0.000000
v 0.000000 -1.000000 0.000000
v 0.000000 1.000000 0.000000
vt 0.000000 0.100000
vt 0.100000 0.100000
vt 0.200000 0.100000
vt 0.300000 0.100000
vt 0.400000 0.100000
vt 0.500000 0.100000
vt 0.600000 0.100000
vt 0.700000 0.100000
vt 0.800000 0.100000
vt 0.900000 0.100000
vt 1.000000 0.100000
vt 0.000000 0.200000
vt 0.100000 0.200000
vt 0.200000 0.200000
vt 0.300000 0.200000
vt 0.400000 0.200000
vt 0.500000 0.200000
vt 0.600000 0.200000
vt 0.700000 0.200000
vt 0.800000 0.200000
vt 0.900000 0.200000
vt 1.000000 0.200000
vt 0.000000 0.300000
vt 0.100000 0.300000
vt 0.200000 0.300000
vt 0.300000 0.300000
vt 0.400000 0.300000
vt 0.500000 0.300000
vt 0.600000 0.300000
vt 0.700000 0.300000
vt 0.800000 0.300000
vt 0.900000 0.300000
vt 1.000000 0.300000
vt 0.000000 0.400000
vt 0.100000 0.400000
vt 0.200000 0.400000
vt 0.300000 0.400000
vt 0.400000 0.400000
vt 0.500000 0.400000
vt 0.600000 0.400000
vt 0.700000 0.400000
vt 0.800000 0.400000
vt 0.900000 0.400000
vt 1.000000 0.400000
vt 0.000000 0.500000
vt 0.100000 0.500000
vt 0.200000 0.500000
vt 0.300000 0.500000
vt 0.400000 0.500000
vt 0.500000 0.500000
vt 0.600000 0.500000
vt 0.700000 0.500000
vt 0.800000 0.500000
vt 0.900000 0.500000
vt 1.000000 0.500000
vt 0.000000 0.600000
vt 0.100000 0.600000
vt 0.200000 0.600000
vt 0.300000 0.600000
vt 0.400000 0.600000
vt 0.500000 0.600000
vt 0.600000 0.600000
vt 0.700000 0.600000
vt 0.800000 0.600000
vt 0.900000 0.600000
vt 1.000000 0.600000
vt 0.000000 0.700000
vt 0.100000 0.700000
vt 0.200000 0.700000
vt 0.300000 0.700000
vt 0.400000 0.700000
vt 0.500000 0.700000
vt 0.600000 0.700000
vt 0.700000 0.700000
vt 0.800000 0.700000
vt 0.900000 0.700000
vt 1.000000 0.700000
vt 0.000000 0.800000
vt 0.100000 0.800000
vt 0.200000 0.800000
vt 0.300000 0.800000
vt 0.400000 0.800000
vt 0.500000 0.800000
vt 0.600000 0.800000
vt 0.700000 0.800000
vt 0.800000 0.800000
vt 0.900000 0.800000
vt 1.000000 0.800000
vt 0.000000 0.900000
vt 0.100000 0.900000
vt 0.200000 0.900000
vt 0.300000 0.900000
vt 0.400000 0.900000
vt 0.500000 0.900000
vt 0.600000 0.900000
vt 0.700000 0.900000
vt 0.800000 0.900000
vt 0.900000 0.900000
vt 1.000000 0.900000
vt 0.050000 0.000000
vt 0.150000 0.000000
vt 0.250000 0.000000
vt 0.350000 0.000000
vt 0.450000 0.000000
vt 0.550000 0.000000
vt 0.650000 0.000000
vt 0.750000 0.000000
vt 0.850000 0.000000
vt 0.950000 0.000000
vt 0.050000 1.000000
vt 0.150000 1.000000
vt 0.250000 1.000000
vt 0.350000 1.000000
vt 0.450000 1.000000
vt 0.550000 1.000000
vt 0.650000 1.000000
vt 0.750000 1.000000
vt 0.850000 1.000000
vt 0.950000 1.000000
vn -0.277578 0.881468 0.382053
vn -0.277578 0.881468 0.382053
vn -0.277578 0.881468 0.382053
vn -0.277578 0.881468 0.382053
vn 0.000000 0.881468 0.472244
vn 0.000000 0.881468 0.472244
vn 0.000000 0.881468 0.472244
vn 0.000000 0.881468 0.472244
vn 0.277578 0.881468 0.382053
vn 0.277578 0.881468 0.382053
vn 0.277578 0.881468 0.382053
vn 0.277578 0.881468 0.382053
vn 0.449130 0.881468 0.145931
vn 0.449130 0.881468 0.145931
vn 0.449130 0.881468 0.145931
vn 0.449130 0.881468 0.145931
vn 0.449130 0.881468 -0.145931
vn 0.449131 0.881468 -0.145931
vn 0.449131 0.881468 -0.145931
vn 0.449130 0.881468 -0.145931
vn 0.277578 0.881468 -0.382053
vn 0.277578 0.881468 -0.382053
vn 0.277578 0.881468 -0.382053
vn 0.277578 0.881468 -0.382053
vn 0.000000 0.881468 -0.472244
vn 0.000000 0.881468 -0.472244
vn 0.000000 0.881468 -0.472244
vn 0.000000 0.881468 -0.472244
vn -0.277578 0.881468 -0.382053
vn -0.277578 0.881468 -0.382053
vn -0.277578 0.881468 -0.382053
vn -0.277578 0.881468 -0.382053
vn -0.449130 0.881468 -0.145931
vn -0.449130 0.881468 -0.145931
vn -0.449130 0.881468 -0.145931
vn -0.449130 0.881468 -0.145931
vn -0.449131 0.881468 0.145931
vn -0.449131 0.881468 0.145931
vn -0.449131 0.881468 0.145931
vn -0.449131 0.881468 0.145931
vn -0.425919 0.689152 0.586227
vn -0.425919 0.689152 0.586227
vn -0.425919 0.689152 0.586227
vn -0.425919 0.689152 0.586227
vn 0.000000 0.689152 0.724617
vn 0.000000 0.689152 0.724617
vn 0.000000 0.689152 0.724617
vn 0.000000 0.689152 0.724617
vn 0.425919 0.689152 0.586227
vn 0.425919 0.689152 0.586227
vn 0.425919 0.689152 0.586227
vn 0.425919 0.689152 0.586227
vn 0.689152 0.689152 0.223919
vn 0.689152 0.689152 0.223919
vn 0.689152 0.689152 0.223919
vn 0.689152 0.689152 0.223919
vn 0.689152 0.689152 -0.223919
vn 0.689152 0.689152 -0.223919
vn 0.689152 0.689152 -0.223919
vn 0.689152 0.689152 -0.223919
vn 0.425919 0.689152 -0.586228
vn 0.425919 0.689152 -0.586227
vn 0.425919 0.689152 -0.586228
vn 0.425919 0.689152 -0.586228
vn -0.000000 0.689152 -0.724617
vn -0.000000 0.689152 -0.724617
vn -0.000000 0.689152 -0.724617
vn -0.000000 0.689152 -0.724617
vn -0.425919 0.689152 -0.586228
vn -0.425919 0.689152 -0.586227
vn -0.425919 0.689152 -0.586227
vn -0.425919 0.689152 -0.586228
vn -0.689152 0.689152 -0.223919
vn -0.689152 0.689152 -0.223919
vn -0.689152 0.689152 -0.223919
vn -0.689152 0.689152 -0.223919
vn -0.689152 0.689152 0.223919
vn -0.689152 0.689152 0.223919
vn -0.689152 0.689152 0.223919
vn -0.689152 0.689152 0.223919
vn -0.528952 0.436083 0.728040
vn -0.528952 0.436083 0.728040
vn -0.528952 0.436083 0.728040
vn -0.528952 0.436083 0.728040
vn 0.000000 0.436083 0.899906
vn 0.000000 0.436083 0.899906
vn 0.000000 0.436083 0.899906
vn 0.000000 0.436083 0.899906
vn 0.528952 0.436084 0.728039
vn 0.528952 0.436083 0.728039
vn 0.528952 0.436083 0.728039
vn 0.528952 0.436083 0.728039
vn 0.855862 0.436084 0.278086
vn 0.855862 0.436084 0.278086
vn 0.855862 0.436084 0.278086
vn 0.855862 0.436084 0.278086
vn 0.855862 0.436083 -0.278086
vn 0.855862 0.436083 -0.278086
vn 0.855862 0.436083 -0.278086
vn 0.855862 0.436083 -0.278086
vn 0.528952 0.436083 -0.728040
vn 0.528952 0.436083 -0.728039
vn 0.528952 0.436083 -0.728040
vn 0.528952 0.436083 -0.728040
vn -0.000000 0.436083 -0.899906
vn -0.000000 0.436083 -0.899906
vn -0.000000 0.436083 -0.899906
vn -0.000000 0.436083 -0.899906
vn -0.528952 0.436083 -0.728040
vn -0.528952 0.436083 -0.728040
vn -0.528952 0.436083 -0.728040
vn -0.528952 0.436083 -0.728040
vn -0.855862 0.436083 -0.278086
vn -0.855862 0.436083 -0.278086
vn -0.855862 0.436083 -0.278086
vn -0.855862 0.436083 -0.278086
vn -0.855862 0.436084 0.278086
vn -0.855862 0.436084 0.278086
vn -0.855862 0.436084 0.278086
vn -0.855862 0.436084 0.278086
vn -0.581228 0.148952 0.799992
vn -0.581228 0.148952 0.799992
vn -0.581228 0.148952 0.799992
vn -0.581228 0.148952 0.799992
vn 0.000000 0.148952 0.988844
vn 0.000000 0.148952 0.988844
vn 0.000000 0.148952 0.988844
vn 0.000000 0.148952 0.988844
vn 0.581228 0.148952 0.799992
vn 0.581228 0.148952 0.799992
vn 0.581228 0.148952 0.799992
vn 0.581228 0.148952 0.799992
vn 0.940447 0.148952 0.305570
vn 0.940447 0.148952 0.305570
vn 0.940447 0.148952 0.305570
vn 0.940447 0.148952 0.305570
vn 0.940447 0.148952 -0.305570
vn 0.940447 0.148952 -0.305570
vn 0.940447 0.148952 -0.305570
vn 0.940447 0.148952 -0.305570
vn 0.581228 0.148952 -0.799992
vn 0.581228 0.148952 -0.799992
vn 0.581228 0.148952 -0.799992
vn 0.581228 0.148952 -0.799992
vn -0.000000 0.148952 -0.988844
vn -0.000000 0.148952 -0.988844
vn -0.000000 0.148952 -0.988844
vn -0.000000 0.148952 -0.988844
vn -0.581228 0.148952 -0.799992
vn -0.581228 0.148952 -0.799992
vn -0.581228 0.148952 -0.799992
vn -0.581228 0.148952 -0.799992
vn -0.940447 0.148952 -0.305570
vn -0.940447 0.148952 -0.305570
vn -0.940447 0.148952 -0.305570
vn -0.940447 0.148952 -0.305570
vn -0.940447 0.148952 0.305570
vn -0.940447 0.148952 0.305570
vn -0.940447 0.148952 0.305570
vn -0.940447 0.148952 0.305570
vn -0.581228 -0.148952 0.799992
vn -0.581228 -0.148952 0.799992
vn -0.581228 -0.148952 0.799992
vn -0.581228 -0.148952 0.799992
vn 0.000000 -0.148952 0.988844
vn 0.000000 -0.148952 0.988844
vn 0.000000 -0.148952 0.988844
vn 0.000000 -0.148952 0.988844
vn 0.581228 -0.148952 0.799992
vn 0.581228 -0.148952 0.799992
vn 0.581228 -0.148952 0.799992
vn 0.581228 -0.148952 0.799992
vn 0.940447 -0.148952 0.305570
vn 0.940447 -0.148952 0.305570
vn 0.940447 -0.148952 0.305570
vn 0.940447 -0.148952 0.305570
vn 0.940447 -0.148952 -0.305570
vn 0.940447 -0.148952 -0.305570
vn 0.940447 -0.148952 -0.305570
vn 0.940447 -0.148952 -0.305570
vn 0.581228 -0.148952 -0.799992
vn 0.581228 -0.148952 -0.799992
vn 0.581228 -0.148952 -0.799992
vn 0.581228 -0.148952 -0.799992
vn -0.000000 -0.148952 -0.988844
vn -0.000000 -0.148952 -0.988844
vn -0.000000 -0.148952 -0.988844
vn -0.000000 -0.148952 -0.988844
vn -0.581228 -0.148952 -0.799992
vn -0.581228 -0.148952 -0.799992
vn -0.581228 -0.148952 -0.799992
vn -0.581228 -0.148952 -0.799992
vn -0.940447 -0.148952 -0.305570
vn -0.940447 -0.148952 -0.305570
vn -0.940447 -0.148952 -0.305570
vn -0.940447 -0.148952 -0.305570
vn -0.940447 -0.148952 0.305570
vn -0.940447 -0.148952 0.305570
vn -0.940447 -0.148952 0.305570
vn -0.940447 -0.148952 0.305570
vn -0.528952 -0.436083 0.728040
vn -0.528952 -0.436083 0.728040
vn -0.528952 -0.436083 0.728040
vn -0.528952 -0.436083 0.728040
vn 0.000000 -0.436083 0.899906
vn 0.000000 -0.436083 0.899906
vn 0.000000 -0.436083 0.899906
vn 0.000000 -0.436083 0.899906
vn 0.528952 -0.436083 0.728039
vn 0.528952 -0.436083 0.728040
vn 0.528952 -0.436083 0.728040
vn 0.528952 -0.436083 0.728039
vn 0.855862 -0.436084 0.278086
vn 0.855862 -0.436084 0.278086
vn 0.855862 -0.436084 0.278086
vn 0.855862 -0.436084 0.278086
vn 0.855862 -0.436083 -0.278087
vn 0.855862 -0.436083 -0.278087
vn 0.855862 -0.436083 -0.278087
vn 0.855862 -0.436083 -0.278087
vn 0.528952 -0.436083 -0.728040
vn 0.528952 -0.436083 -0.728040
vn 0.528952 -0.436083 -0.728040
vn 0.528952 -0.436083 -0.728040
vn -0.000000 -0.436083 -0.899906
vn -0.000000 -0.436083 -0.899906
vn -0.000000 -0.436083 -0.899906
vn -0.000000 -0.436083 -0.899906
vn -0.528952 -0.436083 -0.728039
vn -0.528952 -0.436083 -0.728040
vn -0.528952 -0.436083 -0.728040
vn -0.528952 -0.436083 -0.728040
vn -0.855862 -0.436083 -0.278086
vn -0.855862 -0.436083 -0.278086
vn -0.855862 -0.436083 -0.278086
vn -0.855862 -0.436083 -0.278086
vn -0.855862 -0.436084 0.278086
vn -0.855862 -0.436084 0.278086
vn -0.855862 -0.436084 0.278086
vn -0.855862 -0.436084 0.278086
vn -0.425919 -0.689152 0.586227
vn -0.425919 -0.689152 0.586227
vn -0.425919 -0.689152 0.586227
vn -0.425919 -0.689152 0.586227
vn 0.000000 -0.689152 0.724617
vn 0.000000 -0.689152 0.724617
vn 0.000000 -0.689152 0.724617
vn 0.000000 -0.689152 0.724617
vn 0.425919 -0.689152 0.586227
vn 0.425919 -0.689152 0.586227
vn 0.425919 -0.689152 0.586227
vn 0.425919 -0.689152 0.586227
vn 0.689152 -0.689152 0.223919
vn 0.689152 -0.689152 0.223919
vn 0.689152 -0.689152 0.223919
vn 0.689152 -0.689152 0.223919
vn 0.689152 -0.689152 -0.223919
vn 0.689152 -0.689152 -0.223919
vn 0.689152 -0.689152 -0.223919
vn 0.689152 -0.689152 -0.223919
vn 0.425919 -0.689152 -0.586228
vn 0.425919 -0.689152 -0.586228
vn 0.425919 -0.689152 -0.586228
vn 0.425919 -0.689152 -0.586228
vn -0.000000 -0.689152 -0.724617
vn -0.000000 -0.689152 -0.724617
vn -0.000000 -0.689152 -0.724617
vn -0.000000 -0.689152 -0.724617
vn -0.425919 -0.689152 -0.586227
vn -0.425919 -0.689152 -0.586227
vn -0.425919 -0.689152 -0.586227
vn -0.425919 -0.689152 -0.586227
vn -0.689152 -0.689152 -0.223919
vn -0.689152 -0.689152 -0.223919
vn -0.689152 -0.689152 -0.223919
vn -0.689152 -0.689152 -0.223919
vn -0.689152 -0.689152 0.223919
vn -0.689152 -0.689152 0.223919
vn -0.689152 -0.689152 0.223919
vn -0.689152 -0.689152 0.223919
vn -0.277578 -0.881468 0.382053
vn -0.277578 -0.881468 0.382053
vn -0.277578 -0.881468 0.382053
vn -0.277578 -0.881468 0.382053
vn 0.000000 -0.881468 0.472244
vn 0.000000 -0.881468 0.472244
vn 0.000000 -0.881468 0.472244
vn 0.000000 -0.881468 0.472244
vn 0.277578 -0.881468 0.382053
vn 0.277578 -0.881468 0.382053
vn 0.277578 -0.881468 0.382053
vn 0.277578 -0.881468 0.382053
vn 0.449130 -0.881468 0.145931
vn 0.449130 -0.881468 0.145931
vn 0.449130 -0.881468 0.145931
vn 0.449130 -0.881468 0.145931
vn 0.449131 -0.881468 -0.145931
vn 0.449130 -0.881468 -0.145931
vn 0.449130 -0.881468 -0.145931
vn 0.449131 -0.881468 -0.145931
vn 0.277578 -0.881468 -0.382053
vn 0.277578 -0.881468 -0.382053
vn 0.277578 -0.881468 -0.382053
vn 0.277578 -0.881468 -0.382053
vn 0.000000 -0.881468 -0.472244
vn 0.000000 -0.881468 -0.472244
vn 0.000000 -0.881468 -0.472244
vn 0.000000 -0.881468 -0.472244
vn -0.277578 -0.881468 -0.382053
vn -0.277578 -0.881468 -0.382053
vn -0.277578 -0.881468 -0.382053
vn -0.277578 -0.881468 -0.382053
vn -0.449131 -0.881468 -0.145931
vn -0.449130 -0.881468 -0.145931
vn -0.449131 -0.881468 -0.145931
vn -0.449131 -0.881468 -0.145931
vn -0.449131 -0.881468 0.145931
vn -0.449131 -0.881468 0.145931
vn -0.449131 -0.881468 0.145931
vn -0.449131 -0.881468 0.145931
vn -0.096557 0.986415 0.132900
vn -0.096557 0.986415 0.132900
vn -0.096557 0.986415 0.132900
vn 0.000000 0.986415 0.164272
vn 0.000000 0.986415 0.164272
vn 0.000000 0.986415 0.164272
vn 0.096557 0.986415 0.132900
vn 0.096557 0.986415 0.132900
vn 0.096557 0.986415 0.132900
vn 0.156233 0.986415 0.050763
vn 0.156233 0.986415 0.050763
vn 0.156233 0.986415 0.050763
vn 0.156233 0.986415 -0.050763
vn 0.156233 0.986415 -0.050763
vn 0.156233 0.986415 -0.050763
vn 0.096557 0.986415 -0.132899
vn 0.096557 0.986415 -0.132899
vn 0.096557 0.986415 -0.132899
vn 0.000000 0.986415 -0.164272
vn 0.000000 0.986415 -0.164272
vn 0.000000 0.986415 -0.164272
vn -0.096557 0.986415 -0.132899
vn -0.096557 0.986415 -0.132899
vn -0.096557 0.986415 -0.132899
vn -0.156233 0.986415 -0.050763
vn -0.156233 0.986415 -0.050763
vn -0.156233 0.986415 -0.050763
vn -0.156233 0.986415 0.050763
vn -0.156233 0.986415 0.050763
vn -0.156233 0.986415 0.050763
vn -0.096557 -0.986415 0.132900
vn -0.096557 -0.986415 0.132900
vn -0.096557 -0.986415 0.132900
vn 0.000000 -0.986415 0.164272
vn 0.000000 -0.986415 0.164272
vn 0.000000 -0.986415 0.164272
vn 0.096557 -0.986415 0.132900
vn 0.096557 -0.986415 0.132900
vn 0.096557 -0.986415 0.132900
vn 0.156233 -0.986415 0.050763
vn 0.156233 -0.986415 0.050763
vn 0.156233 -0.986415 0.050763
vn 0.156233 -0.986415 -0.050763
vn 0.156233 -0.986415 -0.050763
vn 0.156233 -0.986415 -0.050763
vn 0.096557 -0.986415 -0.132899
vn 0.096557 -0.986415 -0.132899
vn 0.096557 -0.986415 -0.132899
vn 0.000000 -0.986415 -0.164272
vn 0.000000 -0.986415 -0.164272
vn 0.000000 -0.986415 -0.164272
vn -0.096557 -0.986415 -0.132899
vn -0.096557 -0.986415 -0.132899
vn -0.096557 -0.986415 -0.132899
vn -0.156233 -0.986415 -0.050763
vn -0.156233 -0.986415 -0.050763
vn -0.156233 -0.986415 -0.050763
vn -0.156233 -0.986415 0.050763
vn -0.156233 -0.986415 0.050763
vn -0.156233 -0.986415 0.050763
s off
g pSphere1
usemtl initialShadingGroup
f 1/1/1 11/12/2 12/13/3 2/2/4
f 2/2/5 12/13/6 13/14/7 3/3/8
f 3/3/9 13/14/10 14/15/11 4/4/12
f 4/4/13 14/15/14 15/16/15 5/5/16
f 5/5/17 15/16/18 16/17/19 6/6/20
f 6/6/21 16/17/22 17/18/23 7/7/24
f 7/7/25 17/18/26 18/19/27 8/8/28
f 8/8/29 18/19/30 19/20/31 9/9/32
f 9/9/33 19/20/34 20/21/35 10/10/36
f 10/10/37 20/21/38 11/22/39 1/11/40
f 11/12/41 21/23/42 22/24/43 12/13/44
f 12/13/45 22/24/46 23/25/47 13/14/48
f 13/14/49 23/25/50 24/26/51 14/15/52
f 14/15/53 24/26/54 25/27/55 15/16/56
f 15/16/57 25/27/58 26/28/59 16/17/60
f 16/17/61 26/28/62 27/29/63 17/18/64
f 17/18/65 27/29/66 28/30/67 18/19/68
f 18/19/69 28/30/70 29/31/71 19/20/72
f 19/20/73 29/31/74 30/32/75 20/21/76
f 20/21/77 30/32/78 21/33/79 11/22/80
f 21/23/81 31/34/82 32/35/83 22/24/84
f 22/24/85 32/35/86 33/36/87 23/25/88
f 23/25/89 33/36/90 34/37/91 24/26/92
f 24/26/93 34/37/94 35/38/95 25/27/96
f 25/27/97 35/38/98 36/39/99 26/28/100
f 26/28/101 36/39/102 37/40/103 27/29/104
f 27/29/105 37/40/106 38/41/107 28/30/108
f 28/30/109 38/41/110 39/42/111 29/31/112
f 29/31/113 39/42/114 40/43/115 30/32/116
f 30/32/117 40/43/118 31/44/119 21/33/120
f 31/34/121 41/45/122 42/46/123 32/35/124
f 32/35/125 42/46/126 43/47/127 33/36/128
f 33/36/129 43/47/130 44/48/131 34/37/132
f 34/37/133 44/48/134 45/49/135 35/38/136
f 35/38/137 45/49/138 46/50/139 36/39/140
f 36/39/141 46/50/142 47/51/143 37/40/144
f 37/40/145 47/51/146 48/52/147 38/41/148
f 38/41/149 48/52/150 49/53/151 39/42/152
f 39/42/153 49/53/154 50/54/155 40/43/156
f 40/43/157 50/54/158 41/55/159 31/44/160
f 41/45/161 51/56/162 52/57/163 42/46/164
f 42/46/165 52/57/166 53/58/167 43/47/168
f 43/47/169 53/58/170 54/59/171 44/48/172
f 44/48/173 54/59/174 55/60/175 45/49/176
f 45/49/177 55/60/178 56/61/179 46/50/180
f 46/50/181 56/61/182 57/62/183 47/51/184
f 47/51/185 57/62/186 58/63/187 48/52/188
f 48/52/189 58/63/190 59/64/191 49/53/192
f 49/53/193 59/64/194 60/65/195 50/54/196
f 50/54/197 60/65/198 51/66/199 41/55/200
f 51/56/201 61/67/202 62/68/203 52/57/204
f 52/57/205 62/68/206 63/69/207 53/58/208
f 53/58/209 63/69/210 64/70/211 54/59/212
f 54/59/213 64/70/214 65/71/215 55/60/216
f 55/60/217 65/71/218 66/72/219 56/61/220
f 56/61/221 66/72/222 67/73/223 57/62/224
f 57/62/225 67/73/226 68/74/227 58/63/228
f 58/63/229 68/74/230 69/75/231 59/64/232
f 59/64/233 69/75/234 70/76/235 60/65/236
f 60/65/237 70/76/238 61/77/239 51/66/240
f 61/67/241 71/78/242 72/79/243 62/68/244
f 62/68/245 72/79/246 73/80/247 63/69/248
f 63/69/249 73/80/250 74/81/251 64/70/252
f 64/70/253 74/81/254 75/82/255 65/71/256
f 65/71/257 75/82/258 76/83/259 66/72/260
f 66/72/261 76/83/262 77/84/263 67/73/264
f 67/73/265 77/84/266 78/85/267 68/74/268
f 68/74/269 78/85/270 79/86/271 69/75/272
f 69/75/273 79/86/274 80/87/275 70/76/276
f 70/76/277 80/87/278 71/88/279 61/77/280
f 71/78/281 81/89/282 82/90/283 72/79/284
f 72/79/285 82/90/286 83/91/287 73/80/288
f 73/80/289 83/91/290 84/92/291 74/81/292
f 74/81/293 84/92/294 85/93/295 75/82/296
f 75/82/297 85/93/298 86/94/299 76/83/300
f 76/83/301 86/94/302 87/95/303 77/84/304
f 77/84/305 87/95/306 88/96/307 78/85/308
f 78/85/309 88/96/310 89/97/311 79/86/312
f 79/86/313 89/97/314 90/98/315 80/87/316
f 80/87/317 90/98/318 81/99/319 71/88/320
f 2/2/321 91/100/322 1/1/323
f 3/3/324 91/101/325 2/2/326
f 4/4/327 91/102/328 3/3/329
f 5/5/330 91/103/331 4/4/332
f 6/6/333 91/104/334 5/5/335
f 7/7/336 91/105/337 6/6/338
f 8/8/339 91/106/340 7/7/341
f 9/9/342 91/107/343 8/8/344
f 10/10/345 91/108/346 9/9/347
f 1/11/348 91/109/349 10/10/350
f 81/89/351 92/110/352 82/90/353
f 82/90/354 92/111/355 83/91/356
f 83/91/357 92/112/358 84/92/359
f 84/92/360 92/113/361 85/93/362
f 85/93/363 92/114/364 86/94/365
f 86/94/366 92/115/367 87/95/368
f 87/95/369 92/116/370 88/96/371
f 88/96/372 92/117/373 89/97/374
f 89/97/375 92/118/376 90/98/377
f 90/98/378 92/119/379 81/99/380
