# Blender v3.0.0 OBJ File: ''
# www.blender.org
mtllib renderplane.mtl
o Plane
v 1.272798 1.315369 1.272798
v 1.272798 1.315369 -1.272798
v -1.111799 0.539070 0.550021
v -0.550021 0.539070 1.111799
v -0.449459 0.000000 0.449459
v -1.082832 0.539070 0.722191
v -1.002320 0.539070 0.877942
v -1.051751 0.372457 0.517478
v -1.016840 0.368041 0.694380
v -0.941976 0.373615 0.838101
v -0.943221 0.222266 0.488692
v -0.914651 0.229291 0.661503
v -0.865427 0.253838 0.790005
v -0.517478 0.372457 1.051751
v -0.488692 0.222266 0.943221
v -0.722191 0.539070 1.082832
v -0.693196 0.367077 1.016660
v -0.661112 0.229566 0.915104
v -0.877941 0.539070 1.002320
v -0.838305 0.373188 0.941495
v -0.790004 0.253838 0.865427
v -0.626552 0.026394 0.452921
v -0.796578 0.102915 0.466428
v -0.452921 0.026394 0.626552
v -0.636478 0.057652 0.635473
v -0.792635 0.129890 0.642518
v -0.466428 0.102915 0.796578
v -0.643031 0.130272 0.792989
v -0.776503 0.181464 0.776503
v 1.000000 0.000000 0.449459
v 1.111799 0.539070 1.111799
v 1.005472 0.026384 0.625057
v 1.021352 0.102953 0.794410
v 1.046085 0.222213 0.940941
v 1.077251 0.372488 1.050306
v -1.111799 0.539070 -0.550021
v -0.449459 0.000000 -0.449459
v -0.550021 0.539070 -1.111799
v -1.051751 0.372457 -0.517478
v -0.943221 0.222266 -0.488692
v -1.082832 0.539070 -0.722191
v -1.016660 0.367077 -0.693196
v -0.915104 0.229566 -0.661112
v -1.002320 0.539070 -0.877941
v -0.941495 0.373188 -0.838305
v -0.865427 0.253838 -0.790004
v -0.452921 0.026394 -0.626552
v -0.466428 0.102915 -0.796578
v -0.626552 0.026394 -0.452921
v -0.635473 0.057652 -0.636478
v -0.642518 0.129890 -0.792635
v -0.796578 0.102915 -0.466428
v -0.792989 0.130272 -0.643031
v -0.776503 0.181464 -0.776503
v -0.722191 0.539070 -1.082832
v -0.877942 0.539070 -1.002320
v -0.517478 0.372457 -1.051751
v -0.694380 0.368041 -1.016840
v -0.838101 0.373615 -0.941976
v -0.488692 0.222266 -0.943221
v -0.661503 0.229291 -0.914651
v -0.790005 0.253838 -0.865427
v 1.111799 0.539070 -1.111799
v 1.000000 0.000000 -0.449459
v 1.077251 0.372488 -1.050306
v 1.046085 0.222213 -0.940941
v 1.021352 0.102953 -0.794410
v 1.005472 0.026384 -0.625057
v -0.711020 1.315369 1.272798
v -1.272798 1.315369 0.711020
v -0.884619 1.315369 1.245303
v -1.041225 1.315369 1.165508
v -1.165508 1.315369 1.041225
v -1.245303 1.315369 0.884619
v -1.272798 1.315369 -0.711020
v -0.711020 1.315369 -1.272798
v -1.245303 1.315369 -0.884619
v -1.165508 1.315369 -1.041225
v -1.041225 1.315369 -1.165508
v -0.884619 1.315369 -1.245303
vt 1.000000 0.000000
vt 0.250194 0.000000
vt 0.220686 0.000000
vt 1.000000 0.000000
vt 0.250194 1.000000
vt 1.000000 1.000000
vt 1.000000 1.000000
vt 0.220686 1.000000
vt 0.275271 0.275271
vt 1.000000 0.275271
vt 1.000000 0.724729
vt 0.275271 0.724729
vt 0.000000 0.250194
vt 0.000000 0.172223
vt 0.000000 0.172854
vt 0.000000 0.256293
vt 0.000000 0.101283
vt 0.000000 0.105516
vt 0.000000 0.000000
vt 0.000000 0.000000
vt 0.000000 0.178902
vt 0.000000 0.262549
vt 0.000000 0.118075
vt 0.000000 0.000000
vt 0.256293 0.000000
vt 0.173342 0.000000
vt 0.172223 0.000000
vt 0.262549 0.000000
vt 0.179111 0.000000
vt 0.266786 0.000000
vt 0.178484 0.000000
vt 0.105382 0.000000
vt 0.101283 0.000000
vt 0.118075 0.000000
vt 0.111748 0.000000
vt 0.186724 0.273540
vt 0.181761 0.182263
vt 0.273540 0.186724
vt 0.101711 0.266786
vt 0.103683 0.178741
vt 0.000000 0.255654
vt 0.000000 0.169249
vt 0.178484 0.103505
vt 0.266786 0.101711
vt 0.111748 0.111748
vt 0.000000 0.104998
vt 0.000000 0.749806
vt 0.000000 0.743707
vt 0.000000 0.826658
vt 0.000000 0.827777
vt 0.000000 0.737451
vt 0.000000 0.820889
vt 0.000000 0.733214
vt 0.000000 0.821516
vt 0.000000 0.894618
vt 0.000000 0.898717
vt 0.000000 0.881925
vt 0.000000 0.888252
vt 0.273540 0.813276
vt 0.182263 0.818239
vt 0.186724 0.726460
vt 0.266786 0.898289
vt 0.178741 0.896317
vt 0.255654 1.000000
vt 0.169249 1.000000
vt 0.103505 0.821516
vt 0.101711 0.733214
vt 0.111748 0.888252
vt 0.104998 1.000000
vt 0.172223 1.000000
vt 0.172854 1.000000
vt 0.256293 1.000000
vt 0.101283 1.000000
vt 0.105516 1.000000
vt 0.000000 1.000000
vt 0.000000 1.000000
vt 0.178902 1.000000
vt 0.262549 1.000000
vt 0.118075 1.000000
vt 0.000000 1.000000
vt 1.000490 0.000000
vt 1.001929 0.000000
vt 1.010676 0.102795
vt 1.002736 0.187471
vt 1.000490 1.000000
vt 1.001929 1.000000
vt 1.010676 0.897205
vt 1.002736 0.812529
vt 0.000000 0.779314
vt 0.000000 0.847726
vt 0.000000 0.910028
vt 0.089972 1.000000
vt 0.152274 1.000000
vt 0.000000 0.220686
vt 0.000000 0.152274
vt 0.000000 0.089972
vt 0.089972 0.000000
vt 0.152274 0.000000
vn -0.0002 0.2648 -0.9643
vn 0.0796 0.2877 -0.9544
vn 0.0879 0.2203 -0.9715
vn 0.0000 0.2031 -0.9792
vn 0.0796 0.2877 0.9544
vn -0.0002 0.2648 0.9643
vn 0.0000 0.2031 0.9792
vn 0.0879 0.2203 0.9715
vn 0.0743 0.9944 -0.0744
vn -0.0000 0.9972 -0.0749
vn -0.0000 0.9972 0.0749
vn 0.0743 0.9944 0.0744
vn 0.9546 0.2869 -0.0797
vn 0.9004 0.3182 -0.2966
vn 0.8194 0.4975 -0.2847
vn 0.8762 0.4758 -0.0770
vn 0.7610 0.3377 -0.5539
vn 0.6968 0.4968 -0.5173
vn 0.5537 0.3379 -0.7610
vn 0.5174 0.4972 -0.6965
vn 0.6752 0.6925 -0.2540
vn 0.7201 0.6903 -0.0693
vn 0.5970 0.6629 -0.4519
vn 0.4519 0.6628 -0.5970
vn 0.0764 0.4769 -0.8756
vn 0.2839 0.4982 -0.8192
vn 0.2967 0.3185 -0.9003
vn 0.0686 0.6908 -0.7198
vn 0.2536 0.6923 -0.6755
vn 0.0677 0.8524 -0.5184
vn 0.2498 0.8325 -0.4945
vn 0.4452 0.7768 -0.4453
vn 0.2775 0.9580 -0.0721
vn 0.2703 0.9243 -0.2695
vn 0.0722 0.9578 -0.2780
vn 0.5183 0.8525 -0.0678
vn 0.4943 0.8327 -0.2494
vn 0.9546 0.2869 0.0797
vn 0.8762 0.4757 0.0767
vn 0.8192 0.4982 0.2839
vn 0.9003 0.3185 0.2967
vn 0.7201 0.6905 0.0690
vn 0.6755 0.6923 0.2536
vn 0.5181 0.8526 0.0681
vn 0.4945 0.8325 0.2498
vn 0.6965 0.4972 0.5174
vn 0.7610 0.3379 0.5537
vn 0.5970 0.6628 0.4519
vn 0.4453 0.7768 0.4452
vn 0.0720 0.9579 0.2779
vn 0.2695 0.9243 0.2703
vn 0.2776 0.9579 0.0724
vn 0.0674 0.8524 0.5186
vn 0.2494 0.8327 0.4943
vn 0.0688 0.6906 0.7199
vn 0.2540 0.6925 0.6752
vn 0.4519 0.6629 0.5970
vn 0.2966 0.3182 0.9004
vn 0.2847 0.4975 0.8194
vn 0.0766 0.4771 0.8755
vn 0.5539 0.3377 0.7610
vn 0.5173 0.4968 0.6968
vn -0.0006 0.4554 -0.8903
vn -0.0009 0.6783 -0.7348
vn -0.0007 0.8461 -0.5330
vn -0.0003 0.9579 -0.2870
vn -0.0006 0.4554 0.8903
vn -0.0009 0.6783 0.7348
vn -0.0007 0.8461 0.5330
vn -0.0003 0.9579 0.2870
vn 0.9715 0.2203 0.0879
vn 0.9142 0.2568 0.3135
vn 0.7730 0.2817 0.5684
vn 0.5684 0.2817 0.7730
vn 0.3135 0.2568 0.9142
vn 0.9715 0.2203 -0.0879
vn 0.9142 0.2568 -0.3135
vn 0.7730 0.2817 -0.5684
vn 0.5684 0.2817 -0.7730
vn 0.3135 0.2568 -0.9142
usemtl None
s 1
f 31/1/1 4/2/2 69/3/3 1/4/4
f 38/5/5 63/6/6 2/7/7 76/8/8
f 5/9/9 30/10/10 64/11/11 37/12/12
f 3/13/13 6/14/14 9/15/15 8/16/16
f 6/14/14 7/17/17 10/18/18 9/15/15
f 7/17/17 19/19/19 20/20/20 10/18/18
f 8/16/16 9/15/15 12/21/21 11/22/22
f 9/15/15 10/18/18 13/23/23 12/21/21
f 10/18/18 20/20/20 21/24/24 13/23/23
f 4/2/2 14/25/25 17/26/26 16/27/27
f 14/25/25 15/28/28 18/29/29 17/26/26
f 15/28/28 27/30/30 28/31/31 18/29/29
f 16/27/27 17/26/26 20/32/20 19/33/19
f 17/26/26 18/29/29 21/34/24 20/32/20
f 18/29/29 28/31/31 29/35/32 21/34/24
f 5/9/9 22/36/33 25/37/34 24/38/35
f 22/36/33 23/39/36 26/40/37 25/37/34
f 23/39/36 11/41/22 12/42/21 26/40/37
f 24/38/35 25/37/34 28/43/31 27/44/30
f 25/37/34 26/40/37 29/45/32 28/43/31
f 26/40/37 12/42/21 13/46/23 29/45/32
f 13/23/23 21/34/24 29/45/32
f 36/47/38 39/48/39 42/49/40 41/50/41
f 39/48/39 40/51/42 43/52/43 42/49/40
f 40/51/42 52/53/44 53/54/45 43/52/43
f 41/50/41 42/49/40 45/55/46 44/56/47
f 42/49/40 43/52/43 46/57/48 45/55/46
f 43/52/43 53/54/45 54/58/49 46/57/48
f 37/12/12 47/59/50 50/60/51 49/61/52
f 47/59/50 48/62/53 51/63/54 50/60/51
f 48/62/53 60/64/55 61/65/56 51/63/54
f 49/61/52 50/60/51 53/66/45 52/67/44
f 50/60/51 51/63/54 54/68/49 53/66/45
f 51/63/54 61/65/56 62/69/57 54/68/49
f 38/5/5 55/70/58 58/71/59 57/72/60
f 55/70/58 56/73/61 59/74/62 58/71/59
f 56/73/61 44/75/47 45/76/46 59/74/62
f 57/72/60 58/71/59 61/77/56 60/78/55
f 58/71/59 59/74/62 62/79/57 61/77/56
f 59/74/62 45/76/46 46/80/48 62/79/57
f 46/57/48 54/68/49 62/79/57
f 36/47/38 3/13/13 8/16/16 39/48/39
f 39/48/39 8/16/16 11/22/22 40/51/42
f 40/51/42 11/22/22 23/39/36 52/67/44
f 52/67/44 23/39/36 22/36/33 49/61/52
f 49/61/52 22/36/33 5/9/9 37/12/12
f 4/2/2 31/1/1 35/81/63 14/25/25
f 14/25/25 35/81/63 34/82/64 15/28/28
f 15/28/28 34/82/64 33/83/65 27/44/30
f 27/44/30 33/83/65 32/84/66 24/38/35
f 24/38/35 32/84/66 30/10/10 5/9/9
f 63/6/6 38/5/5 57/72/60 65/85/67
f 65/85/67 57/72/60 60/78/55 66/86/68
f 66/86/68 60/78/55 48/62/53 67/87/69
f 67/87/69 48/62/53 47/59/50 68/88/70
f 68/88/70 47/59/50 37/12/12 64/11/11
f 75/89/71 36/47/38 41/50/41 77/90/72
f 77/90/72 41/50/41 44/56/47 78/91/73
f 78/91/73 44/56/47 56/73/61 79/92/74
f 79/92/74 56/73/61 55/70/58 80/93/75
f 80/93/75 55/70/58 38/5/5 76/8/8
f 3/13/13 70/94/76 74/95/77 6/14/14
f 6/14/14 74/95/77 73/96/78 7/17/17
f 7/17/17 73/96/78 72/97/79 19/33/19
f 19/33/19 72/97/79 71/98/80 16/27/27
f 16/27/27 71/98/80 69/3/3 4/2/2
f 3/13/13 36/47/38 75/89/71 70/94/76
