# Blender v3.0.0 OBJ File: 'uv_leaf.blend'
# www.blender.org
mtllib Berry.mtl
o Berry
v 0.020912 0.756781 -0.669109
v 0.014862 0.738220 -0.654804
v 0.001333 0.737083 -0.650558
v -0.014507 0.753802 -0.657992
v 0.001333 0.733401 -0.636817
v -0.014507 0.744163 -0.622019
v 0.014862 0.732263 -0.632571
v 0.020912 0.741184 -0.610902
v 0.023223 0.735242 -0.643687
v 0.042803 0.748982 -0.640006
v 0.023223 0.780854 -0.670022
v -0.020558 0.777173 -0.656281
v -0.020558 0.765258 -0.611815
v 0.023223 0.761576 -0.598075
v 0.050282 0.771215 -0.634048
v 0.020912 0.801246 -0.657194
v -0.014507 0.798268 -0.646078
v -0.014507 0.788629 -0.610104
v 0.020912 0.785650 -0.598988
v 0.042803 0.793448 -0.628091
v 0.014862 0.810168 -0.635526
v 0.004099 0.812589 -0.630513
v 0.004099 0.806575 -0.619078
v 0.015718 0.806006 -0.616955
v 0.023223 0.807189 -0.624409
v 0.011123 0.733390 -0.644183
v 0.015302 0.810775 -0.629335
v -0.018567 0.721337 -0.625102
v -0.034408 0.704618 -0.617667
v -0.047937 0.705756 -0.621913
v -0.053987 0.724316 -0.636218
v -0.056298 0.702777 -0.610797
v -0.075878 0.716518 -0.607115
v -0.047937 0.699799 -0.599680
v -0.053987 0.708720 -0.578012
v -0.034408 0.700936 -0.603926
v -0.018567 0.711698 -0.589128
v -0.012517 0.744708 -0.623390
v -0.056298 0.748390 -0.637131
v -0.083357 0.738751 -0.601158
v -0.056298 0.729112 -0.565184
v -0.012517 0.732794 -0.578925
v -0.018567 0.765803 -0.613187
v -0.053987 0.768782 -0.624304
v -0.075878 0.760984 -0.595200
v -0.053987 0.753186 -0.566097
v -0.018567 0.756164 -0.577213
v -0.035387 0.777824 -0.597770
v -0.047006 0.778393 -0.599893
v -0.056298 0.774725 -0.591518
v -0.047937 0.771746 -0.580402
v -0.035387 0.776723 -0.586327
v -0.044197 0.700926 -0.611293
v -0.045136 0.775183 -0.589514
v -0.039639 0.770327 -0.683175
v -0.045690 0.751767 -0.668870
v -0.059219 0.750629 -0.664624
v -0.075059 0.767348 -0.672058
v -0.059219 0.746947 -0.650883
v -0.075059 0.757709 -0.636085
v -0.045690 0.745809 -0.646637
v -0.039639 0.754730 -0.624968
v -0.037328 0.748788 -0.657753
v -0.017749 0.762528 -0.654071
v -0.037328 0.794400 -0.684088
v -0.081110 0.790719 -0.670347
v -0.081110 0.778804 -0.625881
v -0.037328 0.775122 -0.612141
v -0.010270 0.784761 -0.648114
v -0.039639 0.814792 -0.671260
v -0.075059 0.811814 -0.660144
v -0.075059 0.802175 -0.624170
v -0.039639 0.799196 -0.613054
v -0.017749 0.806994 -0.642157
v -0.045690 0.823714 -0.649592
v -0.059219 0.822576 -0.645345
v -0.055804 0.819588 -0.630701
v -0.044185 0.819020 -0.628578
v -0.040400 0.819960 -0.633445
v -0.037328 0.820735 -0.638475
v -0.049429 0.746936 -0.658249
v -0.050169 0.822729 -0.638226
v -0.029565 0.837593 -0.568926
v -0.019857 0.837593 -0.568926
v -0.019857 0.851323 -0.555197
v -0.022651 0.851323 -0.555197
v -0.022235 0.860601 -0.463005
v -0.020401 0.860601 -0.463005
v -0.017216 0.865107 -0.467510
v -0.026773 0.865107 -0.467510
v -0.020401 0.869612 -0.472015
v -0.024446 0.869612 -0.472016
v -0.016112 0.869612 -0.472015
v -0.026019 0.865052 -0.568926
v -0.019857 0.865052 -0.568926
v -0.019857 0.851323 -0.582655
v -0.029565 0.851323 -0.582655
v -0.013321 0.865052 -0.568926
v -0.010149 0.851323 -0.582655
v -0.015003 0.844458 -0.575790
v -0.015003 0.858187 -0.562061
v -0.029565 0.844458 -0.575790
v -0.029565 0.858187 -0.562061
v 0.033180 0.810152 -0.645077
v 0.043327 0.805203 -0.613592
v 0.010661 0.825854 -0.655472
v 0.052575 0.808620 -0.667810
v 0.064798 0.799768 -0.644061
v 0.045422 0.821458 -0.680894
v 0.066947 0.806138 -0.682698
v -0.067296 0.828637 -0.650601
v -0.040450 0.836704 -0.659924
v -0.084433 0.836158 -0.627162
v -0.080909 0.822644 -0.670101
v -0.054256 0.849695 -0.689580
v -0.106792 0.832024 -0.643645
v -0.097059 0.819221 -0.696355
v -0.080217 0.837946 -0.717617
v -0.113423 0.832585 -0.684967
v -0.102946 0.823543 -0.722566
v -0.036367 0.767065 -0.558692
v -0.060971 0.769288 -0.573794
v -0.075867 0.789219 -0.590709
v -0.050671 0.745975 -0.544624
v -0.069983 0.748489 -0.566961
v -0.095632 0.771449 -0.579196
v -0.095692 0.735271 -0.550533
v -0.020402 0.861155 -0.529905
v -0.022236 0.861155 -0.529905
v -0.017216 0.865661 -0.534410
v -0.026773 0.865661 -0.534410
v -0.024446 0.870166 -0.538916
v -0.020402 0.870166 -0.538916
v -0.016112 0.870166 -0.538916
v 0.004801 0.730283 -0.658945
v 0.022342 0.729452 -0.653677
v 0.022572 0.724637 -0.637917
v 0.006816 0.723779 -0.633037
v -0.003929 0.725049 -0.646419
v -0.053827 0.743685 -0.673134
v -0.037796 0.742086 -0.668299
v -0.063968 0.739589 -0.660218
v -0.054100 0.734752 -0.646632
v -0.038248 0.738876 -0.651999
v -0.039864 0.698030 -0.625875
v -0.030318 0.694855 -0.612920
v -0.055579 0.696629 -0.621005
v -0.056128 0.690931 -0.604997
v -0.039644 0.689571 -0.599828
vt 0.564456 0.610996
vt 0.601195 0.597165
vt 0.601195 0.630222
vt 0.813144 0.401763
vt 0.813144 0.435519
vt 0.780422 0.427233
vt 0.564665 0.678232
vt 0.598196 0.667381
vt 0.598196 0.702624
vt 0.779675 0.435519
vt 0.752589 0.414786
vt 0.779675 0.394053
vt 0.598828 0.435665
vt 0.564456 0.414932
vt 0.598828 0.394197
vt 0.564456 0.642530
vt 0.598196 0.630968
vt 0.598196 0.666634
vt 0.564456 0.572828
vt 0.598561 0.559968
vt 0.598561 0.596418
vt 0.595476 0.559222
vt 0.564456 0.538487
vt 0.595476 0.517755
vt 0.564456 0.372222
vt 0.600075 0.352957
vt 0.600075 0.393451
vt 0.840224 0.435519
vt 0.813890 0.414786
vt 0.840224 0.394053
vt 0.597840 0.738917
vt 0.597840 0.773473
vt 0.564665 0.763793
vt 0.597840 0.774220
vt 0.597840 0.808038
vt 0.565082 0.799646
vt 0.597967 0.703371
vt 0.597967 0.738171
vt 0.564665 0.728074
vt 0.596838 0.477877
vt 0.564456 0.457145
vt 0.596838 0.436411
vt 0.599350 0.478623
vt 0.599350 0.517008
vt 0.564456 0.501024
vt 0.211262 0.140247
vt 0.278021 0.163231
vt 0.280704 0.215093
vt 0.203078 0.219600
vt 0.305249 0.266082
vt 0.227747 0.339388
vt 0.306064 0.759291
vt 0.305995 0.677338
vt 0.348351 0.654396
vt 0.396521 0.701865
vt 0.370884 0.614070
vt 0.449469 0.615165
vt 0.253605 0.033435
vt 0.305249 0.114006
vt 0.161724 0.131832
vt 0.149323 0.220442
vt 0.132412 0.351936
vt 0.346308 0.830237
vt 0.434070 0.742826
vt 0.520278 0.650902
vt 0.165420 0.000373
vt 0.109853 0.130599
vt 0.099077 0.208951
vt 0.048205 0.311453
vt 0.416910 0.872299
vt 0.473828 0.780781
vt 0.563677 0.721643
vt 0.079869 0.027826
vt 0.045459 0.138312
vt 0.029008 0.173365
vt 0.000373 0.210356
vt 0.516977 0.867774
vt 0.533723 0.831175
vt 0.563677 0.807899
vt 0.017540 0.098103
vt 0.882160 0.357272
vt 0.842351 0.370205
vt 0.853353 0.336341
vt 0.882160 0.315413
vt 0.842351 0.302478
vt 0.817749 0.336341
vt 0.025766 0.133605
vt 0.753828 0.872839
vt 0.669697 0.871353
vt 0.653983 0.828373
vt 0.700560 0.783118
vt 0.610565 0.811336
vt 0.610035 0.725101
vt 0.561502 0.035311
vt 0.609288 0.113732
vt 0.582092 0.160358
vt 0.517180 0.137691
vt 0.584767 0.210438
vt 0.511179 0.217735
vt 0.609288 0.257270
vt 0.539360 0.327441
vt 0.828187 0.836078
vt 0.737518 0.742446
vt 0.652339 0.654145
vt 0.477965 0.000373
vt 0.466183 0.126382
vt 0.459552 0.215642
vt 0.450044 0.352211
vt 0.867319 0.762867
vt 0.779378 0.706951
vt 0.724774 0.614426
vt 0.388097 0.017464
vt 0.416258 0.126428
vt 0.407768 0.205102
vt 0.359728 0.314560
vt 0.867319 0.672791
vt 0.832818 0.655789
vt 0.811018 0.618186
vt 0.321818 0.093051
vt 0.352029 0.134135
vt 0.327412 0.178782
vt 0.305995 0.221589
vt 0.892667 0.819651
vt 0.932475 0.832586
vt 0.903671 0.853514
vt 0.868065 0.853514
vt 0.892666 0.887379
vt 0.932475 0.874445
vt 0.848604 0.622595
vt 0.317561 0.139318
vt 0.198403 0.568816
vt 0.276968 0.556647
vt 0.296437 0.615171
vt 0.224598 0.691654
vt 0.451173 0.613323
vt 0.371017 0.612984
vt 0.348788 0.571441
vt 0.396211 0.525508
vt 0.305995 0.554214
vt 0.306474 0.469591
vt 0.239153 0.387218
vt 0.296437 0.463051
vt 0.267271 0.504054
vt 0.199979 0.488088
vt 0.145901 0.571290
vt 0.123856 0.709107
vt 0.525635 0.575863
vt 0.435377 0.485952
vt 0.344875 0.395387
vt 0.155853 0.352682
vt 0.148847 0.484653
vt 0.095993 0.563325
vt 0.040576 0.660699
vt 0.563709 0.501787
vt 0.474520 0.446519
vt 0.419818 0.357967
vt 0.064669 0.378560
vt 0.099143 0.487186
vt 0.040591 0.543218
vt 0.005402 0.575685
vt 0.563709 0.417686
vt 0.521003 0.389954
vt 0.506030 0.352957
vt 0.021331 0.489595
vt 0.008944 0.467265
vt 0.037950 0.502779
vt 0.777194 0.302478
vt 0.817003 0.315412
vt 0.788195 0.336344
vt 0.752589 0.336342
vt 0.777193 0.370205
vt 0.817003 0.357273
vt 0.000373 0.529184
vt 0.552700 0.381057
vt 0.641638 0.375966
vt 0.610035 0.369154
vt 0.622204 0.306555
vt 0.630831 0.308379
vt 0.654190 0.036967
vt 0.649000 0.036806
vt 0.640544 0.018498
vt 0.667588 0.019333
vt 0.650113 0.000748
vt 0.661559 0.001099
vt 0.637976 0.000373
vt 0.683982 0.319670
vt 0.693479 0.319018
vt 0.693761 0.343213
vt 0.683756 0.345985
vt 0.703536 0.319526
vt 0.702594 0.341244
vt 0.720912 0.364573
vt 0.722016 0.314223
vt 0.671348 0.365795
vt 0.661037 0.316428
vt 0.968100 0.818905
vt 0.941533 0.809160
vt 0.933307 0.614426
vt 0.964349 0.626366
vt 0.911400 0.818809
vt 0.898937 0.632195
vt 0.868065 0.647526
vt 0.999627 0.816230
vt 0.999627 0.639550
vt 0.278455 0.901669
vt 0.251783 0.911122
vt 0.250099 0.727113
vt 0.277890 0.709853
vt 0.223007 0.924276
vt 0.233167 0.733730
vt 0.186072 0.903358
vt 0.205825 0.712741
vt 0.305238 0.910813
vt 0.305238 0.719175
vt 0.712853 0.604419
vt 0.679063 0.613680
vt 0.751843 0.372829
vt 0.751843 0.597436
vt 0.642994 0.611370
vt 0.612423 0.596138
vt 0.959116 0.475279
vt 0.959116 0.556050
vt 0.869763 0.516467
vt 0.921046 0.469338
vt 0.838717 0.436483
vt 0.922967 0.436265
vt 0.866236 0.613680
vt 0.798523 0.567743
vt 0.755138 0.530542
vt 0.752589 0.607195
vt 0.775883 0.301732
vt 0.752589 0.215969
vt 0.840815 0.227663
vt 0.798492 0.279317
vt 0.913023 0.283660
vt 0.818417 0.299014
vt 0.753690 0.112921
vt 0.870360 0.159327
vt 0.962244 0.221388
vt 0.824300 0.021445
vt 0.899250 0.076463
vt 0.962244 0.099999
vt 0.904349 0.000373
vt 0.029192 0.741568
vt 0.079162 0.791822
vt 0.003176 0.835174
vt 0.000373 0.749660
vt 0.033325 0.709853
vt 0.127781 0.714044
vt 0.114546 0.851241
vt 0.050581 0.904202
vt 0.185326 0.776409
vt 0.185326 0.912235
vt 0.750725 0.306475
vt 0.643160 0.226116
vt 0.648358 0.226812
vt 0.716608 0.240321
vt 0.732944 0.228139
vt 0.666830 0.239896
vt 0.681660 0.251376
vt 0.692025 0.251395
vt 0.703004 0.251616
vt 0.721971 0.050863
vt 0.737869 0.038384
vt 0.671041 0.049771
vt 0.684793 0.062805
vt 0.696294 0.063073
vt 0.708612 0.063378
vn -0.2687 0.6908 -0.6712
vn 0.7240 0.5672 -0.3926
vn 0.7240 0.2948 0.6236
vn -0.2765 0.2108 0.9376
vn -0.8949 0.4310 0.1155
vn -0.2766 0.6513 -0.7067
vn 0.2766 0.6513 -0.7066
vn 0.8949 0.4311 0.1155
vn -0.7240 0.5672 -0.3926
vn -0.7240 0.2949 0.6235
vn 0.2766 0.2107 0.9376
vn 0.2737 -0.2307 -0.9338
vn 0.1816 -0.6368 -0.7494
vn -0.4755 -0.6920 -0.5431
vn -0.7165 -0.3139 -0.6230
vn -0.4755 -0.8709 0.1243
vn -0.7165 -0.5834 0.3826
vn 0.1816 -0.9261 0.3306
vn 0.2737 -0.6666 0.6933
vn 0.5878 -0.7815 -0.2094
vn 0.8856 -0.4487 -0.1202
vn 0.3090 0.2462 -0.9187
vn -0.8090 0.1521 -0.5678
vn -0.8090 -0.1521 0.5678
vn 0.3090 -0.2462 0.9187
vn 1.0000 0.0000 0.0000
vn 0.2756 0.6607 -0.6982
vn -0.7184 0.5898 -0.3688
vn -0.7079 0.3326 0.6231
vn 0.2633 0.2414 0.9340
vn 0.8855 0.4491 0.1188
vn 0.1750 0.9149 -0.3638
vn -0.5219 0.7784 -0.3490
vn -0.8116 0.2277 0.5379
vn 0.5054 0.4502 0.7361
vn 0.5801 0.7843 0.2200
vn -0.1266 -0.9302 -0.3445
vn 0.0483 -0.9155 -0.3993
vn 0.0000 -0.9659 -0.2588
vn -0.1266 -0.9778 -0.1668
vn 0.0484 -0.9925 -0.1119
vn 0.1565 -0.9540 -0.2556
vn 0.3338 0.9355 -0.1156
vn 0.7165 -0.3139 -0.6230
vn 0.4755 -0.6920 -0.5431
vn -0.1816 -0.6368 -0.7494
vn -0.2737 -0.2307 -0.9338
vn -0.5878 -0.7815 -0.2094
vn -0.8856 -0.4486 -0.1202
vn -0.1817 -0.9261 0.3306
vn -0.2737 -0.6666 0.6933
vn 0.4755 -0.8709 0.1243
vn 0.7165 -0.5834 0.3826
vn 0.8090 0.1521 -0.5678
vn -0.3090 0.2462 -0.9187
vn -1.0000 -0.0000 -0.0000
vn -0.3090 -0.2462 0.9187
vn 0.8090 -0.1521 0.5678
vn 0.7163 0.5823 -0.3844
vn -0.2738 0.6687 -0.6913
vn -0.8838 0.4525 0.1188
vn -0.2680 0.2340 0.9346
vn 0.7118 0.3174 0.6266
vn 0.5999 0.6099 -0.5178
vn -0.3880 0.7731 -0.5018
vn -0.5638 0.8036 0.1907
vn -0.1414 0.6407 0.7546
vn 0.6265 0.2169 0.7486
vn -0.0483 -0.9155 -0.3994
vn 0.1265 -0.9302 -0.3445
vn -0.1564 -0.9540 -0.2556
vn -0.0484 -0.9925 -0.1119
vn 0.1265 -0.9778 -0.1668
vn -0.1460 0.9412 0.3046
vn -0.7164 -0.5834 0.3826
vn 0.3090 0.2461 -0.9186
vn 0.3090 -0.2461 0.9186
vn 0.2737 0.6666 -0.6933
vn -0.7158 0.5912 -0.3715
vn -0.7158 0.3250 0.6181
vn 0.2703 0.2266 0.9357
vn 0.8885 0.4440 0.1163
vn 0.1756 0.9358 -0.3057
vn -0.4686 0.8809 -0.0661
vn -0.6388 0.4971 0.5872
vn 0.4481 -0.1936 0.8727
vn 0.6671 0.7437 0.0438
vn 0.5826 0.7883 0.1978
vn 0.0484 -0.9155 -0.3994
vn 0.1565 -0.9540 -0.2557
vn -0.0294 0.9870 0.1580
vn -0.7512 -0.0776 0.6555
vn 0.7279 -0.4129 0.5474
vn 0.7345 -0.5599 0.3835
vn -0.6786 -0.5930 0.4335
vn -0.5530 -0.8270 0.1015
vn 0.6211 -0.7751 0.1159
vn 0.8865 -0.4585 0.0622
vn -0.8850 -0.4623 0.0561
vn 0.0000 0.9964 0.0843
vn -0.6318 0.7728 0.0599
vn 0.9237 0.3824 0.0208
vn -0.6115 0.7238 -0.3197
vn 0.0000 0.8903 -0.4554
vn 0.0019 0.4941 -0.8694
vn -0.4383 0.8314 -0.3416
vn 0.7942 0.5740 -0.1995
vn 0.7276 0.6613 -0.1824
vn 0.7661 -0.6243 -0.1529
vn 0.9441 -0.2451 0.2205
vn -0.9432 -0.1330 -0.3045
vn -0.9918 0.0493 0.1182
vn 0.7042 0.6939 -0.1501
vn -0.4255 0.8639 -0.2696
vn -0.7997 0.0140 0.6002
vn 0.0840 0.9770 0.1962
vn 0.2164 0.9651 0.1477
vn 0.3273 0.9067 0.2660
vn 0.1872 0.9292 0.3186
vn 0.3883 0.8207 0.4192
vn 0.2910 0.8502 0.4388
vn 0.3093 0.9438 0.1166
vn 0.4005 0.8724 0.2802
vn 0.4602 0.7897 0.4058
vn 0.4386 0.8536 0.2811
vn -0.0584 0.8510 0.5219
vn -0.3084 0.8692 0.3866
vn -0.0913 0.9890 0.1159
vn 0.1141 0.9038 0.4125
vn 0.1127 0.9723 -0.2048
vn 0.4072 0.8969 0.1726
vn -0.5080 0.8140 0.2815
vn -0.1876 0.9805 0.0586
vn 0.1713 0.9551 -0.2419
vn -0.5838 0.7749 0.2422
vn -0.1744 0.9792 0.1035
vn 0.3852 0.9115 -0.1438
vn -0.2431 0.9468 0.2107
vn 0.1296 0.9073 0.4000
vn -0.1601 0.6899 0.7060
vn -0.3919 0.7331 0.5558
vn -0.1345 0.9481 0.2880
vn 0.3514 0.8095 0.4704
vn 0.0523 0.6317 0.7734
vn -0.2067 0.6800 0.7035
vn -0.4375 0.6905 0.5760
vn -0.0284 0.5277 0.8490
vn 0.0125 0.7694 0.6386
vn 0.7169 -0.6943 0.0639
vn -0.6230 -0.7791 0.0699
vn 0.9350 -0.3488 0.0644
vn -0.9951 -0.0698 0.0706
vn -0.5547 0.8310 -0.0417
vn 0.0000 0.9984 -0.0562
vn 0.7442 0.6679 0.0084
usemtl initialShadingGroup.002
s off
f 2/1/1 135/2/1 3/3/1
f 9/4/2 136/5/2 2/6/2
f 7/7/3 137/8/3 9/9/3
f 5/10/4 138/11/4 7/12/4
f 3/13/5 139/14/5 5/15/5
f 56/16/6 140/17/6 57/18/6
f 63/19/2 141/20/2 56/21/2
f 57/22/5 142/23/5 59/24/5
f 59/25/4 143/26/4 61/27/4
f 61/28/3 144/29/3 63/30/3
f 29/31/7 145/32/7 30/33/7
f 36/34/8 146/35/8 29/36/8
f 30/37/9 147/38/9 32/39/9
f 32/40/10 148/41/10 34/42/10
f 34/43/11 149/44/11 36/45/11
s 1
f 1/46/12 2/47/13 3/48/14 4/49/15
f 4/49/15 3/48/14 5/50/16 6/51/17
f 6/52/17 5/53/16 7/54/18 8/55/19
f 8/55/19 7/54/18 9/56/20 10/57/21
f 10/58/21 9/59/20 2/47/13 1/46/12
f 11/60/22 1/46/12 4/49/15 12/61/23
f 12/61/23 4/49/15 6/51/17 13/62/24
f 13/63/24 6/52/17 8/55/19 14/64/25
f 14/64/25 8/55/19 10/57/21 15/65/26
f 15/66/26 10/58/21 1/46/12 11/60/22
f 16/67/27 11/60/22 12/61/23 17/68/28
f 17/68/28 12/61/23 13/62/24 18/69/29
f 18/70/29 13/63/24 14/64/25 19/71/30
f 19/71/30 14/64/25 15/65/26 20/72/31
f 20/73/31 15/66/26 11/60/22 16/67/27
f 21/74/32 16/67/27 17/68/28 22/75/33
f 22/75/33 17/68/28 18/69/29 23/76/34
f 23/77/34 18/70/29 19/71/30 24/78/35
f 24/78/35 19/71/30 20/72/31 25/79/36
f 25/80/36 20/73/31 16/67/27 21/74/32
f 3/81/37 2/82/38 26/83/39
f 5/84/40 3/81/37 26/83/39
f 7/85/41 5/84/40 26/83/39
f 9/86/42 7/85/41 26/83/39
f 2/82/38 9/86/42 26/83/39
f 27/87/43 21/74/32 22/75/33
f 27/87/43 25/80/36 21/74/32
f 28/88/44 29/89/45 30/90/46 31/91/47
f 31/91/47 30/90/46 32/92/48 33/93/49
f 33/94/49 32/95/48 34/96/50 35/97/51
f 35/97/51 34/96/50 36/98/52 37/99/53
f 37/99/53 36/98/52 29/100/45 28/101/44
f 38/102/54 28/88/44 31/91/47 39/103/55
f 39/103/55 31/91/47 33/93/49 40/104/56
f 40/105/56 33/94/49 35/97/51 41/106/57
f 41/106/57 35/97/51 37/99/53 42/107/58
f 42/107/58 37/99/53 28/101/44 38/108/54
f 43/109/59 38/102/54 39/103/55 44/110/60
f 44/110/60 39/103/55 40/104/56 45/111/61
f 45/112/61 40/105/56 41/106/57 46/113/62
f 46/113/62 41/106/57 42/107/58 47/114/63
f 47/114/63 42/107/58 38/108/54 43/115/59
f 48/116/64 43/109/59 44/110/60 49/117/65
f 49/117/65 44/110/60 45/111/61 50/118/66
f 50/119/66 45/112/61 46/113/62 51/120/67
f 51/120/67 46/113/62 47/114/63 52/121/68
f 52/121/68 47/114/63 43/115/59 48/122/64
f 30/123/69 29/124/70 53/125/39
f 32/126/71 30/123/69 53/125/39
f 34/127/72 32/126/71 53/125/39
f 36/128/73 34/127/72 53/125/39
f 29/124/70 36/128/73 53/125/39
f 54/129/74 49/117/65 50/118/66
f 54/130/74 50/119/66 51/120/67
f 54/130/74 51/120/67 52/121/68
f 55/131/12 56/132/13 57/133/14 58/134/15
f 58/135/15 57/136/14 59/137/16 60/138/75
f 60/138/75 59/137/16 61/139/18 62/140/19
f 62/141/19 61/142/18 63/143/20 64/144/21
f 64/144/21 63/143/20 56/132/13 55/131/12
f 65/145/76 55/131/12 58/134/15 66/146/23
f 66/147/23 58/135/15 60/138/75 67/148/24
f 67/148/24 60/138/75 62/140/19 68/149/77
f 68/150/77 62/141/19 64/144/21 69/151/26
f 69/151/26 64/144/21 55/131/12 65/145/76
f 70/152/78 65/145/76 66/146/23 71/153/79
f 71/154/79 66/147/23 67/148/24 72/155/80
f 72/155/80 67/148/24 68/149/77 73/156/81
f 73/157/81 68/150/77 69/151/26 74/158/82
f 74/158/82 69/151/26 65/145/76 70/152/78
f 75/159/83 70/152/78 71/153/79 76/160/84
f 76/161/84 71/154/79 72/155/80 77/162/85
f 77/162/85 72/155/80 73/156/81 78/163/86
f 79/164/87 78/165/86 73/157/81 74/158/82 80/166/88
f 80/166/88 74/158/82 70/152/78 75/159/83
f 57/167/37 56/168/89 81/169/39
f 59/170/40 57/167/37 81/169/39
f 61/171/41 59/170/40 81/169/39
f 63/172/90 61/171/41 81/169/39
f 56/168/89 63/172/90 81/169/39
f 82/173/91 75/159/83 76/160/84
f 82/174/91 76/161/84 77/162/85
f 79/164/87 80/166/88 82/173/91
f 82/173/91 80/166/88 75/159/83
f 83/175/92 84/176/93 85/177/94 86/178/95
f 87/179/96 88/180/97 89/181/98 90/182/99
f 90/182/99 89/181/98 91/183/100 92/184/101
f 89/181/98 93/185/102 91/183/100
f 94/186/103 95/187/104 96/188/105 97/189/106
f 95/187/104 98/190/107 99/191/108 96/188/105
f 100/192/109 99/191/108 98/190/107 101/193/110
f 97/189/106 102/194/111 103/195/112 94/186/103
f 102/194/111 83/175/92 86/178/95 103/195/112
f 96/196/105 99/197/108 27/198/113 22/199/33
f 99/197/108 100/200/109 24/201/35 27/198/113
f 100/200/109 23/202/34 24/201/35
f 100/203/109 96/196/105 22/199/33 23/204/34
f 97/205/106 96/206/105 79/207/87 82/208/114
f 96/206/105 100/209/109 78/210/86 79/207/87
f 100/209/109 102/211/111 77/212/85 78/210/86
f 102/213/111 97/205/106 82/208/114 77/214/85
f 102/194/111 100/192/109 48/215/64 49/216/65
f 100/192/109 84/217/93 52/218/68 48/215/64
f 84/176/93 83/175/92 54/219/115 52/220/68
f 83/175/92 102/194/111 49/216/65 54/219/115
f 24/221/116 105/222/117 104/223/118 27/224/119
f 27/224/119 104/223/118 106/225/120 22/226/121
f 105/222/117 108/227/122 107/228/123 104/223/118
f 104/223/118 107/228/123 109/229/124 106/225/120
f 107/228/123 110/230/125 109/229/124
f 108/227/122 110/230/125 107/228/123
f 79/231/126 112/232/127 111/233/128 82/234/129
f 82/234/129 111/233/128 113/235/130 77/236/131
f 112/232/127 115/237/132 114/238/133 111/233/128
f 111/233/128 114/238/133 116/239/134 113/235/130
f 115/237/132 118/240/135 117/241/136 114/238/133
f 114/238/133 117/241/136 119/242/137 116/239/134
f 117/241/136 120/243/138 119/242/137
f 118/240/135 120/243/138 117/241/136
f 54/244/139 122/245/140 121/246/141 52/247/142
f 49/248/143 123/249/144 122/245/140 54/244/139
f 122/245/140 125/250/145 124/251/146 121/246/141
f 123/249/144 126/252/147 125/250/145 122/245/140
f 125/250/145 127/253/148 124/251/146
f 126/252/147 127/253/148 125/250/145
f 85/254/94 84/217/93 100/192/109 101/193/110
f 86/178/95 85/177/94 128/255/149 129/256/150
f 85/254/94 101/193/110 130/257/151 128/258/149
f 103/195/112 86/178/95 129/256/150 131/259/152
f 95/187/104 94/186/103 132/260/153 133/261/154
f 94/186/103 103/195/112 131/259/152 132/260/153
f 101/193/110 98/190/107 134/262/155 130/257/151
f 98/190/107 95/187/104 133/261/154 134/262/155
f 129/256/150 128/255/149 88/180/97 87/179/96
f 128/258/149 130/257/151 89/263/98 88/264/97
f 131/259/152 129/256/150 87/179/96 90/265/99
f 133/261/154 132/260/153 92/266/101 91/267/100
f 132/260/153 131/259/152 90/265/99 92/266/101
f 130/257/151 134/262/155 93/268/102 89/263/98
f 134/262/155 133/261/154 91/267/100 93/268/102
