# File exported by Houdini 19.0.498 (www.sidefx.com)
# 47 points
# 204 vertices
# 57 primitives
# Bounds: [-0.150192797, -0.40614301, -7.56565809] to [5.32936525, 4.71090651, -2.78598285]
g 
v -0.150192797 -0.374651045 -2.78598285
v 0.076072 -0.28064099 -3.99886107
v 1.18604815 0.3125121 -3.72088647
v 0.267121941 0.104614265 -2.9728806
v 0.305337995 -0.384727001 -4.84883308
v 0.509379029 -0.400465012 -5.6779418
v 2.597682 0.366733998 -4.67351198
v 0.930948079 0.361039847 -4.52063036
v 1.40144002 0.366733998 -5.30699205
v 1.49448705 0.408181995 -6.18050623
v 3.46214795 0.408181995 -5.30142498
v 0.974693 -0.345845014 -6.30819082
v 1.04748881 0.384474248 -6.99533415
v 0.766801238 0.0168931372 -7.14951515
v 4.20496845 0.383960754 -5.12753534
v 1.5642029 -0.338236868 -3.63553047
v 3.08801007 -0.374706 -4.15444803
v 3.87139511 -0.398622006 -4.36294889
v 4.55936098 -0.40614301 -4.28407478
v 4.92183161 0.58532232 -4.71585751
v 5.32936525 -0.368139356 -4.15883398
v 4.51029682 0.551927447 -5.20761919
v 4.65776682 0.471333116 -5.53375435
v 4.67892361 0.0635025203 -5.52637911
v 4.82008123 -0.0157834981 -5.90326595
v 4.81797695 -0.384450853 -5.97927999
v 0.809839189 -0.0196964536 -7.52298212
v 0.895961106 -0.370977402 -7.56565809
v 0.598590016 -0.391312987 -7.09074593
v 5.08885098 0.491840005 -5.31180191
v 4.94609594 0.614058673 -4.98653889
v 5.1986289 0.048031155 -5.60797739
v 5.2775712 -0.323461711 -5.83049631
v 5.01315022 -0.395709634 -4.96421385
v 4.352355 1.96921015 -5.01851368
v 4.11460781 2.24442101 -4.65303421
v 4.2055378 3.97622538 -4.67677116
v 4.35184574 3.97641492 -5.01186085
v 4.36789942 4.60017014 -5.06145573
v 4.3942585 4.45407152 -4.69603395
v 4.71387672 1.43897963 -4.83020544
v 4.78507519 2.12379742 -4.91289902
v 4.67463017 3.96944141 -4.84430695
v 4.67536545 4.71090651 -4.87317181
v 4.70030212 2.08599997 -4.67020893
v 4.56511354 2.10805082 -4.42099047
v 4.52127981 3.9664948 -4.53803492
vt 0.538206935 0.381106257 0
vt 0.649601519 0.317917198 0
vt 0.719480336 0.37383762 0
vt 0.000186653444 0.564755023 0
vt 0.0871670023 0.560544014 0
vt 0.0756359994 0.654223979 0
vt 0.800853014 0.213177994 0
vt 0.817380011 0.358646005 0
vt 0.0836706534 0.783223093 0
vt 0.0288277585 0.746026456 0
vt 0.731293976 0.451041013 0
vt 0.822830975 0.463238001 0
vt 0.89796102 0.150921002 0
vt 0.908755004 0.383765012 0
vt 0.324386001 0.658797026 0
vt 0.330844015 0.572924018 0
vt 0.413489997 0.560544014 0
vt 0.413489997 0.650721014 0
vt 0.973392546 0.460623711 0
vt 0.267879993 0.640901029 0
vt 0.190898001 0.701364994 0
vt 0.18737267 0.612223566 0
vt 0.224004224 0.576699317 0
vt 0.909210026 0.0692035183 0
vt 0.766152918 0.47253713 0
vt 0.763515592 0.676207364 0
vt 0.688512444 0.647236109 0
vt 0.714123607 0.520045817 0
vt 0.767877996 0.841302991 0
vt 0.68214798 0.831503987 0
vt 0.771201015 0.143423006 0
vt 0.823197007 0.0727789998 0
vt 0.842442989 0.000391999987 0
vt 0.540036559 0.604016781 0
vt 0.578189015 0.492691994 0
vt 0.649808407 0.463535339 0
vt 0.628740907 0.586357296 0
vt 0.929206014 0.0408182926 0
vt 0.968433797 0.0395627655 0
vt 0.185286269 0.57408756 0
vt 0.191430107 0.99499929 0
vt 0.147481084 0.997251272 0
vt 0.145508409 0.539405227 0
vt 0.955134571 0.937704921 0
vt 0.911267996 0.936239719 0
vt 0.914703786 0.468480557 0
vt 0.953971863 0.479621232 0
vt 0.998950958 0.465835631 0
vt 1.00079584 0.933270872 0
vt 0.960435927 0.929967105 0
vt 0.960352004 0.472718388 0
vt 0.267879993 0.560544014 0
vt 0.408972919 0.770044386 0
vt 0.412803143 0.822453141 0
vt 0.373537004 0.821673989 0
vt 0.370125562 0.769836545 0
vt 0.579357624 0.752936482 0
vt 0.584414005 0.804979026 0
vt 0.530439079 0.805618167 0
vt 0.535968482 0.757254481 0
vt 0.212508112 0.812020481 0
vt 0.192587942 0.76578021 0
vt 0.238734365 0.763660312 0
vt 0.455719948 0.800636888 0
vt 0.407791376 0.81491065 0
vt 0.403040946 0.772976935 0
vt 0.453836083 0.760183871 0
vt 0.329986006 0.723133862 0
vt 0.392896384 0.76766026 0
vt 0.313646555 0.763606071 0
vt 0.353902996 0.673632026 0
vt 0.386354983 0.658417881 0
vt 0.851915002 0.635196984 0
vt 0.868150115 0.448733181 0
vt 0.907345176 0.450894237 0
vt 0.897245109 0.666774929 0
vt 0.649866045 0.798364222 0
vt 0.59765178 0.78833133 0
vt 0.5821895 0.753759921 0
vt 0.649592817 0.758823872 0
vt 0.820608675 0.479199737 0
vt 0.847463131 0.462820739 0
vt 0.829930604 0.633611798 0
vt 0.784636736 0.578145325 0
vt 0.767627537 0.487092376 0
vt 0.782608628 0.650404871 0
vt 0.832236767 0.849404514 0
vt 0.79333663 0.849602818 0
vt 0.419194072 0.76676476 0
vt 0.417089015 0.699868858 0
vt 0.455636412 0.687048674 0
vt 0.458440185 0.766588509 0
vt 0.487927377 0.669936597 0
vt 0.468437105 0.667669177 0
vt 0.486975849 0.561055601 0
vt 0.420136631 0.566870749 0
vt 0.145382404 0.55031991 0
vt 0.122047037 0.641067505 0
vt 0.120822929 0.546282828 0
vt 0.137683973 0.714232385 0
vt 0.114372998 0.710642993 0
vt 0.0867270455 0.714091957 0
vt 0.140529722 0.913456976 0
vt 0.107372366 0.914325833 0
vt 0.362396866 0.754682183 0
vt 0.364768595 0.834925413 0
vt 0.33591488 0.809123695 0
vt 0.329677284 0.754067898 0
vt 0.644849002 0.680128753 0
vt 0.629106402 0.750441313 0
vt 0.681365013 0.740962982 0
vt 0.644635022 0.75444603 0
vt 0.675060511 0.75303936 0
vt 0.678946018 0.808148026 0
vt 0.632912636 0.806082726 0
vt 0.282425106 0.764374018 0
vt 0.268662989 0.577431023 0
vt 0.322664738 0.560751438 0
vt 0.319310129 0.762001157 0
vt 0.0394425616 0.81822592 0
vt -0.0126257772 0.83443439 0
vt -0.0142837176 0.797210991 0
vt 0.460544765 0.659433722 0
vt 0.491734505 0.667768836 0
vt 0.474134624 0.695075631 0
vt 0.278207809 -0.000433022709 0
vt 0.279911995 0.0838019997 0
vt 0.198704496 0.0487882048 0
vt 0.317193002 0.811235011 0
vt 0.274438024 0.797348559 0
vt 0.277031898 0.759554684 0
vt 0.314415365 0.750930071 0
vt 0.134385005 0.50463599 0
vt 0.0584859997 0.559760988 0
vt 0.00213313615 0.537394285 0
vt 0.397542 0.555423021 0
vt 0.302709013 0.547325015 0
vt 0.407187551 0.389893949 0
vt 0.530802011 0.554638386 0
vt 0.210535005 0.541723013 0
vt 0.322355002 0.237855002 0
vt 0.284922987 0.158530995 0
vt 0.0945092887 0.0893564969 0
vt 0.101372361 0.0374439247 0
vn -0.602553844 -0.260176688 0.677434564
vn -0.914099991 -0.310000002 -0.261200011
vn 0.274963707 0.773068368 0.479355574
vn 0.0878432021 0.690448582 0.726408362
vn -0.848200023 -0.403400004 -0.343199998
vn -0.882099986 -0.362899989 -0.300199986
vn 0.1646 0.898699999 0.406399995
vn -0.499101341 0.994501114 -0.414081365
vn -0.319599986 0.943899989 -0.0826999992
vn -0.356900007 0.934099972 0.00779999979
vn 0.0450000018 0.963 0.265599996
vn -0.805299997 -0.576600015 0.137899995
vn 0.875398457 0.940807998 -0.695691407
vn -0.66533649 0.636463463 -0.0610778928
vn -0.484853536 0.669831634 0.571098387
vn 0.474273503 -0.527950883 0.713873029
vn 0.357899994 -0.409299999 0.839299977
vn 0.0441000015 -0.41870001 0.907000005
vn -0.246800005 -0.4745 0.844900012
vn -0.99016875 0.399752647 0.843352377
vn 0.661493838 -0.299824029 0.692618787
vn -0.0490132533 0.587948799 -0.816508651
vn -0.686783195 0.335903347 -0.666384935
vn -0.323396116 0.550458133 -0.774744093
vn 0.0212473441 0.680900276 -0.634607852
vn -0.147712454 -0.819453716 -0.484085679
vn 0.275561064 0.736954749 -0.616529942
vn 0.396550089 -0.614003718 -0.734495819
vn -0.835500002 -0.537899971 0.112199999
vn 0.790099978 0.569299996 -0.2271
vn 0.783835292 0.536095917 -0.344046295
vn 0.869937837 0.433906406 -0.092763029
vn 0.855791867 -0.312933713 -0.274911463
vn 0.981376231 -0.356206417 0.129231006
vn -0.186939493 0.127591476 -0.806687951
vn -0.882200003 -0.350499988 0.314200014
vn -0.563376546 -0.710955679 0.299439222
vn -0.181256384 -0.808995664 -0.520622671
vn -0.287349403 0.485373199 -0.779109001
vn -0.395711333 0.690950513 0.261642367
vn 0.897924483 0.119259641 -0.34484452
vn 0.897174835 -0.0243241787 -0.476636469
vn 0.638482153 -0.733319342 -0.110843122
vn 0.835662365 0.033671312 -0.246080831
vn 0.656899989 -0.346799999 0.669499993
vn 0.31279546 0.0780598745 0.95419538
vn 0.224454522 -0.671889067 0.660290718
g 
usemtl /mat/None
f 4/1/4 3/2/3 8/3/8
f 8/4/8 5/5/5 2/6/2
f 8/3/8 3/2/3 7/7/7 9/8/9
f 1/9/1 4/10/4 8/4/8 2/6/2
f 5/11/5 8/3/8 9/8/9 6/12/6
f 9/8/9 7/7/7 11/13/11 10/14/10
f 10/15/10 12/16/12 6/17/6 9/18/9
f 11/13/11 13/19/13 10/14/10
f 12/20/12 10/21/10 13/22/13 14/23/14
f 13/19/13 11/13/11 15/24/15
f 1/25/1 16/26/16 3/27/3 4/28/4
f 16/26/16 17/29/17 7/30/7 3/27/3
f 7/7/7 17/31/17 18/32/18 11/13/11
f 18/32/18 19/33/19 15/24/15 11/13/11
f 15/34/15 19/35/19 21/36/21 20/37/20
f 15/24/15 22/38/22 23/39/23 13/19/13
f 13/40/13 23/41/23 24/42/24
f 13/40/13 24/42/24 14/43/14
f 24/44/24 25/45/25 27/46/27 14/47/14
f 27/48/27 25/49/25 26/50/26 28/51/28
f 14/23/14 29/52/29 12/20/12
f 22/53/22 31/54/31 30/55/30 23/56/23
f 23/57/23 30/58/30 32/59/32 24/60/24
f 32/61/32 25/62/25 24/63/24
f 25/64/25 32/65/32 33/66/33 26/67/26
f 32/68/32 34/69/34 33/70/33
f 34/69/34 32/68/32 30/71/30 31/72/31
f 36/73/36 37/74/37 38/75/38 35/76/35
f 37/77/37 40/78/40 39/79/39 38/80/38
f 22/81/22 15/82/15 35/83/35
f 22/81/22 35/83/35 41/84/41 31/85/31
f 41/84/41 35/83/35 42/86/42
f 42/86/42 35/83/35 38/87/38 43/88/43
f 38/89/38 39/90/39 44/91/44 43/92/43
f 31/93/31 20/94/20 34/95/34
f 34/95/34 20/94/20 21/96/21
f 31/97/31 41/98/41 20/99/20
f 42/100/42 45/101/45 41/98/41
f 42/100/42 46/102/46 45/101/45
f 43/103/43 47/104/47 46/102/46 42/100/42
f 43/105/43 44/106/44 40/107/40 47/108/47
f 20/37/20 41/109/41 35/110/35 15/34/15
f 35/110/35 41/109/41 45/111/45
f 45/112/45 46/113/46 36/114/36 35/115/35
f 37/116/37 36/117/36 46/118/46 47/119/47
f 40/120/40 37/121/37 47/122/47
f 39/123/39 40/124/40 44/125/44
f 21/126/21 19/127/19 34/128/34
f 29/129/29 14/130/14 27/131/27 28/132/28
f 12/133/12 29/134/29 28/135/28
f 2/136/2 5/137/5 16/138/16 1/139/1
f 6/140/6 16/138/16 5/137/5
f 6/140/6 12/133/12 17/141/17 16/138/16
f 18/142/18 17/141/17 12/133/12 28/135/28
f 18/142/18 28/135/28 19/127/19
f 26/143/26 34/128/34 19/127/19 28/135/28
f 26/143/26 33/144/33 34/128/34
