# Blender v3.0.0 OBJ File: 'pedistal.blend'
# www.blender.org
mtllib valve.mtl
o valve_low_RetopoFlow.003
v 1.172132 3.950511 0.304417
v 1.253373 3.433479 0.269178
v 1.821856 3.408695 0.277088
v 1.908903 3.929352 0.332278
v 2.416783 3.820439 0.312801
v 2.348280 3.291527 0.251053
v 3.097461 3.356302 0.301014
v 2.718157 2.905285 0.252119
v 2.795504 2.653217 0.288862
v 3.361645 2.703142 0.315424
v 3.393387 2.453263 0.295206
v 2.795297 2.447884 0.283034
v 2.607774 2.300593 0.415512
v 3.582805 2.305291 0.388274
v 3.465121 2.199025 0.493926
v 2.580688 2.212929 0.448426
v 2.692498 2.129025 0.353805
v 3.422880 2.116158 0.409958
v 3.386258 1.986385 0.274179
v 2.784786 2.014717 0.277014
v 2.822933 1.413273 0.334301
v 3.388561 1.424317 0.290004
v 2.746186 1.327064 0.350848
v 3.433187 1.322661 0.296821
v 3.418821 1.227968 0.330000
v 2.772472 1.227485 0.330000
v 2.726921 -0.035380 0.374304
v 3.477736 -0.004104 0.360836
v 2.653745 -0.172603 0.458048
v 3.551420 -0.214019 0.311997
v 3.569330 -0.486554 0.253849
v 2.621050 -0.489767 0.307669
v 0.505106 3.767679 0.300670
v 0.715471 3.364780 0.323564
v 0.384730 2.954664 0.283754
v -0.047004 3.294420 0.205859
v -0.235380 2.631485 0.272948
v 0.288246 2.613369 0.257493
v -0.295071 2.396024 0.311957
v 0.318523 2.398921 0.269642
v 0.427867 2.283742 0.367994
v -0.471839 2.295451 0.494077
v -0.485501 2.195576 0.505557
v 0.396079 2.209333 0.524078
v 0.301479 2.051754 0.358530
v -0.321533 2.069528 0.348806
v -0.285848 1.988639 0.245484
v 0.282134 1.997228 0.277876
v 0.276921 1.427304 0.299092
v -0.228947 1.413273 0.291035
v -0.326485 1.375299 0.340000
v 0.327503 1.355405 0.352882
v 0.305290 1.222902 0.330000
v -0.305269 1.226377 0.306050
v -0.376357 -0.021190 0.363302
v 0.338627 -0.001369 0.390695
v -0.465885 -0.182646 0.448516
v 0.304866 -0.223737 0.443569
v 0.460377 -0.493300 0.500000
v -0.485172 -0.492266 0.500000
v -0.424768 2.390683 -0.176029
v -0.473697 2.305291 -0.168712
v -0.501971 2.209638 -0.157265
v -0.370000 2.088771 -0.148836
v -0.308823 1.986334 -0.118797
v -0.293998 1.421260 -0.254021
v -0.353660 1.354697 -0.233804
v -0.330000 1.228494 -0.277407
v -0.390472 0.003394 -0.341607
v -0.458630 -0.174597 -0.404330
v -0.500000 -0.474033 -0.452382
v -0.314913 2.612134 -0.250550
v -0.058258 3.274171 -0.283220
v 0.480749 3.791628 -0.275959
v 1.150807 3.931171 -0.286765
v 1.687509 4.000672 -0.004254
v 2.520556 3.849837 0.060170
v 3.149203 3.369736 -0.023949
v 3.264733 3.064786 -0.286109
v 3.430926 2.429413 -0.257666
v 3.478394 2.317044 -0.450198
v 3.608680 2.216651 -0.455440
v 3.476935 2.134509 -0.395689
v 3.420427 1.988850 -0.279460
v 3.391818 1.427285 -0.284618
v 3.446134 1.347499 -0.335942
v 3.409551 1.219182 -0.299847
v 3.489996 0.025421 -0.345229
v 3.589894 -0.243842 -0.463896
v 3.600427 -0.482981 -0.475165
v 2.649852 -0.259533 -0.500000
v 2.623865 -0.483796 -0.500000
v 2.728002 -0.034340 -0.409100
v 2.785357 1.220353 -0.326174
v 2.764496 1.328912 -0.342602
v 2.817019 1.426877 -0.292602
v 2.787382 1.991486 -0.246963
v 2.709708 2.123404 -0.369714
v 2.645195 2.209062 -0.512932
v 2.633105 2.295312 -0.440842
v 2.794737 2.405542 -0.282474
v 2.716273 2.925654 -0.231035
v 2.515308 3.132693 -0.158398
v 2.364047 3.343004 -0.143405
v 1.694835 3.492359 -0.334078
v 1.124985 3.433898 -0.320341
v 0.713914 3.306195 -0.261004
v 0.370049 2.988954 -0.334078
v 0.303727 2.621138 -0.242011
v 0.335095 2.390481 -0.203225
v 0.463415 2.286289 -0.190811
v 0.469519 2.200289 -0.154333
v 0.344645 2.089071 -0.093038
v 0.289066 1.971060 -0.041518
v 0.267019 1.429458 -0.257400
v 0.351510 1.356179 -0.263692
v 0.297401 1.239890 -0.296366
v 0.359983 -0.015604 -0.379054
v 0.446489 -0.177293 -0.461708
v 0.420512 -0.481736 -0.500000
vt 0.261536 0.001567
vt 0.252597 0.056965
vt 0.191764 0.059301
vt 0.182649 0.003259
vt 0.135388 0.071867
vt 0.128271 0.014876
vt 0.095457 0.112835
vt 0.055144 0.064085
vt 0.086572 0.139892
vt 0.026031 0.133624
vt 0.086287 0.161864
vt 0.022307 0.160398
vt 0.105793 0.183568
vt 0.001567 0.178568
vt 0.108493 0.193640
vt 0.013752 0.194907
vt 0.097115 0.207662
vt 0.018740 0.207349
vt 0.087628 0.222644
vt 0.023381 0.227287
vt 0.085211 0.287359
vt 0.024506 0.287428
vt 0.093723 0.296477
vt 0.020028 0.298452
vt 0.090967 0.307375
vt 0.021847 0.309142
vt 0.099405 0.442378
vt 0.019014 0.441105
vt 0.108845 0.458746
vt 0.011612 0.464319
vt 0.110328 0.496429
vt 0.008749 0.494054
vt 0.332919 0.021028
vt 0.310445 0.064213
vt 0.393002 0.071469
vt 0.346204 0.107986
vt 0.412331 0.142977
vt 0.356284 0.144671
vt 0.418777 0.168493
vt 0.352986 0.167641
vt 0.438929 0.189631
vt 0.341883 0.184255
vt 0.440777 0.200326
vt 0.346463 0.202496
vt 0.424315 0.222679
vt 0.357739 0.226435
vt 0.421221 0.236893
vt 0.360356 0.236726
vt 0.415626 0.298683
vt 0.361491 0.297728
vt 0.426015 0.305382
vt 0.356035 0.307308
vt 0.423783 0.321727
vt 0.358417 0.321691
vt 0.430310 0.455383
vt 0.353783 0.452785
vt 0.439543 0.475078
vt 0.357003 0.477291
vt 0.440777 0.508695
vt 0.339654 0.506339
vt 0.689789 0.009965
vt 0.681061 0.032426
vt 0.638295 0.039310
vt 0.637355 0.031139
vt 0.635051 0.022475
vt 0.687669 0.001567
vt 0.052549 0.799518
vt 0.009417 0.736325
vt 0.025451 0.721183
vt 0.062982 0.771456
vt 0.040502 0.714083
vt 0.065258 0.755746
vt 0.118954 0.698337
vt 0.113075 0.750668
vt 0.126490 0.702743
vt 0.122974 0.755612
vt 0.139347 0.699296
vt 0.137309 0.753175
vt 0.272913 0.700935
vt 0.255557 0.773469
vt 0.292163 0.702893
vt 0.272379 0.787135
vt 0.323637 0.705312
vt 0.301772 0.799901
vt 0.682787 0.051684
vt 0.640218 0.061629
vt 0.695261 0.104568
vt 0.658163 0.115503
vt 0.720542 0.157096
vt 0.676871 0.171283
vt 0.729726 0.175854
vt 0.725199 0.238647
vt 0.674994 0.230060
vt 0.717636 0.305167
vt 0.689880 0.280212
vt 0.709638 0.352383
vt 0.684959 0.357986
vt 0.714556 0.355334
vt 0.698703 0.443045
vt 0.662922 0.441361
vt 0.694160 0.516535
vt 0.636699 0.473654
vt 0.694411 0.544047
vt 0.614867 0.560838
vt 0.710078 0.568179
vt 0.595871 0.584215
vt 0.729726 0.584558
vt 0.602601 0.606032
vt 0.797682 0.403071
vt 0.732859 0.325959
vt 0.745984 0.325228
vt 0.809356 0.390372
vt 0.764707 0.324771
vt 0.813280 0.366904
vt 0.774410 0.286120
vt 0.834752 0.289319
vt 0.774157 0.276911
vt 0.834557 0.279809
vt 0.770952 0.268255
vt 0.834624 0.265145
vt 0.751566 0.149057
vt 0.824798 0.132477
vt 0.750499 0.127585
vt 0.821893 0.103234
vt 0.748285 0.097624
vt 0.819276 0.079326
vt 0.913748 0.079664
vt 0.909929 0.101065
vt 0.907371 0.127224
vt 0.898273 0.267144
vt 0.898255 0.277766
vt 0.897440 0.291691
vt 0.912109 0.368515
vt 0.913870 0.393943
vt 0.912247 0.412274
vt 0.483237 0.531830
vt 0.491659 0.517532
vt 0.520421 0.496567
vt 0.582402 0.427056
vt 0.597733 0.388626
vt 0.615992 0.359476
vt 0.634164 0.276124
vt 0.631330 0.221785
vt 0.624897 0.179019
vt 0.616269 0.129609
vt 0.591876 0.097791
vt 0.574533 0.079578
vt 0.561394 0.074097
vt 0.555446 0.068041
vt 0.001567 0.607029
vt 0.019976 0.616987
vt 0.038953 0.622130
vt 0.114905 0.637136
vt 0.123182 0.631048
vt 0.135808 0.633816
vt 0.267393 0.617418
vt 0.286861 0.613139
vt 0.318654 0.608754
vt 0.255535 0.529159
vt 0.283167 0.511828
vt 0.238207 0.541564
vt 0.124500 0.576996
vt 0.110048 0.578353
vt 0.102389 0.586268
vt 0.057295 0.584233
vt 0.056906 0.573048
vt 0.050781 0.545012
vt 0.521568 0.102635
vt 0.505811 0.105653
vt 0.540328 0.110104
vt 0.551477 0.123082
vt 0.563180 0.148617
vt 0.568876 0.189593
vt 0.577650 0.236915
vt 0.577509 0.288133
vt 0.570128 0.339592
vt 0.535793 0.384927
vt 0.511393 0.400885
vt 0.490828 0.411729
vt 0.459062 0.404726
vt 0.443910 0.403817
vt 0.981958 0.347045
vt 0.998433 0.352631
vt 0.969218 0.339839
vt 0.967484 0.292608
vt 0.969545 0.281985
vt 0.967345 0.269090
vt 0.986932 0.146807
vt 0.998433 0.134670
vt 0.991721 0.097709
vt 0.912314 0.001567
vt 0.820744 0.008774
vt 0.423552 0.604571
vt 0.423552 0.703751
vn -0.1007 0.7058 0.7012
vn 0.0779 -0.7236 0.6858
vn -0.0738 -0.7444 0.6636
vn 0.0762 0.6386 0.7657
vn -0.3424 -0.6204 0.7055
vn 0.2494 0.6091 0.7528
vn -0.5956 -0.3797 0.7078
vn 0.5396 0.4215 0.7288
vn -0.6423 -0.1631 0.7488
vn 0.6675 0.1750 0.7237
vn -0.5513 0.5257 0.6478
vn 0.5554 0.5597 0.6150
vn -0.6104 0.6264 0.4847
vn 0.7805 0.5103 0.3610
vn -0.7577 -0.1704 0.6300
vn 0.4686 -0.0745 0.8802
vn -0.4535 -0.8018 0.3892
vn 0.3991 -0.7903 0.4649
vn -0.6387 -0.4988 0.5859
vn 0.7254 -0.3509 0.5921
vn -0.5375 0.2597 0.8023
vn 0.6468 0.2142 0.7320
vn -0.7311 0.2120 0.6485
vn 0.7861 0.1149 0.6073
vn -0.6935 -0.0342 0.7196
vn 0.6548 -0.0061 0.7557
vn -0.6640 0.2279 0.7121
vn 0.6466 0.1674 0.7442
vn -0.5900 0.0484 0.8059
vn 0.7553 0.0493 0.6535
vn -0.6316 -0.6131 0.4746
vn 0.6010 -0.6522 0.4619
vn -0.3656 0.6428 0.6732
vn 0.2372 -0.5101 0.8267
vn -0.6721 0.4254 0.6060
vn 0.5318 -0.3021 0.7912
vn -0.6139 0.2924 0.7332
vn 0.6676 0.0320 0.7438
vn -0.4083 0.7285 0.5500
vn 0.5651 0.6452 0.5142
vn -0.5221 0.7171 0.4617
vn 0.7659 0.5049 0.3981
vn -0.7607 -0.0548 0.6467
vn 0.4866 -0.1099 0.8666
vn -0.3682 -0.8348 0.4093
vn 0.4229 -0.8003 0.4250
vn -0.7041 -0.4833 0.5202
vn 0.7145 -0.4666 0.5213
vn -0.4572 0.5951 0.6608
vn 0.5740 0.5596 0.5978
vn -0.6851 0.3099 0.6592
vn 0.6683 0.2322 0.7067
vn -0.7103 -0.0984 0.6970
vn 0.6807 -0.1522 0.7165
vn -0.6608 0.3300 0.6740
vn 0.7111 0.1857 0.6781
vn -0.6786 0.3289 0.6567
vn 0.5736 0.2956 0.7639
vn -0.5918 -0.5022 0.6305
vn 0.6608 -0.5155 0.5455
vn -0.6463 0.3577 -0.6741
vn -0.6477 0.2735 -0.7111
vn -0.7461 -0.3809 -0.5461
vn -0.4197 -0.6213 -0.6616
vn -0.6703 -0.2784 -0.6879
vn -0.4744 0.3053 -0.8256
vn -0.7608 0.3806 -0.5256
vn -0.6803 0.1125 -0.7242
vn -0.6837 0.3415 -0.6449
vn -0.6915 0.3312 -0.6419
vn -0.6198 -0.5126 -0.5942
vn -0.7049 0.1041 -0.7016
vn -0.6488 0.4017 -0.6462
vn -0.3686 0.6883 -0.6248
vn -0.0444 0.7450 -0.6656
vn 0.1194 0.8972 -0.4252
vn 0.4078 0.8198 -0.4020
vn 0.6522 0.6489 -0.3917
vn 0.5738 0.3926 -0.7188
vn 0.6158 0.6605 -0.4295
vn 0.4426 0.5983 -0.6679
vn 0.8522 -0.3679 -0.3719
vn 0.4003 -0.8119 -0.4249
vn 0.7289 -0.3904 -0.5624
vn 0.6507 0.3972 -0.6471
vn 0.7109 0.1578 -0.6854
vn 0.7150 -0.1258 -0.6877
vn 0.7122 0.3030 -0.6331
vn 0.7046 0.2478 -0.6649
vn 0.6076 -0.5567 -0.5665
vn -0.6068 -0.5361 -0.5868
vn -0.6435 0.2821 -0.7116
vn -0.6449 0.3425 -0.6832
vn -0.6759 -0.1302 -0.7254
vn -0.6872 0.1762 -0.7047
vn -0.6207 0.4177 -0.6634
vn -0.6756 -0.4804 -0.5593
vn -0.4360 -0.8120 -0.3880
vn -0.4733 -0.2447 -0.8462
vn -0.6804 0.5544 -0.4792
vn -0.5167 0.6702 -0.5327
vn -0.6492 0.0063 -0.7606
vn -0.6351 -0.2232 -0.7395
vn -0.1974 -0.3377 -0.9203
vn 0.1443 -0.4346 -0.8889
vn 0.1240 -0.6016 -0.7891
vn 0.3377 -0.5767 -0.7439
vn 0.4896 -0.2947 -0.8206
vn 0.6603 -0.1738 -0.7306
vn 0.5689 0.1612 -0.8064
vn 0.7068 0.2022 -0.6778
vn 0.7543 -0.3898 -0.5282
vn 0.5418 -0.5628 -0.6243
vn 0.7746 -0.1948 -0.6017
vn 0.5035 0.2736 -0.8195
vn 0.8166 0.2266 -0.5309
vn 0.6177 0.0832 -0.7819
vn 0.6998 0.2547 -0.6674
vn 0.7080 0.3190 -0.6300
vn 0.5799 -0.4384 -0.6866
usemtl None
s 1
f 1/1/1 2/2/2 3/3/3 4/4/4
f 3/3/3 6/5/5 5/6/6 4/4/4
f 5/6/6 6/5/5 8/7/7 7/8/8
f 8/7/7 9/9/9 10/10/10 7/8/8
f 10/10/10 9/9/9 12/11/11 11/12/12
f 12/11/11 13/13/13 14/14/14 11/12/12
f 14/14/14 13/13/13 16/15/15 15/16/16
f 16/15/15 17/17/17 18/18/18 15/16/16
f 18/18/18 17/17/17 20/19/19 19/20/20
f 20/19/19 21/21/21 22/22/22 19/20/20
f 22/22/22 21/21/21 23/23/23 24/24/24
f 23/23/23 26/25/25 25/26/26 24/24/24
f 25/26/26 26/25/25 27/27/27 28/28/28
f 27/27/27 29/29/29 30/30/30 28/28/28
f 30/30/30 29/29/29 32/31/31 31/32/32
f 1/1/1 33/33/33 34/34/34 2/2/2
f 34/34/34 33/33/33 36/35/35 35/36/36
f 36/35/35 37/37/37 38/38/38 35/36/36
f 38/38/38 37/37/37 39/39/39 40/40/40
f 39/39/39 42/41/41 41/42/42 40/40/40
f 41/42/42 42/41/41 43/43/43 44/44/44
f 43/43/43 46/45/45 45/46/46 44/44/44
f 45/46/46 46/45/45 47/47/47 48/48/48
f 47/47/47 50/49/49 49/50/50 48/48/48
f 49/50/50 50/49/49 51/51/51 52/52/52
f 51/51/51 54/53/53 53/54/54 52/52/52
f 53/54/54 54/53/53 55/55/55 56/56/56
f 55/55/55 57/57/57 58/58/58 56/56/56
f 58/58/58 57/57/57 60/59/59 59/60/60
f 42/61/41 39/62/39 61/63/61 62/64/62
f 62/64/62 63/65/63 43/66/43 42/61/41
f 43/67/43 63/68/63 64/69/64 46/70/45
f 64/69/64 65/71/65 47/72/47 46/70/45
f 47/72/47 65/71/65 66/73/66 50/74/49
f 66/73/66 67/75/67 51/76/51 50/74/49
f 51/76/51 67/75/67 68/77/68 54/78/53
f 68/77/68 69/79/69 55/80/55 54/78/53
f 55/80/55 69/79/69 70/81/70 57/82/57
f 70/81/70 71/83/71 60/84/59 57/82/57
f 37/85/37 72/86/72 61/63/61 39/62/39
f 72/86/72 37/85/37 36/87/35 73/88/73
f 36/87/35 33/89/33 74/90/74 73/88/73
f 74/90/74 33/91/33 1/92/1 75/93/75
f 1/92/1 4/94/4 76/95/76 75/93/75
f 76/95/76 4/94/4 5/96/6 77/97/77
f 5/98/6 7/99/8 78/100/78 77/97/77
f 78/100/78 7/99/8 10/101/10 79/102/79
f 10/101/10 11/103/12 80/104/80 79/102/79
f 80/104/80 11/103/12 14/105/14 81/106/81
f 14/105/14 15/107/16 82/108/82 81/106/81
f 82/109/82 15/110/16 18/111/18 83/112/83
f 18/111/18 19/113/20 84/114/84 83/112/83
f 84/114/84 19/113/20 22/115/22 85/116/85
f 22/115/22 24/117/24 86/118/86 85/116/85
f 86/118/86 24/117/24 25/119/26 87/120/87
f 25/119/26 28/121/28 88/122/88 87/120/87
f 88/122/88 28/121/28 30/123/30 89/124/89
f 30/123/30 31/125/32 90/126/90 89/124/89
f 89/124/89 90/126/90 92/127/91 91/128/92
f 91/128/92 93/129/93 88/122/88 89/124/89
f 88/122/88 93/129/93 94/130/94 87/120/87
f 94/130/94 95/131/95 86/118/86 87/120/87
f 86/118/86 95/131/95 96/132/96 85/116/85
f 96/132/96 97/133/97 84/114/84 85/116/85
f 84/114/84 97/133/97 98/134/98 83/112/83
f 98/134/98 99/135/99 82/109/82 83/112/83
f 82/108/82 99/136/99 100/137/100 81/106/81
f 100/137/100 101/138/101 80/104/80 81/106/81
f 80/104/80 101/138/101 102/139/102 79/102/79
f 102/139/102 103/140/103 78/100/78 79/102/79
f 78/100/78 103/140/103 104/141/104 77/97/77
f 104/141/104 105/142/105 76/95/76 77/97/77
f 76/95/76 105/142/105 106/143/106 75/93/75
f 106/143/106 107/144/107 74/90/74 75/93/75
f 74/90/74 107/144/107 108/145/108 73/88/73
f 108/145/108 109/146/109 72/86/72 73/88/73
f 72/86/72 109/146/109 110/147/110 61/63/61
f 110/147/110 111/148/111 62/64/62 61/63/61
f 62/64/62 111/148/111 112/149/112 63/65/63
f 112/150/112 113/151/113 64/69/64 63/68/63
f 64/69/64 113/151/113 114/152/114 65/71/65
f 114/152/114 115/153/115 66/73/66 65/71/65
f 66/73/66 115/153/115 116/154/116 67/75/67
f 116/154/116 117/155/117 68/77/68 67/75/67
f 68/77/68 117/155/117 118/156/118 69/79/69
f 118/156/118 119/157/119 70/81/70 69/79/69
f 70/81/70 119/157/119 120/158/120 71/83/71
f 119/157/119 58/159/58 59/160/60 120/158/120
f 56/161/56 58/159/58 119/157/119 118/156/118
f 117/155/117 53/162/54 56/161/56 118/156/118
f 52/163/52 53/162/54 117/155/117 116/154/116
f 115/153/115 49/164/50 52/163/52 116/154/116
f 48/165/48 49/164/50 115/153/115 114/152/114
f 113/151/113 45/166/46 48/165/48 114/152/114
f 44/167/44 45/166/46 113/151/113 112/150/112
f 111/148/111 41/168/42 44/169/44 112/149/112
f 40/170/40 41/168/42 111/148/111 110/147/110
f 109/146/109 38/171/38 40/170/40 110/147/110
f 35/172/36 38/171/38 109/146/109 108/145/108
f 107/144/107 34/173/34 35/172/36 108/145/108
f 2/174/2 34/173/34 107/144/107 106/143/106
f 105/142/105 3/175/3 2/174/2 106/143/106
f 6/176/5 3/175/3 105/142/105 104/141/104
f 103/140/103 8/177/7 6/176/5 104/141/104
f 9/178/9 8/177/7 103/140/103 102/139/102
f 101/138/101 12/179/11 9/178/9 102/139/102
f 13/180/13 12/179/11 101/138/101 100/137/100
f 99/136/99 16/181/15 13/180/13 100/137/100
f 17/182/17 16/183/15 99/135/99 98/134/98
f 97/133/97 20/184/19 17/182/17 98/134/98
f 21/185/21 20/184/19 97/133/97 96/132/96
f 95/131/95 23/186/23 21/185/21 96/132/96
f 26/187/25 23/186/23 95/131/95 94/130/94
f 93/129/93 27/188/27 26/187/25 94/130/94
f 29/189/29 27/188/27 93/129/93 91/128/92
f 92/127/91 32/190/31 29/189/29 91/128/92
f 32/191/31 92/127/91 90/126/90 31/192/32
f 120/158/120 59/193/60 60/194/59 71/83/71
