# Blender v3.0.0 OBJ File: 'shroom.blend'
# www.blender.org
mtllib shroom2.mtl
o shroom1
v -0.051755 -1.267578 0.051755
v 0.051755 -1.267578 0.051755
v 0.051755 1.267578 0.051755
v -0.051755 1.267578 0.051755
v 0.051755 1.267578 -0.051755
v -0.051755 1.267578 -0.051755
v 0.051755 -1.267578 -0.051755
v -0.051755 -1.267578 -0.051755
v 0.329102 1.170691 -0.329101
v 0.000000 1.170691 -0.465420
v 0.000000 1.286444 0.000000
v -0.329101 1.170691 -0.329101
v -0.465420 1.170691 0.000000
v -0.329101 1.170691 0.329102
v 0.000000 1.170691 0.465420
v 0.329102 1.170691 0.329102
v 0.465420 1.170691 0.000000
v 0.463791 1.004510 -0.463791
v 0.000000 1.004510 -0.655900
v -0.463791 1.004510 -0.463791
v -0.655900 1.004510 0.000000
v -0.463791 1.004510 0.463791
v 0.000000 1.004510 0.655900
v 0.463791 1.004510 0.463791
v 0.655900 1.004510 0.000000
v 0.636852 0.872392 -0.636852
v 0.000000 0.872392 -0.900645
v -0.636853 0.872392 -0.636852
v -0.900645 0.872393 0.000000
v -0.636853 0.872393 0.636853
v 0.000000 0.872393 0.900645
v 0.636853 0.872393 0.636853
v 0.900645 0.872392 0.000000
v 0.769242 0.853164 -0.769242
v 0.000000 0.853164 -1.087873
v -0.769243 0.853164 -0.769242
v -1.087874 0.853164 0.000000
v -0.769243 0.853164 0.769243
v 0.000000 0.853164 1.087874
v 0.769243 0.853164 0.769243
v 1.087873 0.853164 0.000000
v -0.060613 -0.368330 0.176427
v -0.164123 -0.368330 0.176427
v -0.060613 -0.368330 0.072917
v -0.164123 -0.368330 0.072917
v -0.016499 0.412604 0.161852
v -0.120009 0.412604 0.161852
v -0.016499 0.412605 0.058342
v -0.120009 0.412605 0.058342
vt 0.934565 0.345267
vt 0.898283 0.342835
vt 0.897697 0.040131
vt 0.934430 0.042904
vt 0.823843 0.002974
vt 0.859424 0.000122
vt 0.862277 0.035703
vt 0.826695 0.038555
vt 0.822975 0.624193
vt 0.860964 0.625450
vt 0.863294 0.964000
vt 0.827295 0.959871
vt 0.868354 0.999878
vt 0.899172 0.958940
vt 0.904232 0.994819
vt 0.862530 0.340135
vt 0.970988 0.342386
vt 0.970536 0.038215
vt 0.287838 0.318460
vt 0.386090 0.249560
vt 0.425034 0.413370
vt 0.504493 0.266393
vt 0.582093 0.356351
vt 0.580683 0.475178
vt 0.500467 0.563602
vt 0.380364 0.576625
vt 0.276613 0.506010
vt 0.253670 0.437569
vt 0.214271 0.265059
vt 0.365848 0.164027
vt 0.545071 0.187271
vt 0.665032 0.323438
vt 0.664953 0.505490
vt 0.543954 0.642866
vt 0.360688 0.666400
vt 0.205564 0.565876
vt 0.164921 0.438314
vt 0.132395 0.205552
vt 0.342883 0.065715
vt 0.592395 0.098754
vt 0.759492 0.287847
vt 0.759530 0.541196
vt 0.591802 0.733074
vt 0.337374 0.766438
vt 0.125978 0.626186
vt 0.067147 0.445739
vt 0.077826 0.165677
vt 0.328263 0.000122
vt 0.624511 0.039784
vt 0.822732 0.264522
vt 0.822732 0.565569
vt 0.623411 0.793438
vt 0.321412 0.832686
vt 0.069770 0.663961
vt 0.000122 0.454337
vt 0.974418 0.959494
vt 0.936761 0.954314
vt 0.936803 0.621607
vt 0.974418 0.623565
vt 0.899167 0.622961
vt 0.826532 0.342356
vn -0.2818 0.3770 0.8823
vn 0.2354 0.0804 0.9686
vn 0.7274 0.0435 0.6848
vn -0.6984 0.1101 0.7072
vn 0.7175 -0.0487 -0.6948
vn -0.6785 0.0058 -0.7346
vn -0.8108 -0.4305 -0.3966
vn 0.5924 0.5481 -0.5905
vn 0.7249 0.0681 -0.6855
vn -0.7358 -0.0273 -0.6766
vn 0.0889 -0.7329 0.6745
vn -0.0061 -0.7332 0.6800
vn 0.4252 -0.5249 -0.7374
vn -0.2802 0.0002 -0.9600
vn 0.3757 0.8471 -0.3757
vn -0.0000 0.8471 -0.5314
vn -0.0000 1.0000 -0.0000
vn -0.3757 0.8471 -0.3757
vn -0.5314 0.8471 0.0000
vn -0.3757 0.8471 0.3757
vn 0.0000 0.8471 0.5314
vn 0.3757 0.8471 0.3757
vn 0.5314 0.8471 -0.0000
vn 0.3771 0.8459 -0.3771
vn 0.0000 0.8459 -0.5333
vn -0.3771 0.8459 -0.3771
vn -0.5333 0.8459 -0.0000
vn -0.3771 0.8459 0.3771
vn -0.0000 0.8459 0.5333
vn 0.3771 0.8459 0.3771
vn 0.5333 0.8459 -0.0000
vn 0.1864 0.9646 -0.1864
vn -0.0000 0.9646 -0.2637
vn -0.1864 0.9646 -0.1864
vn -0.2637 0.9646 0.0000
vn -0.1864 0.9646 0.1864
vn -0.0000 0.9646 0.2637
vn 0.1864 0.9646 0.1864
vn 0.2637 0.9646 -0.0000
vn 0.0722 0.9948 -0.0722
vn 0.0000 0.9948 -0.1022
vn -0.0722 0.9948 -0.0722
vn -0.1022 0.9948 0.0000
vn -0.0722 0.9948 0.0722
vn 0.0000 0.9948 0.1022
vn 0.0722 0.9948 0.0722
vn 0.1022 0.9948 0.0000
vn -0.7486 -0.5145 0.4182
vn 0.9274 -0.1894 0.3226
usemtl initialShadingGroup.001
s 1
f 47/1/1 46/2/2 3/3/3 4/4/4
f 4/5/4 3/6/3 5/7/5 6/8/6
f 45/9/7 44/10/8 7/11/9 8/12/10
f 8/13/10 7/11/9 2/14/11 1/15/12
f 46/2/2 48/16/13 5/7/5 3/3/3
f 49/17/14 47/1/1 4/4/4 6/18/6
f 9/19/15 10/20/16 11/21/17
f 10/20/16 12/22/18 11/21/17
f 12/22/18 13/23/19 11/21/17
f 13/23/19 14/24/20 11/21/17
f 14/24/20 15/25/21 11/21/17
f 15/25/21 16/26/22 11/21/17
f 16/26/22 17/27/23 11/21/17
f 17/28/23 9/19/15 11/21/17
f 10/20/16 9/19/15 18/29/24 19/30/25
f 12/22/18 10/20/16 19/30/25 20/31/26
f 13/23/19 12/22/18 20/31/26 21/32/27
f 14/24/20 13/23/19 21/32/27 22/33/28
f 15/25/21 14/24/20 22/33/28 23/34/29
f 16/26/22 15/25/21 23/34/29 24/35/30
f 17/27/23 16/26/22 24/35/30 25/36/31
f 9/19/15 17/28/23 25/37/31 18/29/24
f 19/30/25 18/29/24 26/38/32 27/39/33
f 20/31/26 19/30/25 27/39/33 28/40/34
f 21/32/27 20/31/26 28/40/34 29/41/35
f 22/33/28 21/32/27 29/41/35 30/42/36
f 23/34/29 22/33/28 30/42/36 31/43/37
f 24/35/30 23/34/29 31/43/37 32/44/38
f 25/36/31 24/35/30 32/44/38 33/45/39
f 18/29/24 25/37/31 33/46/39 26/38/32
f 27/39/33 26/38/32 34/47/40 35/48/41
f 28/40/34 27/39/33 35/48/41 36/49/42
f 29/41/35 28/40/34 36/49/42 37/50/43
f 30/42/36 29/41/35 37/50/43 38/51/44
f 31/43/37 30/42/36 38/51/44 39/52/45
f 32/44/38 31/43/37 39/52/45 40/53/46
f 33/45/39 32/44/38 40/53/46 41/54/47
f 26/38/32 33/46/39 41/55/47 34/47/40
f 8/56/10 1/57/12 43/58/48 45/59/7
f 2/14/11 7/11/9 44/10/8 42/60/49
f 49/61/14 48/16/13 44/10/8 45/9/7
f 1/57/12 2/14/11 42/60/49 43/58/48
f 6/8/6 5/7/5 48/16/13 49/61/14
f 45/59/7 43/58/48 47/1/1 49/17/14
f 42/60/49 44/10/8 48/16/13 46/2/2
f 43/58/48 42/60/49 46/2/2 47/1/1
