# Blender v3.0.0 OBJ File: 'shroom.blend'
# www.blender.org
mtllib shroom11.mtl
o shroom2
v 0.329102 1.174738 -0.329101
v 0.000000 1.174738 -0.465420
v 0.000000 1.290490 0.000000
v -0.329101 1.174738 -0.329101
v -0.465420 1.174738 0.000000
v -0.329101 1.174738 0.329102
v 0.000000 1.174738 0.465420
v 0.329102 1.174738 0.329102
v 0.465420 1.174738 0.000000
v 0.497256 0.861862 -0.497256
v 0.000000 0.861862 -0.703226
v -0.497256 0.861862 -0.497256
v -0.703226 0.861862 0.000000
v -0.497256 0.861862 0.497256
v 0.000000 0.861862 0.703226
v 0.497256 0.861862 0.497256
v 0.703226 0.861862 0.000000
v 0.671588 0.613885 -0.671588
v 0.000000 0.613884 -0.949769
v -0.671588 0.613885 -0.671588
v -0.949769 0.613885 0.000000
v -0.671588 0.613885 0.671588
v 0.000000 0.613885 0.949769
v 0.671588 0.613885 0.671588
v 0.949769 0.613885 0.000000
v 0.715173 0.514137 -0.715173
v 0.000000 0.514137 -1.011407
v -0.715173 0.514137 -0.715173
v -1.011407 0.514137 0.000000
v -0.715173 0.514137 0.715173
v 0.000000 0.514137 1.011407
v 0.715173 0.514137 0.715173
v 1.011407 0.514137 0.000000
v -0.051755 -2.405254 0.051755
v 0.051755 -2.405254 0.051755
v 0.051755 1.267578 0.051755
v -0.051755 1.267578 0.051755
v 0.051755 1.267578 -0.051755
v -0.051755 1.267578 -0.051755
v 0.051755 -2.405254 -0.051755
v -0.051755 -2.392406 -0.051755
vt 0.303794 0.474735
vt 0.238441 0.429454
vt 0.335990 0.352627
vt 0.212115 0.356370
vt 0.233645 0.281533
vt 0.296580 0.232602
vt 0.380836 0.230170
vt 0.460612 0.283606
vt 0.462271 0.414190
vt 0.385933 0.469928
vt 0.277085 0.563072
vt 0.167521 0.487894
vt 0.120233 0.363573
vt 0.153361 0.233380
vt 0.257783 0.143876
vt 0.400849 0.128412
vt 0.539854 0.197346
vt 0.539281 0.491806
vt 0.415074 0.565112
vt 0.250368 0.647636
vt 0.098532 0.542673
vt 0.031716 0.369532
vt 0.076113 0.186831
vt 0.219722 0.059469
vt 0.416065 0.033778
vt 0.607172 0.119769
vt 0.607230 0.560967
vt 0.437446 0.653446
vt 0.240907 0.677461
vt 0.074087 0.562299
vt 0.000098 0.371893
vt 0.048336 0.170460
vt 0.205781 0.029581
vt 0.420832 0.000098
vt 0.627451 0.091429
vt 0.627451 0.585043
vt 0.444899 0.683835
vt 0.707684 0.026598
vt 0.734362 0.026598
vt 0.734362 0.973223
vt 0.707683 0.973223
vt 0.707683 0.999902
vt 0.681004 0.999902
vt 0.681004 0.973223
vt 0.654326 0.973223
vt 0.654326 0.026597
vt 0.681005 0.029909
vt 0.678099 0.003184
vt 0.704598 0.000098
vt 0.627648 0.026597
vt 0.627647 0.973222
vn 0.4879 0.7238 -0.4879
vn -0.0000 0.7238 -0.6900
vn -0.0000 1.0000 0.0000
vn -0.4879 0.7238 -0.4879
vn -0.6900 0.7238 0.0000
vn -0.4880 0.7238 0.4879
vn 0.0000 0.7238 0.6900
vn 0.4880 0.7238 0.4879
vn 0.6900 0.7238 -0.0000
vn 0.5250 0.6699 -0.5250
vn -0.0000 0.6699 -0.7425
vn -0.5250 0.6699 -0.5250
vn -0.7425 0.6699 0.0000
vn -0.5250 0.6699 0.5250
vn -0.0000 0.6699 0.7425
vn 0.5250 0.6699 0.5250
vn 0.7425 0.6699 0.0000
vn 0.5399 0.6457 -0.5399
vn -0.0000 0.6457 -0.7636
vn -0.5399 0.6457 -0.5399
vn -0.7636 0.6457 0.0000
vn -0.5399 0.6457 0.5399
vn 0.0000 0.6457 0.7636
vn 0.5399 0.6457 0.5399
vn 0.7636 0.6457 0.0000
vn 0.6015 0.5257 -0.6015
vn 0.0000 0.5257 -0.8507
vn -0.6015 0.5257 -0.6015
vn -0.8507 0.5257 -0.0000
vn -0.6015 0.5257 0.6015
vn 0.0000 0.5257 0.8507
vn 0.6015 0.5257 0.6015
vn 0.8507 0.5257 0.0000
vn -0.7108 -0.0386 0.7023
vn 0.7059 -0.0574 0.7059
vn 0.7068 0.0289 0.7068
vn -0.7068 0.0289 0.7068
vn 0.7068 0.0289 -0.7068
vn -0.7068 0.0289 -0.7068
vn 0.7371 -0.0416 -0.6745
vn -0.7069 0.0222 -0.7069
usemtl initialShadingGroup
s 1
f 1/1/1 2/2/2 3/3/3
f 2/2/2 4/4/4 3/3/3
f 4/4/4 5/5/5 3/3/3
f 5/5/5 6/6/6 3/3/3
f 6/6/6 7/7/7 3/3/3
f 7/7/7 8/8/8 3/3/3
f 8/9/8 9/10/9 3/3/3
f 9/10/9 1/1/1 3/3/3
f 2/2/2 1/1/1 10/11/10 11/12/11
f 4/4/4 2/2/2 11/12/11 12/13/12
f 5/5/5 4/4/4 12/13/12 13/14/13
f 6/6/6 5/5/5 13/14/13 14/15/14
f 7/7/7 6/6/6 14/15/14 15/16/15
f 8/8/8 7/7/7 15/16/15 16/17/16
f 9/10/9 8/9/8 16/18/16 17/19/17
f 1/1/1 9/10/9 17/19/17 10/11/10
f 11/12/11 10/11/10 18/20/18 19/21/19
f 12/13/12 11/12/11 19/21/19 20/22/20
f 13/14/13 12/13/12 20/22/20 21/23/21
f 14/15/14 13/14/13 21/23/21 22/24/22
f 15/16/15 14/15/14 22/24/22 23/25/23
f 16/17/16 15/16/15 23/25/23 24/26/24
f 17/19/17 16/18/16 24/27/24 25/28/25
f 10/11/10 17/19/17 25/28/25 18/20/18
f 19/21/19 18/20/18 26/29/26 27/30/27
f 20/22/20 19/21/19 27/30/27 28/31/28
f 21/23/21 20/22/20 28/31/28 29/32/29
f 22/24/22 21/23/21 29/32/29 30/33/30
f 23/25/23 22/24/22 30/33/30 31/34/31
f 24/26/24 23/25/23 31/34/31 32/35/32
f 25/28/25 24/27/24 32/36/32 33/37/33
f 18/20/18 25/28/25 33/37/33 26/29/26
f 34/38/34 35/39/35 36/40/36 37/41/37
f 37/41/37 36/42/36 38/43/38 39/44/39
f 39/44/39 38/45/38 40/46/40 41/47/41
f 41/47/41 40/48/40 35/49/35 34/38/34
f 35/50/35 40/46/40 38/45/38 36/51/36
f 41/47/41 34/38/34 37/41/37 39/44/39
