# This file uses meters as units for non-parametric coordinates.

mtllib White_Flower_Floor.mtl
g default
v 0.377075 -0.820541 1.085119
v 2.523895 -0.775107 1.085119
v 0.377075 -0.632782 -1.061728
v 2.523895 -0.768855 -1.061728
v 0.377075 -0.980774 -0.005675
v 2.523895 -0.965094 -0.005675
v 1.463806 -0.797544 1.085119
v 1.463806 -1.371658 -0.005675
v 1.463806 -0.701663 -1.061728
vt 0.018169 0.444884
vt 0.392841 0.442253
vt 0.392208 0.845873
vt 0.014784 0.830731
vt 0.020113 0.062013
vt 0.396660 0.043733
vt 0.763699 0.064086
vt 0.760777 0.449003
vt 0.760654 0.822269
vn 0.186580 0.979824 0.071650
vn 0.007031 0.999104 0.041729
vn 0.029242 0.912460 0.408119
vn 0.187189 0.884904 0.426503
vn 0.158394 0.935783 -0.314995
vn -0.014563 0.945691 -0.324740
vn -0.187578 0.927033 -0.324693
vn -0.178552 0.983641 0.023854
vn -0.146499 0.915228 0.375360
s 1
g White_Flower_Floor
usemtl lambert10SG
f 5/1/1 8/2/2 9/3/3 3/4/4
f 1/5/5 7/6/6 8/2/2 5/1/1
f 8/2/2 7/6/6 2/7/7 6/8/8
f 9/3/3 8/2/2 6/8/8 4/9/9
