# This file uses meters as units for non-parametric coordinates.

mtllib White_Flowers_Floor.mtl
g default
v -2.040298 -0.820541 8.535645
v -0.532501 -0.775109 10.063904
v -0.512070 -0.632782 7.027863
v 0.995728 -0.768856 8.556122
v -1.263824 -0.980774 7.769562
v 0.243973 -0.965094 9.297791
v -1.277039 -0.797544 9.309265
v -0.500565 -1.371658 8.543152
v 0.251190 -0.701663 7.801483
v 0.203934 -0.845072 5.931213
v 1.037781 -0.805774 7.590454
v 1.863159 -0.682664 5.097351
v 2.697006 -0.800365 6.756592
v 1.046967 -0.983669 5.507538
v 1.880814 -0.970106 7.166779
v 0.626022 -0.825179 6.771149
v 1.469055 -1.321775 6.347473
v 2.285248 -0.742245 5.937286
v 1.389130 -0.820541 9.619298
v 3.535980 -0.775109 9.619298
v 1.389130 -0.632782 7.472450
v 3.535980 -0.768856 7.472450
v 1.389130 -0.980774 8.528504
v 3.535980 -0.965094 8.528504
v 2.475861 -0.797544 9.619298
v 2.475861 -1.371658 8.528504
v 2.475861 -0.701663 7.472450
vt 0.018169 0.444884
vt 0.392841 0.442253
vt 0.392208 0.845873
vt 0.014784 0.830731
vt 0.020113 0.062013
vt 0.396660 0.043733
vt 0.763699 0.064086
vt 0.760777 0.449003
vt 0.760654 0.822269
vt 0.018169 0.444884
vt 0.392841 0.442253
vt 0.392208 0.845873
vt 0.014784 0.830731
vt 0.020113 0.062013
vt 0.396660 0.043733
vt 0.763699 0.064086
vt 0.760777 0.449003
vt 0.760654 0.822269
vt 0.018169 0.444884
vt 0.392841 0.442253
vt 0.392208 0.845873
vt 0.014784 0.830731
vt 0.020113 0.062013
vt 0.396660 0.043733
vt 0.763699 0.064086
vt 0.760777 0.449003
vt 0.760654 0.822269
vn 0.080036 0.979824 0.183136
vn -0.024767 0.999104 0.034316
vn -0.269986 0.912459 0.307452
vn -0.172144 0.884902 0.432798
vn 0.335474 0.935783 -0.108482
vn 0.220937 0.945692 -0.238442
vn 0.099392 0.927035 -0.361563
vn -0.142381 0.983642 -0.110348
vn -0.370093 0.915227 0.159344
vn 0.019754 0.979824 0.198882
vn -0.034125 0.999104 0.025018
vn -0.351528 0.912461 0.209386
vn -0.297036 0.884908 0.358758
vn 0.352580 0.935782 0.000083
vn 0.283621 0.945691 -0.158832
vn 0.205886 0.927032 -0.313405
vn -0.101491 0.983642 -0.148825
vn -0.401169 0.915230 0.037657
vn 0.186580 0.979824 0.071650
vn 0.007031 0.999104 0.041728
vn 0.029242 0.912461 0.408118
vn 0.187189 0.884904 0.426503
vn 0.158393 0.935783 -0.314995
vn -0.014562 0.945691 -0.324740
vn -0.187572 0.927034 -0.324693
vn -0.178546 0.983642 0.023854
vn -0.146494 0.915229 0.375360
s 1
g White_Flowers_Floor
usemtl lambert10SG
f 5/1/1 8/2/2 9/3/3 3/4/4
f 1/5/5 7/6/6 8/2/2 5/1/1
f 8/2/2 7/6/6 2/7/7 6/8/8
f 9/3/3 8/2/2 6/8/8 4/9/9
s 2
f 14/10/10 17/11/11 18/12/12 12/13/13
f 10/14/14 16/15/15 17/11/11 14/10/10
f 17/11/11 16/15/15 11/16/16 15/17/17
f 18/12/12 17/11/11 15/17/17 13/18/18
s 3
f 23/19/19 26/20/20 27/21/21 21/22/22
f 19/23/23 25/24/24 26/20/20 23/19/19
f 26/20/20 25/24/24 20/25/25 24/26/26
f 27/21/21 26/20/20 24/26/26 22/27/27
