# This file uses meters as units for non-parametric coordinates.

mtllib Crystal_Plaehodlder.mtl
g default
v 1.999389 -0.570341 -97.290901
v -5.234467 -0.570341 -94.940475
v -5.234467 -0.570341 -87.334351
v 1.999388 -0.570341 -84.983932
v 6.470157 -0.570341 -91.137413
v 1.999389 28.354549 -97.290901
v -5.234467 28.354549 -94.940475
v -5.234467 28.354549 -87.334351
v 1.999388 28.354549 -84.983932
v 6.470157 28.354549 -91.137413
v 0.000000 -0.570341 -91.137413
v 0.000000 42.720043 -91.137413
v 1.999389 0.318079 -91.744896
v -5.234467 -0.566715 -89.567368
v -5.234467 -3.429971 -82.520744
v 1.999388 -4.314766 -80.343216
v 6.470157 -1.998343 -86.044052
v 1.999389 27.115274 -80.856384
v -5.234467 26.230480 -78.678864
v -5.234467 23.367226 -71.632233
v 1.999388 22.482430 -69.454712
v 6.470157 24.798851 -75.155548
v 0.000000 -1.998343 -86.044052
v 0.000000 38.107632 -69.747787
v -0.823936 -4.660260 -96.396057
v -5.525902 -4.172828 -96.048874
v -6.420484 -0.954190 -92.686333
v -2.271400 0.547605 -90.955345
v 1.187457 -1.742872 -93.248077
v -0.383942 8.415430 -108.795082
v -5.085909 8.902863 -108.447906
v -5.980491 12.121500 -105.085358
v -1.831407 13.623295 -103.354370
v 1.627450 11.332818 -105.647110
v -2.770853 -2.196509 -93.866936
v -2.112338 17.373199 -112.423920
v -2.244678 1.036767 -82.668999
v -6.040642 -1.797655 -82.821686
v -5.847792 -4.706622 -79.084396
v -1.932639 -3.670041 -76.621941
v 0.294208 -0.120431 -78.837349
v -11.555592 12.979663 -72.892632
v -15.351557 10.145241 -73.045319
v -15.158706 7.236273 -69.308029
v -11.243553 8.272854 -66.845573
v -9.016706 11.822464 -69.060982
v -3.154308 -1.851596 -80.006874
v -17.089470 16.022717 -65.375092
v 9.042337 -4.970783 -87.729118
v 7.606725 -3.461118 -91.986641
v 3.894465 -0.584533 -91.345551
v 3.035777 -0.316370 -86.691803
v 6.217336 -3.027221 -84.456726
v 20.190405 9.138660 -86.485153
v 18.754791 10.648325 -90.742676
v 15.042532 13.524910 -90.101585
v 14.183844 13.793072 -85.447838
v 17.365402 11.082222 -83.212761
v 5.959328 -2.472005 -88.441963
v 22.644062 18.644867 -86.580193
v -1.225123 -2.304519 -90.703659
v -6.282043 -4.443843 -90.421951
v -7.353303 -5.583928 -85.151169
v -2.958459 -4.149216 -82.175362
v 0.828965 -2.122429 -85.606987
v -9.192134 16.860497 -88.177467
v -14.249054 14.721173 -87.895760
v -15.320314 13.581088 -82.624977
v -10.925470 15.015800 -79.649170
v -7.138046 17.042587 -83.080795
v -3.397993 -3.720787 -86.811829
v -15.321805 24.962500 -83.031006
vt 0.840253 0.362239
vt 0.920232 0.362239
vt 0.920232 0.666388
vt 0.840253 0.666388
vt 0.880242 0.817443
vt 0.000000 0.030124
vt 0.074096 0.000016
vt 0.188590 0.281792
vt 0.114494 0.311900
vt 0.208406 0.436790
vt 0.734106 0.485005
vt 0.769824 0.519194
vt 0.638120 0.658086
vt 0.602402 0.623897
vt 0.560168 0.713870
vt 0.172251 0.495400
vt 0.209352 0.461016
vt 0.355484 0.615123
vt 0.318383 0.649507
vt 0.398253 0.720697
vt 0.145229 0.522395
vt 0.291361 0.676502
vt 0.041494 0.698012
vt 0.083086 0.665638
vt 0.191887 0.798550
vt 0.150295 0.830924
vt 0.235657 0.896334
vt 0.923992 0.182189
vt 0.978956 0.201678
vt 0.925219 0.304911
vt 0.940051 0.000040
vt 0.995015 0.019529
vt 0.881747 0.207280
vt 0.897806 0.025131
vt 0.772825 0.030707
vt 0.832256 0.017851
vt 0.860741 0.233949
vt 0.801309 0.246805
vt 0.856163 0.362282
vt 0.894295 0.250127
vt 0.711162 0.024914
vt 0.773775 0.022677
vt 0.742740 0.258121
vt 0.680127 0.260358
vt 0.679516 0.357655
vt 0.669004 0.000015
vt 0.637970 0.235459
vt 0.425313 0.740801
vt 0.500896 0.716243
vt 0.480005 0.780538
vt 0.547609 0.780538
vt 0.425313 0.820274
vt 0.500896 0.844832
vt 0.739409 0.470112
vt 0.715771 0.391586
vt 0.777656 0.413290
vt 0.777656 0.343054
vt 0.815903 0.470112
vt 0.839540 0.391586
vt 0.944480 0.440966
vt 0.998036 0.418623
vt 0.994409 0.535691
vt 0.938801 0.280922
vt 0.992356 0.258579
vt 0.672672 0.727434
vt 0.719530 0.758483
vt 0.627596 0.826159
vt 0.792230 0.613569
vt 0.839088 0.644617
vt 0.721398 0.804905
vt 0.115426 0.003113
vt 0.170614 0.000039
vt 0.146901 0.042512
vt 0.193031 0.055660
vt 0.103735 0.060635
vt 0.151697 0.093111
vt 0.434229 0.518949
vt 0.347512 0.518949
vt 0.347512 0.172208
vt 0.434229 0.172208
vt 0.410261 0.000000
vt 0.487822 0.518949
vt 0.487822 0.172208
vt 0.492741 0.000042
vt 0.579457 0.000042
vt 0.579457 0.346783
vt 0.492741 0.346783
vt 0.633051 0.000042
vt 0.633051 0.346783
vt 0.555489 0.518991
vt 0.089624 0.664242
vt 0.000000 0.675204
vt 0.000000 0.343198
vt 0.089624 0.332236
vt 0.064853 0.196046
vt 0.145015 0.692942
vt 0.145015 0.360936
vt 0.202283 0.010852
vt 0.290700 0.000037
vt 0.290700 0.327571
vt 0.202283 0.338386
vt 0.345345 0.028350
vt 0.345345 0.355884
vt 0.266262 0.518553
vt 0.849923 0.765358
vt 0.793651 0.759525
vt 0.829238 0.658154
vt 0.844657 0.921844
vt 0.788385 0.916011
vt 0.417792 0.828041
vt 0.371901 0.862308
vt 0.259337 0.717925
vt 0.305228 0.683658
vt 0.406795 0.862960
vt 0.448485 0.842031
vt 0.374232 0.897475
vt 0.421564 0.884944
vt 0.527066 0.561461
vt 0.575634 0.574320
vt 0.503114 0.670458
vt 0.642569 0.413307
vt 0.691137 0.426166
vt 0.603258 0.618353
vt 0.718761 0.470200
vt 0.677333 0.718736
vt 0.637970 0.688234
vt 0.756178 0.538625
vt 0.795541 0.569127
vt 0.836781 0.484335
vt 0.274897 0.505162
vt 0.310477 0.474847
vt 0.435144 0.632631
vt 0.399565 0.662946
vt 0.494175 0.717203
vt 0.294765 0.817099
vt 0.241121 0.839792
vt 0.156609 0.636492
vt 0.210252 0.613799
vt 0.145229 0.527854
vt 0.941880 0.679529
vt 0.992219 0.695962
vt 0.900965 0.915478
vt 0.850626 0.899044
vt 0.643752 0.338413
vt 0.688949 0.362600
vt 0.591289 0.457111
vt 0.749458 0.258825
vt 0.817779 0.286586
vt 0.684650 0.418321
vt 0.927500 0.575328
vt 0.923241 0.517646
vt 0.954267 0.541530
vt 0.961859 0.492971
vt 0.968750 0.586303
vt 0.989985 0.535403
vt 0.552693 0.757490
vt 0.611384 0.760872
vt 0.627072 0.938812
vt 0.568381 0.935430
vt 0.589312 0.733686
vt 0.612791 1.000000
vt 0.544608 0.721212
vt 0.639571 0.726684
vt 0.598302 0.702173
vn -0.309018 0.000000 -0.951056
vn -0.309018 0.000000 -0.951056
vn -0.309018 0.000000 -0.951056
vn -0.309018 0.000000 -0.951056
vn -1.000000 0.000000 0.000000
vn -1.000000 0.000000 0.000000
vn -1.000000 0.000000 0.000000
vn -1.000000 0.000000 0.000000
vn -0.309017 0.000000 0.951057
vn -0.309017 0.000000 0.951057
vn -0.309017 0.000000 0.951057
vn -0.309017 0.000000 0.951057
vn 0.809017 0.000000 0.587785
vn 0.809017 0.000000 0.587785
vn 0.809017 0.000000 0.587785
vn 0.809017 0.000000 0.587785
vn 0.809017 0.000000 -0.587785
vn 0.809017 0.000000 -0.587785
vn 0.809017 0.000000 -0.587785
vn 0.809017 0.000000 -0.587785
vn 0.000000 -1.000000 0.000000
vn 0.000000 -1.000000 0.000000
vn 0.000000 -1.000000 -0.000000
vn 0.000000 -1.000000 -0.000000
vn 0.000000 -1.000000 -0.000000
vn 0.000000 -1.000000 0.000000
vn 0.281757 0.410665 -0.867160
vn -0.737650 0.410665 -0.535935
vn 0.000000 1.000000 -0.000000
vn -0.737650 0.410665 0.535935
vn 0.281756 0.410665 0.867161
vn 0.911786 0.410665 0.000000
vn -0.309017 0.358016 -0.881098
vn -0.309017 0.358016 -0.881098
vn -0.309017 0.358016 -0.881098
vn -0.309017 0.358016 -0.881098
vn -1.000000 -0.000000 0.000000
vn -1.000000 -0.000000 0.000000
vn -1.000000 -0.000000 0.000000
vn -1.000000 -0.000000 0.000000
vn -0.309017 -0.358016 0.881097
vn -0.309017 -0.358016 0.881097
vn -0.309017 -0.358016 0.881097
vn -0.309017 -0.358016 0.881097
vn 0.809017 -0.221266 0.544548
vn 0.809017 -0.221266 0.544548
vn 0.809017 -0.221266 0.544548
vn 0.809017 -0.221266 0.544548
vn 0.809017 0.221266 -0.544548
vn 0.809017 0.221266 -0.544548
vn 0.809017 0.221266 -0.544548
vn 0.809017 0.221266 -0.544548
vn 0.000000 -0.926441 -0.376441
vn 0.000000 -0.926441 -0.376440
vn -0.000000 -0.926441 -0.376441
vn -0.000000 -0.926441 -0.376441
vn -0.000000 -0.926441 -0.376441
vn 0.000000 -0.926441 -0.376441
vn 0.281758 0.706891 -0.648782
vn -0.737651 0.582204 -0.341921
vn -0.000001 0.926441 0.376441
vn -0.737651 0.178709 0.651102
vn 0.281757 0.054022 0.957964
vn 0.911787 0.380456 0.154591
vn -0.123872 -0.680584 -0.722122
vn -0.123872 -0.680584 -0.722122
vn -0.123872 -0.680584 -0.722122
vn -0.123872 -0.680584 -0.722122
vn -0.981725 -0.112509 -0.153487
vn -0.981725 -0.112509 -0.153487
vn -0.981725 -0.112509 -0.153487
vn -0.981725 -0.112509 -0.153487
vn -0.482867 0.611050 0.627262
vn -0.482867 0.611050 0.627262
vn -0.482867 0.611050 0.627262
vn -0.482867 0.611050 0.627262
vn 0.683297 0.490159 0.541156
vn 0.683297 0.490159 0.541156
vn 0.683297 0.490159 0.541156
vn 0.683297 0.490159 0.541156
vn 0.905167 -0.308115 -0.292810
vn 0.905167 -0.308115 -0.292810
vn 0.905167 -0.308115 -0.292810
vn 0.905167 -0.308115 -0.292810
vn -0.024408 -0.725417 0.687877
vn -0.024410 -0.725417 0.687877
vn -0.024410 -0.725417 0.687877
vn -0.024410 -0.725416 0.687877
vn -0.024410 -0.725416 0.687877
vn -0.024410 -0.725417 0.687877
vn 0.450295 -0.259244 -0.854416
vn -0.612996 -0.149017 -0.775906
vn 0.024409 0.725417 -0.687877
vn -0.815295 0.578838 -0.015507
vn 0.122969 0.918451 0.375934
vn 0.905148 0.400487 -0.142540
vn -0.302993 0.451004 -0.839518
vn -0.302993 0.451004 -0.839518
vn -0.302993 0.451004 -0.839518
vn -0.302993 0.451004 -0.839518
vn -0.855288 -0.429357 -0.290061
vn -0.855288 -0.429357 -0.290061
vn -0.855288 -0.429357 -0.290061
vn -0.855288 -0.429357 -0.290061
vn -0.225603 -0.716361 0.660250
vn -0.225603 -0.716361 0.660250
vn -0.225603 -0.716361 0.660250
vn -0.225603 -0.716361 0.660250
vn 0.715857 -0.013378 0.698119
vn 0.715857 -0.013378 0.698119
vn 0.715857 -0.013378 0.698119
vn 0.715857 -0.013378 0.698119
vn 0.668027 0.708092 -0.228789
vn 0.668027 0.708092 -0.228789
vn 0.668027 0.708092 -0.228789
vn 0.668027 0.708092 -0.228789
vn 0.516554 -0.662571 -0.542376
vn 0.516554 -0.662571 -0.542376
vn 0.516553 -0.662571 -0.542376
vn 0.516554 -0.662571 -0.542376
vn 0.516554 -0.662571 -0.542376
vn 0.516552 -0.662572 -0.542377
vn -0.006427 0.925263 -0.379273
vn -0.864840 0.284293 -0.413800
vn -0.516553 0.662571 0.542376
vn -0.821229 -0.373535 0.431342
vn 0.064136 -0.139124 0.988196
vn 0.567710 0.663576 0.487209
vn 0.725088 -0.534632 -0.434070
vn 0.725088 -0.534632 -0.434070
vn 0.725088 -0.534632 -0.434070
vn 0.725088 -0.534632 -0.434070
vn -0.063989 0.137702 -0.988405
vn -0.063989 0.137702 -0.988405
vn -0.063989 0.137702 -0.988405
vn -0.063989 0.137702 -0.988405
vn -0.764636 0.619737 -0.176798
vn -0.764636 0.619737 -0.176798
vn -0.764636 0.619737 -0.176798
vn -0.764636 0.619737 -0.176798
vn -0.408580 0.245316 0.879137
vn -0.408580 0.245316 0.879137
vn -0.408580 0.245316 0.879137
vn -0.408580 0.245316 0.879137
vn 0.512118 -0.468124 0.720136
vn 0.512118 -0.468124 0.720136
vn 0.512118 -0.468124 0.720136
vn 0.512118 -0.468124 0.720136
vn -0.618475 -0.782768 -0.069013
vn -0.618476 -0.782767 -0.069013
vn -0.618475 -0.782768 -0.069013
vn -0.618475 -0.782768 -0.069013
vn -0.618475 -0.782768 -0.069013
vn -0.618475 -0.782768 -0.069013
vn 0.951171 -0.243613 0.189544
vn 0.626525 0.097779 -0.773243
vn 0.618476 0.782767 0.069013
vn -0.212958 0.748283 -0.628268
vn -0.407138 0.808926 0.424120
vn 0.312331 0.195900 0.929555
vn -0.093980 0.091605 -0.991351
vn -0.093980 0.091605 -0.991351
vn -0.093980 0.091605 -0.991351
vn -0.093980 0.091605 -0.991351
vn -0.903791 -0.341755 -0.257614
vn -0.903791 -0.341755 -0.257614
vn -0.903791 -0.341755 -0.257614
vn -0.903791 -0.341755 -0.257614
vn -0.464595 -0.302821 0.832137
vn -0.464595 -0.302821 0.832137
vn -0.464595 -0.302821 0.832137
vn -0.464595 -0.302821 0.832137
vn 0.616656 0.154601 0.771903
vn 0.616656 0.154601 0.771903
vn 0.616656 0.154601 0.771903
vn 0.616656 0.154601 0.771903
vn 0.845710 0.398369 -0.355074
vn 0.845710 0.398369 -0.355074
vn 0.845709 0.398369 -0.355074
vn 0.845710 0.398369 -0.355074
vn 0.381047 -0.916627 -0.120823
vn 0.381047 -0.916627 -0.120823
vn 0.381047 -0.916627 -0.120823
vn 0.381047 -0.916627 -0.120823
vn 0.381048 -0.916627 -0.120823
vn 0.381047 -0.916627 -0.120823
vn 0.267127 0.652534 -0.709114
vn -0.718742 0.235463 -0.654192
vn -0.381048 0.916627 0.120823
vn -0.927589 0.013199 0.373370
vn -0.070791 0.292902 0.953518
vn 0.667582 0.688034 0.284507
s off
g pCylinder39
usemtl initialShadingGroup
f 1/77/1 2/78/2 7/79/3 6/80/4
f 2/1/5 3/2/6 8/3/7 7/4/8
f 3/84/9 4/85/10 9/86/11 8/87/12
f 4/85/13 5/88/14 10/89/15 9/86/16
f 5/82/17 1/77/18 6/80/19 10/83/20
s 1
f 2/48/21 1/49/22 11/50/23
f 3/52/24 2/48/21 11/50/23
f 4/53/25 3/52/24 11/50/23
f 5/51/26 4/53/25 11/50/23
f 1/49/22 5/51/26 11/50/23
s 2
f 6/80/27 7/79/28 12/81/29
f 7/4/28 8/3/30 12/5/29
f 8/87/30 9/86/31 12/90/29
f 9/86/31 10/89/32 12/90/29
f 10/83/32 6/80/27 12/81/29
s off
f 13/91/33 14/92/34 19/93/35 18/94/36
f 14/6/37 15/7/38 20/8/39 19/9/40
f 15/98/41 16/99/42 21/100/43 20/101/44
f 16/99/45 17/102/46 22/103/47 21/100/48
f 17/96/49 13/91/50 18/94/51 22/97/52
s 3
f 14/54/53 13/55/54 23/56/55
f 15/58/56 14/54/53 23/56/55
f 16/59/57 15/58/56 23/56/55
f 17/57/58 16/59/57 23/56/55
f 13/55/54 17/57/58 23/56/55
s 4
f 18/94/59 19/93/60 24/95/61
f 19/9/60 20/8/62 24/10/61
f 20/101/62 21/100/63 24/104/61
f 21/100/63 22/103/64 24/104/61
f 22/147/64 18/148/59 24/149/61
s off
f 25/108/65 26/109/66 31/106/67 30/105/68
f 26/11/69 27/12/70 32/13/71 31/14/72
f 27/63/73 28/64/74 33/61/75 32/60/76
f 28/21/77 29/16/78 34/19/79 33/22/80
f 29/16/81 25/17/82 30/18/83 34/19/84
s 5
f 26/150/85 25/151/86 35/152/87
f 27/154/88 26/150/85 35/152/87
f 28/155/89 27/154/88 35/152/87
f 29/153/90 28/155/89 35/152/87
f 25/151/86 29/153/90 35/152/87
s 6
f 30/105/91 31/106/92 36/107/93
f 31/14/92 32/13/94 36/15/93
f 32/60/94 33/61/95 36/62/93
f 33/22/95 34/19/96 36/20/93
f 34/19/96 30/18/91 36/20/93
s off
f 37/110/97 38/111/98 43/112/99 42/113/100
f 38/23/101 39/24/102 44/25/103 43/26/104
f 39/121/105 40/122/106 45/119/107 44/118/108
f 40/122/109 41/124/110 46/123/111 45/119/112
f 41/68/113 37/69/114 42/66/115 46/65/116
s 7
f 38/111/117 37/110/118 47/114/119
f 39/116/120 38/111/117 47/114/119
f 40/117/121 39/116/120 47/114/119
f 41/115/122 40/117/121 47/114/119
f 37/110/118 41/115/122 47/114/119
s 8
f 42/66/123 43/70/124 48/67/125
f 43/26/124 44/25/126 48/27/125
f 44/118/126 45/119/127 48/120/125
f 45/119/127 46/123/128 48/120/125
f 46/65/128 42/66/123 48/67/125
s off
f 49/31/129 50/32/130 55/29/131 54/28/132
f 50/125/133 51/126/134 56/127/135 55/128/136
f 51/156/137 52/157/138 57/158/139 56/159/140
f 52/130/141 53/131/142 58/132/143 57/133/144
f 53/34/145 49/31/146 54/28/147 58/33/148
s 9
f 50/162/149 49/164/150 59/160/151
f 51/156/152 50/162/149 59/160/151
f 52/157/153 51/156/152 59/160/151
f 53/163/154 52/157/153 59/160/151
f 49/164/150 53/163/154 59/160/151
s 10
f 54/28/155 55/29/156 60/30/157
f 55/128/156 56/127/158 60/129/157
f 56/159/158 57/158/159 60/161/157
f 57/133/159 58/132/160 60/134/157
f 58/33/160 54/28/155 60/30/157
s off
f 61/135/161 62/136/162 67/137/163 66/138/164
f 62/35/165 63/36/166 68/37/167 67/38/168
f 63/140/169 64/141/170 69/142/171 68/143/172
f 64/46/173 65/41/174 70/44/175 69/47/176
f 65/41/177 61/42/178 66/43/179 70/44/180
s 11
f 62/71/181 61/72/182 71/73/183
f 63/75/184 62/71/181 71/73/183
f 64/76/185 63/75/184 71/73/183
f 65/74/186 64/76/185 71/73/183
f 61/72/182 65/74/186 71/73/183
s 12
f 66/138/187 67/137/188 72/139/189
f 67/38/188 68/37/190 72/39/189
f 68/37/190 69/40/191 72/39/189
f 69/144/191 70/145/192 72/146/189
f 70/44/192 66/43/187 72/45/189
