# This file uses meters as units for non-parametric coordinates.

mtllib Mushroom_Placeholder.mtl
g default
v -38.105027 83.255363 47.084517
v 38.105024 83.255363 47.084517
v -26.398232 138.355201 35.377726
v 26.398232 138.355201 35.377726
v -26.398232 138.355201 -17.418739
v 26.398232 138.355201 -17.418739
v -38.105024 83.255363 -29.125530
v 38.105027 83.255363 -29.125530
v -30.369555 147.997673 8.979493
v 43.539700 110.805282 -34.560207
v 0.000000 73.612891 -47.730353
v -43.539700 110.805282 -34.560207
v 56.709842 73.612891 8.979493
v -56.709842 73.612891 8.979493
v 0.000000 73.612891 65.689339
v 43.539700 110.805282 52.519194
v 0.000000 147.997673 39.349048
v -43.539700 110.805282 52.519194
v 30.369555 147.997673 8.979493
v 0.000000 147.997673 -21.390061
v 0.000000 110.805282 67.032424
v 0.000000 160.395134 8.979493
v 0.000000 110.805282 -49.073438
v 0.000000 61.215430 8.979493
v 58.052931 110.805282 8.979493
v -58.052931 110.805282 8.979493
v 11.675106 12.695557 -2.695617
v 0.000000 12.695557 -7.531565
v -11.675114 12.695557 -2.695617
v -16.511057 12.695557 8.979493
v -11.675114 12.695557 20.654598
v 0.000000 12.695557 25.490552
v 11.675105 12.695557 20.654598
v 16.511055 12.695557 8.979493
v 11.675100 92.789267 -2.695607
v 0.000000 92.789267 -7.531592
v -11.675100 92.789267 -2.695607
v -16.511085 92.789267 8.979493
v -11.675100 92.789267 20.654593
v 0.000000 92.789267 25.490578
v 11.675101 92.789267 20.654594
v 16.511087 92.789267 8.979493
v 0.000000 12.695557 8.979493
v 0.000000 92.789267 8.979493
vt 0.375000 0.000000
vt 0.500000 0.000000
vt 0.500000 0.125000
vt 0.375000 0.125000
vt 0.625000 0.000000
vt 0.625000 0.125000
vt 0.625000 0.250000
vt 0.500000 0.250000
vt 0.375000 0.250000
vt 0.500000 0.375000
vt 0.375000 0.375000
vt 0.625000 0.375000
vt 0.625000 0.500000
vt 0.500000 0.500000
vt 0.375000 0.500000
vt 0.500000 0.625000
vt 0.375000 0.625000
vt 0.625000 0.625000
vt 0.625000 0.750000
vt 0.500000 0.750000
vt 0.375000 0.750000
vt 0.500000 0.875000
vt 0.375000 0.875000
vt 0.625000 0.875000
vt 0.625000 1.000000
vt 0.500000 1.000000
vt 0.375000 1.000000
vt 0.750000 0.000000
vt 0.750000 0.125000
vt 0.875000 0.000000
vt 0.875000 0.125000
vt 0.875000 0.250000
vt 0.750000 0.250000
vt 0.125000 0.000000
vt 0.250000 0.000000
vt 0.250000 0.125000
vt 0.125000 0.125000
vt 0.250000 0.250000
vt 0.125000 0.250000
vt 0.375000 0.312500
vt 0.406250 0.312500
vt 0.406250 0.688440
vt 0.375000 0.688440
vt 0.437500 0.312500
vt 0.437500 0.688440
vt 0.468750 0.312500
vt 0.468750 0.688440
vt 0.500000 0.312500
vt 0.500000 0.688440
vt 0.531250 0.312500
vt 0.531250 0.688440
vt 0.562500 0.312500
vt 0.562500 0.688440
vt 0.593750 0.312500
vt 0.593750 0.688440
vt 0.625000 0.312500
vt 0.625000 0.688440
vt 0.500000 0.000000
vt 0.610485 0.045765
vt 0.500000 0.150000
vt 0.389515 0.045765
vt 0.343750 0.156250
vt 0.389515 0.266735
vt 0.500000 0.312500
vt 0.610485 0.266735
vt 0.656250 0.156250
vt 0.610485 0.954235
vt 0.500000 1.000000
vt 0.500000 0.837500
vt 0.389515 0.954235
vt 0.343750 0.843750
vt 0.389515 0.733265
vt 0.500000 0.687500
vt 0.610485 0.733265
vt 0.656250 0.843750
vn -0.546253 -0.634993 0.546253
vn -0.000000 -0.745076 0.666980
vn 0.000000 0.247453 0.968900
vn -0.685132 0.247360 0.685132
vn 0.546253 -0.634993 0.546253
vn 0.685132 0.247360 0.685132
vn 0.514448 0.686066 0.514448
vn 0.000000 0.769822 0.638259
vn -0.514448 0.686066 0.514448
vn 0.000000 1.000000 0.000000
vn -0.638259 0.769822 0.000000
vn 0.638259 0.769822 -0.000000
vn 0.514448 0.686066 -0.514448
vn 0.000000 0.769822 -0.638259
vn -0.514448 0.686066 -0.514448
vn -0.000000 0.247453 -0.968900
vn -0.685132 0.247360 -0.685132
vn 0.685132 0.247360 -0.685132
vn 0.546253 -0.634993 -0.546253
vn 0.000000 -0.745076 -0.666980
vn -0.546253 -0.634993 -0.546253
vn 0.000000 -1.000000 -0.000000
vn -0.666980 -0.745076 -0.000000
vn 0.666980 -0.745076 0.000000
vn 0.968900 0.247453 -0.000000
vn -0.968900 0.247453 0.000000
vn 0.705003 -0.077075 -0.705003
vn 0.000000 -0.077075 -0.997025
vn -0.000000 0.077075 -0.997025
vn 0.705003 0.077075 -0.705003
vn -0.705003 -0.077075 -0.705003
vn -0.705003 0.077075 -0.705003
vn -0.997025 -0.077075 -0.000000
vn -0.997025 0.077075 0.000000
vn -0.705003 -0.077075 0.705003
vn -0.705003 0.077075 0.705003
vn -0.000000 -0.077075 0.997025
vn -0.000000 0.077075 0.997025
vn 0.705003 -0.077075 0.705003
vn 0.705003 0.077075 0.705003
vn 0.997025 -0.077075 -0.000000
vn 0.997025 0.077075 -0.000000
vn 0.000000 -1.000000 -0.000000
vn 0.000000 1.000000 0.000000
s 1
g polySurface2
usemtl initialShadingGroup
f 1/1/1 15/2/2 21/3/3 18/4/4
f 15/2/2 2/5/5 16/6/6 21/3/3
f 21/3/3 16/6/6 4/7/7 17/8/8
f 18/4/4 21/3/3 17/8/8 3/9/9
f 3/9/9 17/8/8 22/10/10 9/11/11
f 17/8/8 4/7/7 19/12/12 22/10/10
f 22/10/10 19/12/12 6/13/13 20/14/14
f 9/11/11 22/10/10 20/14/14 5/15/15
f 5/15/15 20/14/14 23/16/16 12/17/17
f 20/14/14 6/13/13 10/18/18 23/16/16
f 23/16/16 10/18/18 8/19/19 11/20/20
f 12/17/17 23/16/16 11/20/20 7/21/21
f 7/21/21 11/20/20 24/22/22 14/23/23
f 11/20/20 8/19/19 13/24/24 24/22/22
f 24/22/22 13/24/24 2/25/5 15/26/2
f 14/23/23 24/22/22 15/26/2 1/27/1
f 2/5/5 13/28/24 25/29/25 16/6/6
f 13/28/24 8/30/19 10/31/18 25/29/25
f 25/29/25 10/31/18 6/32/13 19/33/12
f 16/6/6 25/29/25 19/33/12 4/7/7
f 7/34/21 14/35/23 26/36/26 12/37/17
f 14/35/23 1/1/1 18/4/4 26/36/26
f 26/36/26 18/4/4 3/9/9 9/38/11
f 12/37/17 26/36/26 9/38/11 5/39/15
s 2
f 27/40/27 28/41/28 36/42/29 35/43/30
f 28/41/28 29/44/31 37/45/32 36/42/29
f 29/44/31 30/46/33 38/47/34 37/45/32
f 30/46/33 31/48/35 39/49/36 38/47/34
f 31/48/35 32/50/37 40/51/38 39/49/36
f 32/50/37 33/52/39 41/53/40 40/51/38
f 33/52/39 34/54/41 42/55/42 41/53/40
f 34/54/41 27/56/27 35/57/30 42/55/42
f 28/58/28 27/59/27 43/60/43
f 29/61/31 28/58/28 43/60/43
f 30/62/33 29/61/31 43/60/43
f 31/63/35 30/62/33 43/60/43
f 32/64/37 31/63/35 43/60/43
f 33/65/39 32/64/37 43/60/43
f 34/66/41 33/65/39 43/60/43
f 27/59/27 34/66/41 43/60/43
f 35/67/30 36/68/29 44/69/44
f 36/68/29 37/70/32 44/69/44
f 37/70/32 38/71/34 44/69/44
f 38/71/34 39/72/36 44/69/44
f 39/72/36 40/73/38 44/69/44
f 40/73/38 41/74/40 44/69/44
f 41/74/40 42/75/42 44/69/44
f 42/75/42 35/67/30 44/69/44
