# This file uses meters as units for non-parametric coordinates.

mtllib Grass_Small.mtl
g default
v 503.272217 60.791203 0.000008
v 514.323669 60.791203 0.000008
v 503.272217 39.208797 -0.000008
v 514.323669 39.208797 -0.000008
v 505.220337 60.791203 -8.048237
v 511.043579 60.791203 1.344597
v 505.220337 39.208797 -8.048244
v 511.043579 39.208797 1.344585
v 503.733765 60.791203 3.195030
v 509.171082 60.791203 -6.426361
v 503.733765 39.208797 3.195023
v 509.171021 39.208797 -6.426369
v 503.272217 60.791203 0.000008
v 514.323669 60.791203 0.000008
v 503.272217 39.208797 -0.000008
v 514.323669 39.208797 -0.000008
vt 0.512148 0.999938
vt 0.000121 1.000000
vt 0.512027 0.000000
vt 0.000000 0.000062
vt 0.512150 0.999938
vt 0.000121 1.000000
vt 0.000000 0.000062
vt 0.512028 0.000000
vt 0.512150 0.999937
vt 0.000121 1.000000
vt 0.000000 0.000062
vt 0.512027 0.000000
vt 0.512148 0.999938
vt 0.000121 1.000000
vt 0.000000 0.000062
vt 0.512027 0.000000
vn 0.000000 0.000001 -1.000000
vn 0.000000 0.000001 -1.000000
vn 0.000000 0.000001 -1.000000
vn 0.000000 0.000001 -1.000000
vn 0.849915 0.000000 -0.526919
vn 0.849916 0.000000 -0.526919
vn 0.849916 0.000000 -0.526919
vn 0.849915 0.000000 -0.526919
vn -0.870597 0.000000 -0.491996
vn -0.870597 0.000000 -0.491996
vn -0.870597 0.000000 -0.491996
vn -0.870597 0.000000 -0.491996
vn 0.000000 0.000001 -1.000000
vn 0.000000 0.000001 -1.000000
vn 0.000000 0.000001 -1.000000
vn 0.000000 0.000001 -1.000000
s off
g Grass_Small
usemtl lambert23SG
f 1/1/1 2/2/2 4/4/3 3/3/4
f 5/5/5 6/6/6 8/7/7 7/8/8
f 9/9/9 10/10/10 12/11/11 11/12/12
f 13/13/13 14/14/14 16/15/15 15/16/16
